<ttFont>
<head>
    <!-- Most of this table will be recalculated by the compiler -->
    <tableVersion value="1.0"/>
    <fontRevision value="1.003"/>
    <checkSumAdjustment value="0x579debce"/>
    <magicNumber value="0x5f0f3cf5"/>
    <flags value="00000000 00000011"/>
    <unitsPerEm value="1000"/>
    <created value="Wed Mar 29 18:41:25 2023"/>
    <modified value="Wed Mar 29 18:41:25 2023"/>
    <xMin value="-199"/>
    <yMin value="-364"/>
    <xMax value="1459"/>
    <yMax value="1028"/>
    <macStyle value="00000000 00000000"/>
    <lowestRecPPEM value="6"/>
    <fontDirectionHint value="2"/>
    <indexToLocFormat value="0"/>
    <glyphDataFormat value="0"/>
  </head>
        <CharString name=".notdef">
          136 50 -200 rmoveto
          400 1000 -400 -1000 hlineto
          50 50 rmoveto
          900 300 -900 -300 vlineto
          endchar
        </CharString>
        <CharString name=".notdef.1">
          136 50 -200 rmoveto
          400 1000 -400 -1000 hlineto
          50 50 rmoveto
          900 300 -900 -300 vlineto
          endchar
        </CharString>
        <CharString name="A">
          358 572 -10 rmoveto
          15 15 2 4 15 hvcurveto
          104 30 -1 26 rlineto
          -1 -14 -15 -2 -14 hhcurveto
          -27 -24 8 22 -13 hvcurveto
          -36 60 -27 97 -22 81 -33 120 -45 160 -15 83 rrcurveto
          -194 -27 hlineto
          90 -15 rlineto
          9 -2 3 -6 -3 vvcurveto
          -3 0 -1 -1 -3 vhcurveto
          -105 -208 -115 -204 -119 -200 3 -10 rcurveline
          91 19 117 248 rlineto
          4 2 4 4 4 hhcurveto
          225 hlineto
          3 6 -5 -4 2 hvcurveto
          54 -188 rlineto
          -44 12 13 -42 33 hhcurveto
          -206 586 rmoveto
          3 3 -2 -2 1 hvcurveto
          70 -244 rlineto
          -1 2 -8 0 vhcurveto
          -3 -2 -4 -5 vhcurveto
          -188 hlineto
          -3 -4 4 3 1 0 6 1 2 hvcurveto
          116 244 rlineto
          1 3 3 3 vhcurveto
          endchar
        </CharString>
        <CharString name="AE">
          433 366 66 rmoveto
          -27 6 -28 20 -11 vhcurveto
          388 hlineto
          13 53 -5 5 rlineto
          -14 -164 -23 0 -47 hhcurveto
          -61 -21 6 26 -14 hvcurveto
          -14 25 -1 49 38 vvcurveto
          139 vlineto
          18 71 -3 58 39 40 -3 -3 39 vhcurveto
          6 48 -6 7 rlineto
          -4 -53 -74 -3 -53 hhcurveto
          -37 -29 -3 17 hvcurveto
          166 vlineto
          35 4 37 20 4 vhcurveto
          40 hlineto
          7 133 -6 -4 69 hvcurveto
          4 7 2 50 rlineto
          1 -13 -15 0 -18 hhcurveto
          -1 -71 -101 -5 -70 hhcurveto
          -194 -27 hlineto
          91 -15 rlineto
          9 -2 3 -6 -3 vvcurveto
          -3 0 -1 -1 -3 vhcurveto
          -105 -208 -116 -206 -119 -200 3 -10 rcurveline
          91 19 117 248 rlineto
          4 2 4 4 4 hhcurveto
          142 hlineto
          39 vmoveto
          -116 hlineto
          -3 -4 4 3 1 0 6 1 2 hvcurveto
          116 244 rlineto
          2 5 4 0 -9 vvcurveto
          endchar
        </CharString>
        <CharString name="Aacute">
          358 517 882 rmoveto
          -47 36 -13 -2 -120 -157 18 -31 rlineto
          217 -738 rmoveto
          15 15 2 4 15 hvcurveto
          104 30 -1 26 rlineto
          -1 -14 -15 -2 -14 hhcurveto
          -27 -24 8 22 -13 hvcurveto
          -36 60 -27 97 -22 81 -33 120 -45 160 -15 83 rrcurveto
          -194 -27 hlineto
          90 -15 rlineto
          9 -2 3 -6 -3 vvcurveto
          -3 0 -1 -1 -3 vhcurveto
          -105 -208 -115 -204 -119 -200 3 -10 rcurveline
          91 19 117 248 rlineto
          4 2 4 4 4 hhcurveto
          225 hlineto
          3 6 -5 -4 2 hvcurveto
          54 -188 rlineto
          -44 12 13 -42 33 hhcurveto
          -206 586 rmoveto
          3 3 -2 -2 1 hvcurveto
          70 -244 rlineto
          -1 2 -8 0 vhcurveto
          -3 -2 -4 -5 vhcurveto
          -188 hlineto
          -3 -4 4 3 1 0 6 1 2 hvcurveto
          116 244 rlineto
          1 3 3 3 vhcurveto
          endchar
        </CharString>
        <CharString name="Acircumflex">
          358 189 729 rmoveto
          23 -12 143 131 121 -124 39 26 -157 160 rlineto
          214 -920 rmoveto
          15 15 2 4 15 hvcurveto
          104 30 -1 26 rlineto
          -1 -14 -15 -2 -14 hhcurveto
          -27 -24 8 22 -13 hvcurveto
          -36 60 -27 97 -22 81 -33 120 -45 160 -15 83 rrcurveto
          -194 -27 hlineto
          90 -15 rlineto
          9 -2 3 -6 -3 vvcurveto
          -3 0 -1 -1 -3 vhcurveto
          -105 -208 -115 -204 -119 -200 3 -10 rcurveline
          91 19 117 248 rlineto
          4 2 4 4 4 hhcurveto
          225 hlineto
          3 6 -5 -4 2 hvcurveto
          54 -188 rlineto
          -44 12 13 -42 33 hhcurveto
          -206 586 rmoveto
          3 3 -2 -2 1 hvcurveto
          70 -244 rlineto
          -1 2 -8 0 vhcurveto
          -3 -2 -4 -5 vhcurveto
          -188 hlineto
          -3 -4 4 3 1 0 6 1 2 hvcurveto
          116 244 rlineto
          1 3 3 3 vhcurveto
          endchar
        </CharString>
        <CharString name="Adieresis">
          358 512 813 rmoveto
          30 -20 28 -34 -29 -35 -22 -34 -32 26 -26 32 32 26 23 33 2 vhcurveto
          -202 hmoveto
          30 -20 28 -34 -29 -35 -22 -34 -32 26 -26 32 32 26 23 33 2 vhcurveto
          262 -823 rmoveto
          15 15 2 4 15 hvcurveto
          104 30 -1 26 rlineto
          -1 -14 -15 -2 -14 hhcurveto
          -27 -24 8 22 -13 hvcurveto
          -36 60 -27 97 -22 81 -33 120 -45 160 -15 83 rrcurveto
          -194 -27 hlineto
          90 -15 rlineto
          9 -2 3 -6 -3 vvcurveto
          -3 0 -1 -1 -3 vhcurveto
          -105 -208 -115 -204 -119 -200 3 -10 rcurveline
          91 19 117 248 rlineto
          4 2 4 4 4 hhcurveto
          225 hlineto
          3 6 -5 -4 2 hvcurveto
          54 -188 rlineto
          -44 12 13 -42 33 hhcurveto
          -206 586 rmoveto
          3 3 -2 -2 1 hvcurveto
          70 -244 rlineto
          -1 2 -8 0 vhcurveto
          -3 -2 -4 -5 vhcurveto
          -188 hlineto
          -3 -4 4 3 1 0 6 1 2 hvcurveto
          116 244 rlineto
          1 3 3 3 vhcurveto
          endchar
        </CharString>
        <CharString name="Agrave">
          358 222 883 rmoveto
          162 -154 18 31 -120 157 -13 2 rlineto
          303 -929 rmoveto
          15 15 2 4 15 hvcurveto
          104 30 -1 26 rlineto
          -1 -14 -15 -2 -14 hhcurveto
          -27 -24 8 22 -13 hvcurveto
          -36 60 -27 97 -22 81 -33 120 -45 160 -15 83 rrcurveto
          -194 -27 hlineto
          90 -15 rlineto
          9 -2 3 -6 -3 vvcurveto
          -3 0 -1 -1 -3 vhcurveto
          -105 -208 -115 -204 -119 -200 3 -10 rcurveline
          91 19 117 248 rlineto
          4 2 4 4 4 hhcurveto
          225 hlineto
          3 6 -5 -4 2 hvcurveto
          54 -188 rlineto
          -44 12 13 -42 33 hhcurveto
          -206 586 rmoveto
          3 3 -2 -2 1 hvcurveto
          70 -244 rlineto
          -1 2 -8 0 vhcurveto
          -3 -2 -4 -5 vhcurveto
          -188 hlineto
          -3 -4 4 3 1 0 6 1 2 hvcurveto
          116 244 rlineto
          1 3 3 3 vhcurveto
          endchar
        </CharString>
        <CharString name="Aring">
          358 572 -10 rmoveto
          15 15 2 4 15 hvcurveto
          104 30 -1 26 rlineto
          -1 -14 -15 -2 -14 hhcurveto
          -27 -24 8 22 -13 hvcurveto
          -36 60 -27 97 -22 81 -33 120 -45 159 -15 83 rrcurveto
          21 18 13 26 30 vvcurveto
          54 -43 43 -54 -54 -43 -43 -54 -29 13 -26 20 -18 vhcurveto
          -67 -27 hlineto
          90 -15 rlineto
          9 -2 3 -6 -3 vvcurveto
          -3 0 -1 -1 -3 vhcurveto
          -105 -208 -115 -204 -119 -200 3 -10 rcurveline
          91 19 117 248 rlineto
          4 2 4 4 4 hhcurveto
          225 hlineto
          3 6 -5 -4 2 hvcurveto
          54 -188 rlineto
          -44 12 13 -42 33 hhcurveto
          -267 763 rmoveto
          37 30 30 37 37 30 -30 -37 -37 -30 -30 -37 -37 -30 30 37 vhcurveto
          61 -177 rmoveto
          3 3 -2 -2 1 hvcurveto
          70 -244 rlineto
          -1 2 -8 0 vhcurveto
          -3 -2 -4 -5 vhcurveto
          -188 hlineto
          -3 -4 4 3 1 0 6 1 2 hvcurveto
          116 244 rlineto
          1 3 3 3 vhcurveto
          endchar
        </CharString>
        <CharString name="Atilde">
          358 350 838 rmoveto
          -26 12 -31 13 -26 -4 -35 -5 -19 -58 -8 -35 14 -5 rcurveline
          12 33 10 12 24 3 17 2 18 -4 15 -7 63 -30 rcurveline
          20 -9 22 -6 22 3 32 4 20 56 3 29 -13 5 rcurveline
          -9 -23 -8 -13 -24 -3 -16 -2 -16 5 -14 6 rrcurveto
          175 -827 rmoveto
          15 15 2 4 15 hvcurveto
          104 30 -1 26 rlineto
          -1 -14 -15 -2 -14 hhcurveto
          -27 -24 8 22 -13 hvcurveto
          -36 60 -27 97 -22 81 -33 120 -45 160 -15 83 rrcurveto
          -194 -27 hlineto
          90 -15 rlineto
          9 -2 3 -6 -3 vvcurveto
          -3 0 -1 -1 -3 vhcurveto
          -105 -208 -115 -204 -119 -200 3 -10 rcurveline
          91 19 117 248 rlineto
          4 2 4 4 4 hhcurveto
          225 hlineto
          3 6 -5 -4 2 hvcurveto
          54 -188 rlineto
          -44 12 13 -42 33 hhcurveto
          -206 586 rmoveto
          3 3 -2 -2 1 hvcurveto
          70 -244 rlineto
          -1 2 -8 0 vhcurveto
          -3 -2 -4 -5 vhcurveto
          -188 hlineto
          -3 -4 4 3 1 0 6 1 2 hvcurveto
          116 244 rlineto
          1 3 3 3 vhcurveto
          endchar
        </CharString>
        <CharString name="B">
          195 335 378 rmoveto
          81 34 72 44 97 vvcurveto
          109 -116 24 -113 vhcurveto
          -247 hlineto
          -7 -7 -1 -17 rlineto
          37 -10 46 -7 -34 vvcurveto
          -530 vlineto
          -56 -3 16 -20 -30 vhcurveto
          1 -10 rlineto
          1 131 -2 66 hhcurveto
          121 144 48 154 98 -48 52 -146 19 hvcurveto
          -165 259 rmoveto
          21 6 44 -2 23 hhcurveto
          85 76 -19 -84 -118 -94 -46 -106 -20 -12 0 10 -2 hvcurveto
          -53 vmoveto
          10 5 21 -2 36 hhcurveto
          100 106 -19 -119 -117 -91 -52 -102 -67 -8 4 23 hvcurveto
          endchar
        </CharString>
        <CharString name="C">
          269 624 586 rmoveto
          85 -52 -76 28 -88 hhcurveto
          -104 -101 -36 -73 -73 hvcurveto
          -70 -70 -21 -98 -96 vvcurveto
          -98 26 -99 70 -70 vhcurveto
          -57 57 82 -17 79 hhcurveto
          87 80 42 49 72 hvcurveto
          -17 29 rlineto
          -38 -56 -63 -29 -68 hhcurveto
          -82 -42 28 55 -55 hvcurveto
          -33 33 -48 98 92 vvcurveto
          152 64 162 182 82 63 -39 -90 34 vhcurveto
          14 -1 rlineto
          endchar
        </CharString>
        <CharString name="Ccedilla">
          269 285 -112 rmoveto
          37 -11 50 -31 -28 -38 -14 -18 -32 -14 -26 -10 -5 -10 rcurveline
          6 -15 55 10 70 18 33 44 rlinecurve
          26 36 -9 36 -23 28 -19 23 -40 18 -13 5 11 26 rcurveline
          83 4 76 40 69 47 -17 29 rcurveline
          -38 -56 -63 -29 -68 hhcurveto
          -82 -42 28 55 -55 hvcurveto
          -33 33 -48 98 92 vvcurveto
          152 64 162 182 82 63 -39 -90 34 vhcurveto
          14 -1 57 58 rlineto
          85 -52 -76 28 -88 hhcurveto
          -104 -101 -36 -73 -73 hvcurveto
          -70 -70 -21 -98 -96 vvcurveto
          -98 26 -99 70 -70 vhcurveto
          51 -51 71 -19 71 -3 rrcurveto
          endchar
        </CharString>
        <CharString name="D">
          373 295 2 rmoveto
          104 131 16 73 67 hvcurveto
          77 83 22 84 127 vvcurveto
          177 -57 124 -310 vhcurveto
          -313 hlineto
          -7 -8 rlineto
          -19 vlineto
          26 -8 47 -6 2 -25 rrcurveto
          1 -15 1 -16 -16 vvcurveto
          -494 vlineto
          -1 -38 -1 -14 -20 -15 rrcurveto
          -10 vlineto
          106 573 rmoveto
          71 4 -10 10 5 vhcurveto
          3 6 17 1 43 hhcurveto
          131 100 -7 -47 48 hvcurveto
          56 -56 17 -97 -61 vvcurveto
          -168 -65 -169 -270 -27 -39 0 13 -13 vhcurveto
          -15 15 -2 62 -1 40 rrcurveto
          endchar
        </CharString>
        <CharString name="Delta">
          387 46 45 rmoveto
          2 -42 rlineto
          5 73 74 2 74 hhcurveto
          125 124 -6 -8 125 hvcurveto
          61 32 1 16 -108 209 -86 219 -74 224 rlinecurve
          -58 -25 rlineto
          199 -621 rmoveto
          -117 -118 3 -118 hhcurveto
          -35 -35 0 -1 -35 hvcurveto
          -3 12 80 169 80 157 95 164 rlinecurve
          11 hlineto
          -1 160 -400 41 -94 vhcurveto
          endchar
        </CharString>
        <CharString name="E">
          154 417 384 rmoveto
          -6 7 rlineto
          -4 -53 -74 -3 -53 hhcurveto
          -37 -29 -3 17 hvcurveto
          166 vlineto
          35 4 37 20 4 vhcurveto
          40 hlineto
          7 133 -6 -4 69 hvcurveto
          4 7 2 50 rlineto
          1 -13 -15 0 -18 hhcurveto
          -1 -71 -101 -5 -70 hhcurveto
          -148 -1 -7 -7 1 -20 47 -7 23 -12 6 -13 rlinecurve
          9 -20 0 -30 -14 vvcurveto
          -492 vlineto
          -27 6 -28 20 -11 vhcurveto
          388 hlineto
          13 53 -5 5 rlineto
          -14 -164 -23 0 -47 hhcurveto
          -61 -21 6 26 -14 hvcurveto
          -14 25 -1 49 38 vvcurveto
          139 vlineto
          18 71 -3 58 39 40 -3 -3 39 vhcurveto
          endchar
        </CharString>
        <CharString name="Eacute">
          154 385 885 rmoveto
          -47 36 -13 -2 -120 -157 18 -31 rlineto
          194 -347 rmoveto
          -6 7 rlineto
          -4 -53 -74 -3 -53 hhcurveto
          -37 -29 -3 17 hvcurveto
          166 vlineto
          35 4 37 20 4 vhcurveto
          40 hlineto
          7 133 -6 -4 69 hvcurveto
          4 7 2 50 rlineto
          1 -13 -15 0 -18 hhcurveto
          -1 -71 -101 -5 -70 hhcurveto
          -148 -1 -7 -7 1 -20 47 -7 23 -12 6 -13 rlinecurve
          9 -20 0 -30 -14 vvcurveto
          -492 vlineto
          -27 6 -28 20 -11 vhcurveto
          388 hlineto
          13 53 -5 5 rlineto
          -14 -164 -23 0 -47 hhcurveto
          -61 -21 6 26 -14 hvcurveto
          -14 25 -1 49 38 vvcurveto
          139 vlineto
          18 71 -3 58 39 40 -3 -3 39 vhcurveto
          endchar
        </CharString>
        <CharString name="Ecircumflex">
          154 107 732 rmoveto
          23 -12 143 131 121 -124 39 26 -157 160 rlineto
          141 -529 rmoveto
          -6 7 rlineto
          -4 -53 -74 -3 -53 hhcurveto
          -37 -29 -3 17 hvcurveto
          166 vlineto
          35 4 37 20 4 vhcurveto
          40 hlineto
          7 133 -6 -4 69 hvcurveto
          4 7 2 50 rlineto
          1 -13 -15 0 -18 hhcurveto
          -1 -71 -101 -5 -70 hhcurveto
          -148 -1 -7 -7 1 -20 47 -7 23 -12 6 -13 rlinecurve
          9 -20 0 -30 -14 vvcurveto
          -492 vlineto
          -27 6 -28 20 -11 vhcurveto
          388 hlineto
          13 53 -5 5 rlineto
          -14 -164 -23 0 -47 hhcurveto
          -61 -21 6 26 -14 hvcurveto
          -14 25 -1 49 38 vvcurveto
          139 vlineto
          18 71 -3 58 39 40 -3 -3 39 vhcurveto
          endchar
        </CharString>
        <CharString name="Edieresis">
          154 430 816 rmoveto
          30 -20 28 -34 -29 -35 -22 -34 -32 26 -26 32 32 26 23 33 2 vhcurveto
          -202 hmoveto
          30 -20 28 -34 -29 -35 -22 -34 -32 26 -26 32 32 26 23 33 2 vhcurveto
          189 -432 rmoveto
          -6 7 rlineto
          -4 -53 -74 -3 -53 hhcurveto
          -37 -29 -3 17 hvcurveto
          166 vlineto
          35 4 37 20 4 vhcurveto
          40 hlineto
          7 133 -6 -4 69 hvcurveto
          4 7 2 50 rlineto
          1 -13 -15 0 -18 hhcurveto
          -1 -71 -101 -5 -70 hhcurveto
          -148 -1 -7 -7 1 -20 47 -7 23 -12 6 -13 rlinecurve
          9 -20 0 -30 -14 vvcurveto
          -492 vlineto
          -27 6 -28 20 -11 vhcurveto
          388 hlineto
          13 53 -5 5 rlineto
          -14 -164 -23 0 -47 hhcurveto
          -61 -21 6 26 -14 hvcurveto
          -14 25 -1 49 38 vvcurveto
          139 vlineto
          18 71 -3 58 39 40 -3 -3 39 vhcurveto
          endchar
        </CharString>
        <CharString name="Egrave">
          154 140 886 rmoveto
          162 -154 18 31 -120 157 -13 2 rlineto
          230 -538 rmoveto
          -6 7 rlineto
          -4 -53 -74 -3 -53 hhcurveto
          -37 -29 -3 17 hvcurveto
          166 vlineto
          35 4 37 20 4 vhcurveto
          40 hlineto
          7 133 -6 -4 69 hvcurveto
          4 7 2 50 rlineto
          1 -13 -15 0 -18 hhcurveto
          -1 -71 -101 -5 -70 hhcurveto
          -148 -1 -7 -7 1 -20 47 -7 23 -12 6 -13 rlinecurve
          9 -20 0 -30 -14 vvcurveto
          -492 vlineto
          -27 6 -28 20 -11 vhcurveto
          388 hlineto
          13 53 -5 5 rlineto
          -14 -164 -23 0 -47 hhcurveto
          -61 -21 6 26 -14 hvcurveto
          -14 25 -1 49 38 vvcurveto
          139 vlineto
          18 71 -3 58 39 40 -3 -3 39 vhcurveto
          endchar
        </CharString>
        <CharString name="Eth">
          382 304 2 rmoveto
          104 131 16 73 67 hvcurveto
          77 83 22 84 127 vvcurveto
          177 -57 124 -310 vhcurveto
          -313 hlineto
          -7 -8 rlineto
          -19 vlineto
          26 -8 47 -6 2 -25 rrcurveto
          1 -15 1 -16 -16 vvcurveto
          -193 -69 vlineto
          -7 -40 rlineto
          76 -261 hlineto
          -1 -38 -1 -14 -20 -15 rrcurveto
          -10 vlineto
          247 378 rmoveto
          -141 195 hlineto
          71 4 -10 10 5 vhcurveto
          3 6 17 1 43 hhcurveto
          131 100 -7 -47 48 hvcurveto
          56 -56 17 -97 -61 vvcurveto
          -168 -65 -169 -270 -27 -39 0 13 -13 vhcurveto
          -15 15 -2 62 -1 40 rrcurveto
          170 135 vlineto
          endchar
        </CharString>
        <CharString name="F">
          77 87 360 rmoveto
          -121 -3 -120 -4 -121 vhcurveto
          92 15 rlineto
          -4 101 -1 115 101 vvcurveto
          7 7 4 5 71 88 -1 -4 70 vhcurveto
          5 5 1 49 rlineto
          -3 -72 -90 -9 -73 hhcurveto
          -9 -4 8 5 211 3 10 4 14 hvcurveto
          17 5 14 6 13 hhcurveto
          72 72 -15 -5 72 hvcurveto
          8 8 rlineto
          53 vlineto
          -2 -73 -206 0 -142 hhcurveto
          -7 -7 rlineto
          -21 vlineto
          55 -13 rlineto
          40 -10 -7 -73 -43 vvcurveto
          endchar
        </CharString>
        <CharString name="G">
          297 325 270 rmoveto
          6 -5 54 -2 64 -3 44 -4 rlinecurve
          38 -4 -10 -98 -20 vvcurveto
          -30 6 -54 -26 -5 vhcurveto
          -7 -31 -31 -3 -32 hhcurveto
          -196 -82 159 146 152 55 158 187 81 59 -32 -88 44 hvcurveto
          12 -1 58 57 rlineto
          81 -53 -69 32 -87 hhcurveto
          -105 -105 -31 -75 -75 hvcurveto
          -70 -70 -22 -101 -98 vvcurveto
          -95 25 -98 68 -68 vhcurveto
          -54 54 75 -26 76 hhcurveto
          73 108 27 23 88 hvcurveto
          1 -3 182 -2 91 vhcurveto
          -276 -11 rlineto
          endchar
        </CharString>
        <CharString name="Gamma">
          128 464 697 rmoveto
          -3 -60 -61 -1 -61 hhcurveto
          -237 hlineto
          -3 -20 26 -22 rlineto
          21 -18 -5 -50 -30 vvcurveto
          -92 -4 -274 -3 -183 vhcurveto
          10 -11 77 23 rlineto
          -3 178 0 178 177 vvcurveto
          37 -2 61 38 3 vhcurveto
          1 20 21 1 20 hhcurveto
          59 95 1 -49 15 hvcurveto
          25 -82 rlineto
          25 hlineto
          endchar
        </CharString>
        <CharString name="H">
          342 699 32 rmoveto
          -7 -70 11 36 hvcurveto
          -3 81 -1 81 81 vvcurveto
          121 2 120 9 121 vhcurveto
          -5 6 -88 -17 rlineto
          -86 3 -104 -86 vvcurveto
          -6 -1 -6 -11 vhcurveto
          -346 hlineto
          -10 -2 7 5 92 1 123 12 68 hvcurveto
          -5 5 rlineto
          -162 hlineto
          -7 -7 1 -19 57 -20 14 4 2 -27 rlinecurve
          6 -83 0 -83 -83 vvcurveto
          -122 0 -129 -10 -113 vhcurveto
          6 -5 92 28 rlineto
          -6 50 0 44 58 54 1 57 45 vvcurveto
          7 6 5 7 vhcurveto
          343 hlineto
          9 3 -7 -5 -97 -3 -119 -2 -97 hvcurveto
          11 -21 rlineto
          149 hlineto
          6 14 rlineto
          endchar
        </CharString>
        <CharString name="I">
          -84 275 23 rmoveto
          -1 -43 11 6 -21 hvcurveto
          -42 11 11 75 -1 43 rrcurveto
          -1 61 -1 62 67 vvcurveto
          78 -6 119 9 59 vhcurveto
          1 12 8 11 13 3 67 15 rcurveline
          21 vlineto
          -6 6 rlineto
          -250 hlineto
          -7 -6 rlineto
          -22 vlineto
          80 -18 7 5 2 -30 rrcurveto
          3 -38 0 -38 -39 vvcurveto
          -363 vlineto
          -4 -83 13 -7 -98 -19 rrcurveto
          -26 265 vlineto
          endchar
        </CharString>
        <CharString name="Iacute">
          -84 252 885 rmoveto
          -47 36 -13 -2 -120 -157 18 -31 rlineto
          185 -708 rmoveto
          -1 -43 11 6 -21 hvcurveto
          -42 11 11 75 -1 43 rrcurveto
          -1 61 -1 62 67 vvcurveto
          78 -6 119 9 59 vhcurveto
          1 12 8 11 13 3 67 15 rcurveline
          21 vlineto
          -6 6 rlineto
          -250 hlineto
          -7 -6 rlineto
          -22 vlineto
          80 -18 7 5 2 -30 rrcurveto
          3 -38 0 -38 -39 vvcurveto
          -363 vlineto
          -4 -83 13 -7 -98 -19 rrcurveto
          -26 265 vlineto
          endchar
        </CharString>
        <CharString name="Icircumflex">
          -84 -26 732 rmoveto
          23 -12 143 131 121 -124 39 26 -157 160 rlineto
          132 -890 rmoveto
          -1 -43 11 6 -21 hvcurveto
          -42 11 11 75 -1 43 rrcurveto
          -1 61 -1 62 67 vvcurveto
          78 -6 119 9 59 vhcurveto
          1 12 8 11 13 3 67 15 rcurveline
          21 vlineto
          -6 6 rlineto
          -250 hlineto
          -7 -6 rlineto
          -22 vlineto
          80 -18 7 5 2 -30 rrcurveto
          3 -38 0 -38 -39 vvcurveto
          -363 vlineto
          -4 -83 13 -7 -98 -19 rrcurveto
          -26 265 vlineto
          endchar
        </CharString>
        <CharString name="Idieresis">
          -84 297 816 rmoveto
          30 -20 28 -34 -29 -35 -22 -34 -32 26 -26 32 32 26 23 33 2 vhcurveto
          -202 hmoveto
          30 -20 28 -34 -29 -35 -22 -34 -32 26 -26 32 32 26 23 33 2 vhcurveto
          180 -793 rmoveto
          -1 -43 11 6 -21 hvcurveto
          -42 11 11 75 -1 43 rrcurveto
          -1 61 -1 62 67 vvcurveto
          78 -6 119 9 59 vhcurveto
          1 12 8 11 13 3 67 15 rcurveline
          21 vlineto
          -6 6 rlineto
          -250 hlineto
          -7 -6 rlineto
          -22 vlineto
          80 -18 7 5 2 -30 rrcurveto
          3 -38 0 -38 -39 vvcurveto
          -363 vlineto
          -4 -83 13 -7 -98 -19 rrcurveto
          -26 265 vlineto
          endchar
        </CharString>
        <CharString name="Igrave">
          -84 7 886 rmoveto
          162 -154 18 31 -120 157 -13 2 rlineto
          221 -899 rmoveto
          -1 -43 11 6 -21 hvcurveto
          -42 11 11 75 -1 43 rrcurveto
          -1 61 -1 62 67 vvcurveto
          78 -6 119 9 59 vhcurveto
          1 12 8 11 13 3 67 15 rcurveline
          21 vlineto
          -6 6 rlineto
          -250 hlineto
          -7 -6 rlineto
          -22 vlineto
          80 -18 7 5 2 -30 rrcurveto
          3 -38 0 -38 -39 vvcurveto
          -363 vlineto
          -4 -83 13 -7 -98 -19 rrcurveto
          -26 265 vlineto
          endchar
        </CharString>
        <CharString name="J">
          -99 175 608 rmoveto
          18 9 17 12 3 vhcurveto
          68 14 2 24 -7 6 rlineto
          -250 hlineto
          -7 -6 rlineto
          -21 vlineto
          72 -18 rlineto
          12 -3 4 -23 -11 vvcurveto
          -512 vlineto
          -202 -47 -61 -78 -49 vhcurveto
          14 -18 rlineto
          134 69 62 101 155 vvcurveto
          endchar
        </CharString>
        <CharString name="K">
          229 178 319 rmoveto
          108 -109 112 -105 105 -112 85 31 rcurveline
          1 11 -61 54 -165 164 -107 107 rlinecurve
          -4 4 -1 2 3 vvcurveto
          3 5 5 3 3 vhcurveto
          291 294 1 9 rlineto
          -90 hlineto
          -287 -326 -8 1 rlineto
          202 4 83 11 33 vhcurveto
          -7 7 rlineto
          -158 hlineto
          -8 -7 -2 -17 rlineto
          6 60 -16 -17 9 hvcurveto
          4 -10 1 -11 -10 vvcurveto
          -594 vlineto
          8 -5 81 29 rlineto
          -6 97 0 98 98 vvcurveto
          endchar
        </CharString>
        <CharString name="L">
          130 482 58 rmoveto
          -1 -6 -182 -14 -104 hhcurveto
          -5 -7 7 6 -1 hvcurveto
          -4 108 -3 116 113 vvcurveto
          80 2 78 4 73 vhcurveto
          1 11 5 12 12 2 rrcurveto
          5 21 43 9 1 hhcurveto
          21 vlineto
          -6 6 rlineto
          -237 hlineto
          -7 -7 -1 -17 rlineto
          1 37 -8 -4 20 hvcurveto
          15 -3 6 -16 -14 vvcurveto
          -478 vlineto
          -52 -6 -53 -16 -22 vhcurveto
          -14 vlineto
          138 201 0 -7 74 hvcurveto
          14 53 rlineto
          endchar
        </CharString>
        <CharString name="Lambda">
          384 368 673 rmoveto
          -115 -227 -123 -222 -127 -220 13 -10 rcurveline
          27 4 26 9 25 10 28 66 146 294 95 188 rrcurveto
          12 hlineto
          63 -188 59 -190 68 -186 23 -8 rcurveline
          53 10 52 14 52 16 1 22 rcurveline
          -67 -3 -13 -1 -14 8 -5 12 rlinecurve
          -96 200 -63 212 -54 215 rrcurveto
          endchar
        </CharString>
        <CharString name="M">
          598 475 147 rmoveto
          -4 -2 -6 -5 -4 hhcurveto
          -4 -5 10 4 -2 hvcurveto
          -83 177 -94 200 -55 161 rrcurveto
          -176 hlineto
          -7 -7 -2 -22 68 -19 rlineto
          18 -5 10 -16 -18 vvcurveto
          -4 0 -4 -1 -4 vhcurveto
          -27 -198 -35 -197 -38 -196 7 -3 rcurveline
          75 26 rlineto
          90 7 34 435 21 hhcurveto
          4 4 -5 -5 3 hvcurveto
          63 -128 94 -229 75 -180 rrcurveto
          30 hlineto
          286 554 rlineto
          5 3 5 3 3 hhcurveto
          5 3 -7 -8 hvcurveto
          2 -66 8 -246 -25 vvcurveto
          -182 vlineto
          -26 33 -9 30 40 52 18 16 44 vhcurveto
          24 vlineto
          -2 -18 -25 -4 -13 hhcurveto
          -33 -22 27 29 -3 hvcurveto
          -17 164 -1 153 164 vvcurveto
          44 -2 37 27 14 vhcurveto
          12 -103 vlineto
          endchar
        </CharString>
        <CharString name="N">
          368 577 678 rmoveto
          21 -304 3 -99 -102 vvcurveto
          -2 -1 -6 -5 -4 -4 5 3 -3 vhcurveto
          -117 126 -162 215 -133 176 rrcurveto
          -162 hlineto
          -8 -7 4 -27 rlineto
          95 -23 -10 -4 -21 -43 1 -43 -43 vvcurveto
          -158 -5 -159 -8 -158 vhcurveto
          9 -9 70 30 rlineto
          -11 174 -13 219 129 vvcurveto
          5 0 12 7 4 4 -5 -4 3 vhcurveto
          49 -56 83 -95 102 -126 159 -198 rcurveline
          30 -38 14 -16 23 -26 rrcurveto
          36 hlineto
          227 2 232 13 227 vhcurveto
          -6 8 rlineto
          endchar
        </CharString>
        <CharString name="Ntilde">
          368 393 841 rmoveto
          -26 12 -31 13 -26 -4 -35 -5 -19 -58 -8 -35 14 -5 rcurveline
          12 33 10 12 24 3 17 2 18 -4 15 -7 63 -30 rcurveline
          20 -9 22 -6 22 3 32 4 20 56 3 29 -13 5 rcurveline
          -9 -23 -8 -13 -24 -3 -16 -2 -16 5 -14 6 rrcurveto
          137 -142 rmoveto
          21 -304 3 -99 -102 vvcurveto
          -2 -1 -6 -5 -4 -4 5 3 -3 vhcurveto
          -117 126 -162 215 -133 176 rrcurveto
          -162 hlineto
          -8 -7 4 -27 rlineto
          95 -23 -10 -4 -21 -43 1 -43 -43 vvcurveto
          -158 -5 -159 -8 -158 vhcurveto
          9 -9 70 30 rlineto
          -11 174 -13 219 129 vvcurveto
          5 0 12 7 4 4 -5 -4 3 vhcurveto
          49 -56 83 -95 102 -126 159 -198 rcurveline
          30 -38 14 -16 23 -26 rrcurveto
          36 hlineto
          227 2 232 13 227 vhcurveto
          -6 8 rlineto
          endchar
        </CharString>
        <CharString name="O">
          373 320 -18 rmoveto
          157 129 72 98 48 hvcurveto
          40 81 1 65 66 vvcurveto
          93 -22 104 -62 63 vhcurveto
          54 -54 -79 22 -75 hhcurveto
          -93 -105 -20 -68 -63 hvcurveto
          -74 -80 -27 -85 -129 vvcurveto
          -165 74 -171 205 vhcurveto
          51 678 rmoveto
          169 61 -182 -142 -150 -62 -163 -166 -39 -61 10 67 -60 hvcurveto
          -62 68 -17 86 94 vvcurveto
          152 64 160 173 vhcurveto
          endchar
        </CharString>
        <CharString name="OE">
          633 896 384 rmoveto
          -6 7 rlineto
          -4 -53 -74 -3 -53 hhcurveto
          -37 -29 -3 17 hvcurveto
          166 vlineto
          35 4 37 20 4 vhcurveto
          40 hlineto
          7 133 -6 -4 69 hvcurveto
          4 7 2 50 rlineto
          1 -13 -15 0 -18 hhcurveto
          -1 -71 -101 -5 -70 hhcurveto
          -117 -1 rlineto
          13 -37 -39 6 -39 hhcurveto
          -93 -105 -20 -68 -63 hvcurveto
          -74 -80 -27 -85 -129 vvcurveto
          -165 74 -171 205 47 45 6 12 40 vhcurveto
          528 hlineto
          13 53 -5 5 rlineto
          -14 -164 -23 0 -47 hhcurveto
          -61 -21 6 26 -14 hvcurveto
          -14 25 -1 49 38 vvcurveto
          139 vlineto
          18 71 -3 58 39 40 -3 -3 39 vhcurveto
          -756 12 rmoveto
          152 64 160 173 99 62 -62 -80 34 vhcurveto
          -363 vlineto
          -76 -34 -62 -56 -97 hhcurveto
          -39 -61 10 67 -60 hvcurveto
          -62 68 -17 86 94 vvcurveto
          endchar
        </CharString>
        <CharString name="Oacute">
          390 557 918 rmoveto
          -47 36 -13 -2 -120 -157 18 -31 rlineto
          -75 -782 rmoveto
          157 129 72 98 48 hvcurveto
          40 81 1 65 66 vvcurveto
          93 -22 104 -62 63 vhcurveto
          54 -54 -79 22 -75 hhcurveto
          -93 -105 -20 -68 -63 hvcurveto
          -74 -80 -27 -85 -129 vvcurveto
          -165 74 -171 205 vhcurveto
          51 678 rmoveto
          169 61 -182 -142 -150 -62 -163 -166 -39 -61 10 67 -60 hvcurveto
          -62 68 -17 86 94 vvcurveto
          152 64 160 173 vhcurveto
          endchar
        </CharString>
        <CharString name="Ocircumflex">
          373 218 742 rmoveto
          23 -12 143 131 121 -124 39 26 -157 160 rlineto
          -67 -941 rmoveto
          157 129 72 98 48 hvcurveto
          40 81 1 65 66 vvcurveto
          93 -22 104 -62 63 vhcurveto
          54 -54 -79 22 -75 hhcurveto
          -93 -105 -20 -68 -63 hvcurveto
          -74 -80 -27 -85 -129 vvcurveto
          -165 74 -171 205 vhcurveto
          51 678 rmoveto
          169 61 -182 -142 -150 -62 -163 -166 -39 -61 10 67 -60 hvcurveto
          -62 68 -17 86 94 vvcurveto
          152 64 160 173 vhcurveto
          endchar
        </CharString>
        <CharString name="Odieresis">
          373 541 826 rmoveto
          30 -20 28 -34 -29 -35 -22 -34 -32 26 -26 32 32 26 23 33 2 vhcurveto
          -202 hmoveto
          30 -20 28 -34 -29 -35 -22 -34 -32 26 -26 32 32 26 23 33 2 vhcurveto
          -19 -844 rmoveto
          157 129 72 98 48 hvcurveto
          40 81 1 65 66 vvcurveto
          93 -22 104 -62 63 vhcurveto
          54 -54 -79 22 -75 hhcurveto
          -93 -105 -20 -68 -63 hvcurveto
          -74 -80 -27 -85 -129 vvcurveto
          -165 74 -171 205 vhcurveto
          51 678 rmoveto
          169 61 -182 -142 -150 -62 -163 -166 -39 -61 10 67 -60 hvcurveto
          -62 68 -17 86 94 vvcurveto
          152 64 160 173 vhcurveto
          endchar
        </CharString>
        <CharString name="Ograve">
          373 251 896 rmoveto
          162 -154 18 31 -120 157 -13 2 rlineto
          22 -950 rmoveto
          157 129 72 98 48 hvcurveto
          40 81 1 65 66 vvcurveto
          93 -22 104 -62 63 vhcurveto
          54 -54 -79 22 -75 hhcurveto
          -93 -105 -20 -68 -63 hvcurveto
          -74 -80 -27 -85 -129 vvcurveto
          -165 74 -171 205 vhcurveto
          51 678 rmoveto
          169 61 -182 -142 -150 -62 -163 -166 -39 -61 10 67 -60 hvcurveto
          -62 68 -17 86 94 vvcurveto
          152 64 160 173 vhcurveto
          endchar
        </CharString>
        <CharString name="Omega">
          541 853 60 rmoveto
          -70 -96 -5 -4 -85 hvcurveto
          12 vlineto
          135 55 50 138 129 vvcurveto
          153 -69 151 -237 -99 -99 -23 -71 -71 vhcurveto
          -68 -68 -28 -93 -96 vvcurveto
          -113 30 -97 110 -59 vhcurveto
          -6 -15 -53 5 -76 3 -61 3 rlinecurve
          -17 -61 rlineto
          3 40 40 1 41 hhcurveto
          69 69 -4 -6 70 hvcurveto
          21 55 rlineto
          -144 28 -45 130 118 vvcurveto
          160 68 165 190 167 68 -149 -137 -138 -43 -137 -154 -36 vhcurveto
          -9 -58 rlineto
          4 56 56 2 56 hhcurveto
          59 60 -2 -5 59 hvcurveto
          25 53 rlineto
          endchar
        </CharString>
        <CharString name="Oslash">
          373 320 -18 rmoveto
          157 129 72 98 48 hvcurveto
          40 81 1 65 66 vvcurveto
          93 -22 104 -62 63 vhcurveto
          -21 21 -25 16 -26 12 43 100 rcurveline
          -5 11 -22 5 -11 -2 -44 -100 rlineto
          9 -31 -33 4 -33 hhcurveto
          -93 -105 -20 -68 -63 hvcurveto
          -74 -80 -27 -85 -129 vvcurveto
          -129 45 -133 118 -51 vhcurveto
          -46 -106 3 -14 32 -8 50 114 rlineto
          -6 23 26 -3 28 hhcurveto
          51 678 rmoveto
          41 35 -11 -18 29 hvcurveto
          -240 -554 -8 7 -7 8 -8 8 rlinecurve
          -62 68 -17 86 94 vvcurveto
          152 64 160 173 vhcurveto
          230 -324 rmoveto
          -150 -62 -163 -166 -27 -37 5 24 -40 vhcurveto
          240 553 rlineto
          66 -65 26 -111 -93 vvcurveto
          endchar
        </CharString>
        <CharString name="Otilde">
          373 379 851 rmoveto
          -26 12 -31 13 -26 -4 -35 -5 -19 -58 -8 -35 14 -5 rcurveline
          12 33 10 12 24 3 17 2 18 -4 15 -7 63 -30 rcurveline
          20 -9 22 -6 22 3 32 4 20 56 3 29 -13 5 rcurveline
          -9 -23 -8 -13 -24 -3 -16 -2 -16 5 -14 6 rrcurveto
          -106 -848 rmoveto
          157 129 72 98 48 hvcurveto
          40 81 1 65 66 vvcurveto
          93 -22 104 -62 63 vhcurveto
          54 -54 -79 22 -75 hhcurveto
          -93 -105 -20 -68 -63 hvcurveto
          -74 -80 -27 -85 -129 vvcurveto
          -165 74 -171 205 vhcurveto
          51 678 rmoveto
          169 61 -182 -142 -150 -62 -163 -166 -39 -61 10 67 -60 hvcurveto
          -62 68 -17 86 94 vvcurveto
          152 64 160 173 vhcurveto
          endchar
        </CharString>
        <CharString name="P">
          163 172 22 rmoveto
          -1 101 -6 126 25 vvcurveto
          19 65 -2 29 2 vhcurveto
          65 5 73 15 44 45 rrcurveto
          42 42 22 55 59 vvcurveto
          106 -67 59 -164 vhcurveto
          -257 hlineto
          -7 -7 rlineto
          -18 vlineto
          38 -5 33 -9 3 -40 rrcurveto
          3 -59 2 -59 -59 vvcurveto
          -141 -5 -141 -2 -140 vhcurveto
          7 -7 rlineto
          147 646 rmoveto
          92 81 -30 -104 -111 -94 -66 -139 -4 -7 3 9 87 2 113 4 88 hvcurveto
          5 2 6 7 vhcurveto
          endchar
        </CharString>
        <CharString name="Phi">
          368 234 657 rmoveto
          63 -9 rlineto
          13 -2 10 -12 -14 vvcurveto
          -12 vlineto
          -8 -7 -82 -2 -81 -29 -57 -58 rlinecurve
          -47 -48 -17 -67 -65 vvcurveto
          -173 141 -71 144 -2 vhcurveto
          7 -6 -2 -16 -6 -22 -16 -4 rlinecurve
          -62 -15 rlineto
          -21 268 24 vlineto
          -59 12 -21 4 -13 18 -3 20 rlinecurve
          8 6 72 3 92 27 52 52 rlinecurve
          53 53 20 77 75 vvcurveto
          130 -77 98 -213 vhcurveto
          -7 7 rlineto
          13 vlineto
          14 9 14 15 2 vhcurveto
          63 10 rlineto
          25 vlineto
          -259 -2 rlineto
          179 -111 rmoveto
          109 -2 89 -48 -171 vvcurveto
          -119 -60 -116 -139 -3 vhcurveto
          -6 8 rlineto
          443 vlineto
          -93 -451 rmoveto
          -126 3 -67 121 109 vvcurveto
          116 71 105 122 5 vhcurveto
          7 -8 rlineto
          -444 vlineto
          endchar
        </CharString>
        <CharString name="Pi">
          304 668 686 rmoveto
          -2 -81 -119 -3 -44 hhcurveto
          -198 hlineto
          -75 -75 4 5 -75 hvcurveto
          -30 vlineto
          57 -17 9 -3 9 -8 rrcurveto
          12 -12 1 -56 -30 vvcurveto
          -73 vlineto
          -154 -1 -152 -7 -153 vhcurveto
          7 -6 85 19 rlineto
          -2 103 -3 122 82 vvcurveto
          102 0 101 7 101 vhcurveto
          8 8 6 6 vhcurveto
          289 hlineto
          2 11 -3 -10 hvcurveto
          1 -108 1 -121 -108 vvcurveto
          -98 0 -97 -3 -98 vhcurveto
          14 -11 80 22 rlineto
          -10 135 -2 134 135 vvcurveto
          101 2 115 5 7 vhcurveto
          4 3 4 2 5 1 76 17 rcurveline
          endchar
        </CharString>
        <CharString name="Psi">
          372 443 251 rmoveto
          117 2 74 32 31 203 16 90 1 55 44 28 -3 18 rcurveline
          -35 -4 -35 -8 -34 -12 -12 -43 -1 -45 -6 -44 -18 -127 -29 -114 -112 -6 -7 6 rcurveline
          -2 58 -1 59 59 vvcurveto
          75 6 74 7 75 vhcurveto
          -4 8 -86 -23 rlineto
          6 -82 0 -120 -100 vvcurveto
          -83 vlineto
          -6 -7 rlineto
          -150 8 -18 180 132 vvcurveto
          58 -7 41 -36 -12 -20 0 -2 -3 vhcurveto
          -108 -36 7 -22 63 10 rlineto
          2 hlineto
          67 -47 -105 -167 49 hvcurveto
          -90 23 71 -34 119 hhcurveto
          6 -6 rlineto
          -155 vlineto
          -9 -7 -36 -22 -4 vhcurveto
          -68 -12 rlineto
          -27 266 27 vlineto
          -57 12 rlineto
          -22 5 -11 21 22 vvcurveto
          -2 158 rlineto
          endchar
        </CharString>
        <CharString name="Q">
          376 722 -174 rmoveto
          -6 -23 -48 -9 -16 hhcurveto
          -89 -42 46 21 -15 hvcurveto
          -20 26 -26 49 -16 30 4 10 rcurveline
          63 15 70 30 45 49 42 46 11 33 15 44 rrcurveto
          13 41 6 18 97 vvcurveto
          83 -20 110 -63 63 vhcurveto
          58 -58 -78 18 -77 hhcurveto
          -95 -95 -19 -70 -68 hvcurveto
          -74 -76 -27 -95 -138 vvcurveto
          -90 29 -90 56 -63 vhcurveto
          -55 49 77 -18 69 hhcurveto
          -101 62 75 -118 116 hhcurveto
          51 65 25 16 39 hvcurveto
          -364 216 rmoveto
          -53 -55 30 40 -38 hvcurveto
          -62 64 -23 89 89 vvcurveto
          147 50 179 192 151 74 -165 -157 -140 -50 -176 -186 vhcurveto
          endchar
        </CharString>
        <CharString name="R">
          184 275 331 rmoveto
          119 13 96 56 139 vvcurveto
          93 -81 47 -122 vhcurveto
          -272 hlineto
          -6 -6 -1 -17 rlineto
          9 68 -13 -32 hvcurveto
          -57 3 -100 -15 vvcurveto
          -145 -1 -146 -8 -145 vhcurveto
          11 -9 83 29 rlineto
          -5 96 0 97 96 vvcurveto
          6 9 -4 -5 5 hvcurveto
          29 -29 127 -163 93 -119 99 26 rcurveline
          9 vlineto
          -263 296 rlineto
          -106 47 rmoveto
          5 4 175 2 64 vhcurveto
          19 1 3 7 8 hhcurveto
          40 hlineto
          78 89 -21 -96 -119 -106 -49 -110 -7 -2 9 6 hvcurveto
          endchar
        </CharString>
        <CharString name="S">
          120 451 606 rmoveto
          83 -44 -60 13 -73 hhcurveto
          -109 -103 -65 -125 -98 62 -48 121 -52 hvcurveto
          60 -26 61 -54 -56 vvcurveto
          -84 -65 -63 -78 -71 -41 51 70 -21 vhcurveto
          -17 1 -57 -66 rlineto
          -73 28 68 -29 69 hhcurveto
          127 146 92 132 80 -54 54 -105 46 hvcurveto
          -78 34 -75 46 78 vvcurveto
          65 47 53 64 68 37 -46 -66 17 vhcurveto
          13 -3 rlineto
          endchar
        </CharString>
        <CharString name="Sigma">
          207 299 362 rmoveto
          4 7 7 9 6 vvcurveto
          6 -2 5 -3 5 vhcurveto
          -137 222 11 13 rlineto
          331 hlineto
          22 49 -4 11 rlineto
          -5 -102 -102 -3 -102 hhcurveto
          -36 -36 0 1 -36 hvcurveto
          -68 -47 152 -225 14 -20 14 -24 8 -22 rlinecurve
          -10 -25 -25 -34 -19 -26 -163 -216 rcurveline
          -4 -19 -5 -27 -1 vvcurveto
          90 90 7 90 hhcurveto
          89 88 -1 -3 89 hvcurveto
          15 89 -3 10 rlineto
          -8 -53 -54 -2 -54 hhcurveto
          -89 -88 0 2 -89 hvcurveto
          -5 10 rlineto
          endchar
        </CharString>
        <CharString name="T">
          187 543 696 rmoveto
          -4 -88 -99 -6 -75 hhcurveto
          -177 0 8 3 -95 hvcurveto
          -7 -7 rlineto
          -48 vlineto
          8 -7 rlineto
          4 111 79 3 24 hhcurveto
          5 4 -2 -4 hvcurveto
          1 -30 1 -144 -82 vvcurveto
          -127 -5 -127 -8 -127 vhcurveto
          9 -9 100 27 rlineto
          -7 121 -6 179 121 vvcurveto
          121 -1 85 14 21 21 -2 -8 168 vhcurveto
          8 7 rlineto
          48 vlineto
          endchar
        </CharString>
        <CharString name="Theta">
          414 348 -12 rmoveto
          196 194 83 310 87 -20 93 -63 63 hvcurveto
          57 -57 -84 20 -79 hhcurveto
          -152 -139 -58 -100 -58 hvcurveto
          -43 -74 -2 -42 -96 vvcurveto
          -99 26 -102 71 -71 vhcurveto
          -55 54 80 -16 76 hhcurveto
          43 43 rmoveto
          -183 -74 166 148 159 53 159 194 68 69 -18 -49 49 hvcurveto
          57 -57 20 -82 -80 vvcurveto
          -91 -6 -119 -59 -59 vhcurveto
          -50 -50 -53 -27 -85 hhcurveto
          -171 210 rmoveto
          27 65 hlineto
          14 15 2 10 vhcurveto
          2 46 51 2 40 35 34 -4 35 hhcurveto
          22 -3 -42 -22 hvcurveto
          -5 -1 -4 -5 vvcurveto
          30 -1 rlineto
          214 -28 vlineto
          2 -51 rlineto
          -31 1 -83 9 -40 hhcurveto
          -53 -114 -5 21 hvcurveto
          19 -4 19 19 vvcurveto
          -25 hlineto
          3 -108 rlineto
          endchar
        </CharString>
        <CharString name="Thorn">
          163 168 679 rmoveto
          -151 hlineto
          -7 -7 rlineto
          -18 vlineto
          38 -5 33 -9 3 -40 rrcurveto
          3 -59 2 -59 -59 vvcurveto
          -141 -5 -141 -2 -140 vhcurveto
          7 -7 83 28 rlineto
          -1 101 -6 22 24 vvcurveto
          19 65 -2 29 2 vhcurveto
          65 5 73 15 44 45 rrcurveto
          42 42 22 55 59 vvcurveto
          106 -67 59 -164 vhcurveto
          -105 hlineto
          1 27 1 53 4 19 rrcurveto
          61 -138 rmoveto
          92 81 -30 -104 -111 -96 -66 -139 -4 -7 3 9 87 2 113 4 88 hvcurveto
          5 2 6 7 vhcurveto
          endchar
        </CharString>
        <CharString name="U">
          348 183 674 rmoveto
          -7 6 rlineto
          -169 hlineto
          -8 -7 2 -20 rlineto
          14 74 -12 -40 hvcurveto
          -59 vlineto
          -78 -2 -79 -77 vvcurveto
          -61 1 -74 7 -46 vhcurveto
          -59 12 33 -77 139 hhcurveto
          83 80 34 45 70 hvcurveto
          8 -6 rlineto
          -30 -6 -39 39 31 71 21 16 51 vhcurveto
          5 7 -4 17 rlineto
          -2 -20 -18 -6 -20 hhcurveto
          -48 0 72 82 162 1 209 15 114 hvcurveto
          -6 7 -88 -35 rlineto
          -2 -182 -2 -183 -183 vvcurveto
          -32 -54 -60 -27 -62 hhcurveto
          -97 -79 49 168 hvcurveto
          8 273 rlineto
          17 5 101 3 14 vhcurveto
          endchar
        </CharString>
        <CharString name="Uacute">
          348 482 885 rmoveto
          -47 36 -13 -2 -120 -157 18 -31 rlineto
          -137 -57 rmoveto
          -7 6 rlineto
          -169 hlineto
          -8 -7 2 -20 rlineto
          14 74 -12 -40 hvcurveto
          -59 vlineto
          -78 -2 -79 -77 vvcurveto
          -61 1 -74 7 -46 vhcurveto
          -59 12 33 -77 139 hhcurveto
          83 80 34 45 70 hvcurveto
          8 -6 rlineto
          -30 -6 -39 39 31 71 21 16 51 vhcurveto
          5 7 -4 17 rlineto
          -2 -20 -18 -6 -20 hhcurveto
          -48 0 72 82 162 1 209 15 114 hvcurveto
          -6 7 -88 -35 rlineto
          -2 -182 -2 -183 -183 vvcurveto
          -32 -54 -60 -27 -62 hhcurveto
          -97 -79 49 168 hvcurveto
          8 273 rlineto
          17 5 101 3 14 vhcurveto
          endchar
        </CharString>
        <CharString name="Ucircumflex">
          348 204 732 rmoveto
          23 -12 143 131 121 -124 39 26 -157 160 rlineto
          -190 -239 rmoveto
          -7 6 rlineto
          -169 hlineto
          -8 -7 2 -20 rlineto
          14 74 -12 -40 hvcurveto
          -59 vlineto
          -78 -2 -79 -77 vvcurveto
          -61 1 -74 7 -46 vhcurveto
          -59 12 33 -77 139 hhcurveto
          83 80 34 45 70 hvcurveto
          8 -6 rlineto
          -30 -6 -39 39 31 71 21 16 51 vhcurveto
          5 7 -4 17 rlineto
          -2 -20 -18 -6 -20 hhcurveto
          -48 0 72 82 162 1 209 15 114 hvcurveto
          -6 7 -88 -35 rlineto
          -2 -182 -2 -183 -183 vvcurveto
          -32 -54 -60 -27 -62 hhcurveto
          -97 -79 49 168 hvcurveto
          8 273 rlineto
          17 5 101 3 14 vhcurveto
          endchar
        </CharString>
        <CharString name="Udieresis">
          348 527 816 rmoveto
          30 -20 28 -34 -29 -35 -22 -34 -32 26 -26 32 32 26 23 33 2 vhcurveto
          -202 hmoveto
          30 -20 28 -34 -29 -35 -22 -34 -32 26 -26 32 32 26 23 33 2 vhcurveto
          -142 -142 rmoveto
          -7 6 rlineto
          -169 hlineto
          -8 -7 2 -20 rlineto
          14 74 -12 -40 hvcurveto
          -59 vlineto
          -78 -2 -79 -77 vvcurveto
          -61 1 -74 7 -46 vhcurveto
          -59 12 33 -77 139 hhcurveto
          83 80 34 45 70 hvcurveto
          8 -6 rlineto
          -30 -6 -39 39 31 71 21 16 51 vhcurveto
          5 7 -4 17 rlineto
          -2 -20 -18 -6 -20 hhcurveto
          -48 0 72 82 162 1 209 15 114 hvcurveto
          -6 7 -88 -35 rlineto
          -2 -182 -2 -183 -183 vvcurveto
          -32 -54 -60 -27 -62 hhcurveto
          -97 -79 49 168 hvcurveto
          8 273 rlineto
          17 5 101 3 14 vhcurveto
          endchar
        </CharString>
        <CharString name="Ugrave">
          348 237 886 rmoveto
          162 -154 18 31 -120 157 -13 2 rlineto
          -101 -248 rmoveto
          -7 6 rlineto
          -169 hlineto
          -8 -7 2 -20 rlineto
          14 74 -12 -40 hvcurveto
          -59 vlineto
          -78 -2 -79 -77 vvcurveto
          -61 1 -74 7 -46 vhcurveto
          -59 12 33 -77 139 hhcurveto
          83 80 34 45 70 hvcurveto
          8 -6 rlineto
          -30 -6 -39 39 31 71 21 16 51 vhcurveto
          5 7 -4 17 rlineto
          -2 -20 -18 -6 -20 hhcurveto
          -48 0 72 82 162 1 209 15 114 hvcurveto
          -6 7 -88 -35 rlineto
          -2 -182 -2 -183 -183 vvcurveto
          -32 -54 -60 -27 -62 hhcurveto
          -97 -79 49 168 hvcurveto
          8 273 rlineto
          17 5 101 3 14 vhcurveto
          endchar
        </CharString>
        <CharString name="Upsilon">
          318 672 546 rmoveto
          75 -21 76 -85 -155 -48 -199 -123 -21 vhcurveto
          -9 hlineto
          130 -13 -32 192 -146 hhcurveto
          -94 -29 -73 -69 -12 hvcurveto
          19 -7 rlineto
          40 12 27 37 47 hhcurveto
          84 48 -102 -77 21 hvcurveto
          20 -73 7 -76 -76 vvcurveto
          -75 0 -75 -4 -75 vhcurveto
          17 -7 67 36 rlineto
          322 2 113 127 127 vhcurveto
          20 20 25 11 28 hhcurveto
          52 18 -38 -37 6 hvcurveto
          endchar
        </CharString>
        <CharString name="V">
          343 614 680 rmoveto
          -25 -43 -25 -44 -19 -45 -119 -274 rcurveline
          -41 -89 -23 -52 -7 -2 -2 1 -4 2 -2 4 -71 182 -55 187 -39 191 -175 -10 rcurveline
          -7 -6 1 -27 56 -8 23 -5 16 -33 rlinecurve
          20 -44 13 -46 15 -46 143 -482 rcurveline
          10 -7 68 26 57 165 73 160 72 133 rlinecurve
          12 21 62 110 65 79 -6 19 rcurveline
          endchar
        </CharString>
        <CharString name="W">
          686 965 675 rmoveto
          -17 -32 -22 -39 -21 -46 -109 -242 rcurveline
          -80 -170 rlineto
          -3 -2 -2 -4 -9 hhcurveto
          -18 -19 131 55 -12 hvcurveto
          -31 146 -31 151 62 vvcurveto
          -7 6 -76 -29 -45 -126 -132 -291 -42 -83 rlinecurve
          -2 -1 -3 -2 -3 hhcurveto
          -2 -4 1 5 -1 hvcurveto
          -39 175 -59 270 -15 81 -156 -3 rcurveline
          -8 -7 2 -24 31 -6 30 -7 11 -28 rlinecurve
          30 -77 20 -81 20 -81 30 -126 25 -127 23 -128 11 -5 rcurveline
          64 29 47 155 81 179 54 121 rlinecurve
          28 63 rlineto
          5 2 4 7 3 hhcurveto
          5 1 -7 -5 1 hvcurveto
          40 -179 37 -179 32 -181 12 -8 rcurveline
          60 27 65 157 116 230 47 77 rlinecurve
          115 188 rlineto
          21 vlineto
          endchar
        </CharString>
        <CharString name="X">
          260 612 687 rmoveto
          -95 -13 -9 -21 -138 -198 -33 -33 rlinecurve
          -9 hlineto
          -147 266 -45 -3 -76 -4 -25 -1 rlinecurve
          -7 -6 rlineto
          -25 vlineto
          41 -11 42 -10 22 -38 rrcurveto
          -82 47 93 -163 5 hhcurveto
          -271 -329 rlineto
          -16 vlineto
          94 11 36 76 111 157 43 52 rlinecurve
          12 hlineto
          143 -239 13 -22 15 -22 18 -18 rlinecurve
          14 -6 110 27 rlineto
          16 vlineto
          -5 4 -8 2 -22 14 -7 7 rlinecurve
          -60 72 -40 48 -115 189 -1 12 rlinecurve
          4 7 33 44 30 35 187 206 rcurveline
          endchar
        </CharString>
        <CharString name="Xi">
          249 49 695 rmoveto
          -5 -57 -1 -58 -7 -57 27 2 rcurveline
          23 64 rlineto
          20 7 24 9 20 hhcurveto
          346 hlineto
          18 23 -12 -21 4 hvcurveto
          16 -61 rlineto
          34 hlineto
          -22 164 rlineto
          -425 -359 rmoveto
          2 47 47 1 47 hhcurveto
          55 54 -1 -1 54 hvcurveto
          15 72 rlineto
          -3 -64 -63 -2 -64 hhcurveto
          -37 -37 0 2 -37 hvcurveto
          405 -252 rmoveto
          -63 -18 1 -12 -22 hhcurveto
          -401 hlineto
          -17 -15 11 19 -5 hvcurveto
          -14 51 -26 -1 rlineto
          4 -51 7 -100 -1 vvcurveto
          -2 172 343 -4 1 hhcurveto
          15 153 rlineto
          endchar
        </CharString>
        <CharString name="Y">
          228 231 -2 rmoveto
          11 -9 90 29 -9 288 83 128 74 96 111 145 rlinecurve
          -4 18 -85 -17 -36 -57 -84 -145 -8 -14 rlinecurve
          -54 -30 -35 -53 -5 hhcurveto
          -6 -5 6 2 -1 hvcurveto
          -141 325 rlineto
          -145 hlineto
          -7 -7 rlineto
          -28 vlineto
          40 -6 23 -6 23 -45 149 -295 rcurveline
          -100 0 -101 -3 -100 vhcurveto
          endchar
        </CharString>
        <CharString name="Yacute">
          228 451 885 rmoveto
          -47 36 -13 -2 -120 -157 18 -31 rlineto
          -58 -733 rmoveto
          11 -9 90 29 -9 288 83 128 74 96 111 145 rlinecurve
          -4 18 -85 -17 -36 -57 -84 -145 -8 -14 rlinecurve
          -54 -30 -35 -53 -5 hhcurveto
          -6 -5 6 2 -1 hvcurveto
          -141 325 rlineto
          -145 hlineto
          -7 -7 rlineto
          -28 vlineto
          40 -6 23 -6 23 -45 149 -295 rcurveline
          -100 0 -101 -3 -100 vhcurveto
          endchar
        </CharString>
        <CharString name="Z">
          239 552 683 rmoveto
          -149 -148 3 9 -148 hvcurveto
          -9 -8 rlineto
          -54 vlineto
          6 -5 rlineto
          3 27 102 6 187 hhcurveto
          7 -10 -424 -606 1 -21 rlineto
          192 254 0 -12 129 hvcurveto
          18 71 -9 9 rlineto
          -429 hlineto
          -6 -7 90 139 174 271 135 193 rlinecurve
          endchar
        </CharString>
        <CharString name="a">
          184 278 466 rmoveto
          -170 -68 -140 -141 -90 36 -107 111 58 56 31 32 49 hvcurveto
          15 -4 rlineto
          -34 6 14 -25 37 hhcurveto
          32 54 34 24 40 hvcurveto
          -7 24 rlineto
          -8 -21 -30 -10 -14 hhcurveto
          -54 15 125 62 73 2 72 4 73 hvcurveto
          -5 5 -53 -31 rlineto
          23 -32 -43 12 -32 hhcurveto
          -21 -412 rmoveto
          -37 -41 8 33 -21 hvcurveto
          -23 35 -6 43 1 42 2 101 29 55 23 22 rrcurveto
          25 26 33 13 36 hhcurveto
          25 25 -14 -19 18 hvcurveto
          16 -17 0 -26 -26 vvcurveto
          -230 vlineto
          -23 -30 -37 -22 -39 hhcurveto
          endchar
        </CharString>
        <CharString name="aacute">
          184 389 702 rmoveto
          -47 36 -13 -2 -120 -157 18 -31 rlineto
          51 -82 rmoveto
          -170 -68 -140 -141 -90 36 -107 111 58 56 31 32 49 hvcurveto
          15 -4 rlineto
          -34 6 14 -25 37 hhcurveto
          32 54 34 24 40 hvcurveto
          -7 24 rlineto
          -8 -21 -30 -10 -14 hhcurveto
          -54 15 125 62 73 2 72 4 73 hvcurveto
          -5 5 -53 -31 rlineto
          23 -32 -43 12 -32 hhcurveto
          -21 -412 rmoveto
          -37 -41 8 33 -21 hvcurveto
          -23 35 -6 43 1 42 2 101 29 55 23 22 rrcurveto
          25 26 33 13 36 hhcurveto
          25 25 -14 -19 18 hvcurveto
          16 -17 0 -26 -26 vvcurveto
          -230 vlineto
          -23 -30 -37 -22 -39 hhcurveto
          endchar
        </CharString>
        <CharString name="acircumflex">
          184 111 549 rmoveto
          23 -12 143 131 121 -124 39 26 -157 160 rlineto
          -2 -264 rmoveto
          -170 -68 -140 -141 -90 36 -107 111 58 56 31 32 49 hvcurveto
          15 -4 rlineto
          -34 6 14 -25 37 hhcurveto
          32 54 34 24 40 hvcurveto
          -7 24 rlineto
          -8 -21 -30 -10 -14 hhcurveto
          -54 15 125 62 73 2 72 4 73 hvcurveto
          -5 5 -53 -31 rlineto
          23 -32 -43 12 -32 hhcurveto
          -21 -412 rmoveto
          -37 -41 8 33 -21 hvcurveto
          -23 35 -6 43 1 42 2 101 29 55 23 22 rrcurveto
          25 26 33 13 36 hhcurveto
          25 25 -14 -19 18 hvcurveto
          16 -17 0 -26 -26 vvcurveto
          -230 vlineto
          -23 -30 -37 -22 -39 hhcurveto
          endchar
        </CharString>
        <CharString name="acute">
          156 405 664 rmoveto
          -47 36 -13 -2 -120 -157 18 -31 rlineto
          endchar
        </CharString>
        <CharString name="acutecomb">
          115 664 rmoveto
          -47 36 -13 -2 -120 -157 18 -31 rlineto
          endchar
        </CharString>
        <CharString name="adieresis">
          184 434 633 rmoveto
          30 -20 28 -34 -29 -35 -22 -34 -32 26 -26 32 32 26 23 33 2 vhcurveto
          -202 hmoveto
          30 -20 28 -34 -29 -35 -22 -34 -32 26 -26 32 32 26 23 33 2 vhcurveto
          46 -167 rmoveto
          -170 -68 -140 -141 -90 36 -107 111 58 56 31 32 49 hvcurveto
          15 -4 rlineto
          -34 6 14 -25 37 hhcurveto
          32 54 34 24 40 hvcurveto
          -7 24 rlineto
          -8 -21 -30 -10 -14 hhcurveto
          -54 15 125 62 73 2 72 4 73 hvcurveto
          -5 5 -53 -31 rlineto
          23 -32 -43 12 -32 hhcurveto
          -21 -412 rmoveto
          -37 -41 8 33 -21 hvcurveto
          -23 35 -6 43 1 42 2 101 29 55 23 22 rrcurveto
          25 26 33 13 36 hhcurveto
          25 25 -14 -19 18 hvcurveto
          16 -17 0 -26 -26 vvcurveto
          -230 vlineto
          -23 -30 -37 -22 -39 hhcurveto
          endchar
        </CharString>
        <CharString name="ae">
          388 707 319 rmoveto
          11 5 10 4 12 vvcurveto
          77 -56 61 -86 -67 -64 -25 -46 -48 vhcurveto
          39 -22 -65 20 -42 hhcurveto
          -170 -68 -140 -141 -90 36 -107 111 67 65 41 37 51 hvcurveto
          -46 25 41 -32 68 hhcurveto
          86 80 58 58 62 hvcurveto
          -13 18 -11 2 rlineto
          -35 -45 -54 -33 -55 hhcurveto
          -89 -34 78 63 -6 hvcurveto
          42 199 rmoveto
          26 21 30 16 33 hhcurveto
          56 35 -52 -42 -16 -7 -8 -6 -2 hvcurveto
          -202 -80 -4 4 rlineto
          -1 6 -1 6 6 vvcurveto
          49 7 45 39 42 vhcurveto
          -104 -48 rmoveto
          -18 -37 -7 -43 -42 vvcurveto
          -45 5 -46 14 -40 vhcurveto
          -21 -29 -34 -20 -37 hhcurveto
          -37 -41 8 33 -21 hvcurveto
          -23 35 -6 43 1 42 2 101 29 55 23 22 rrcurveto
          25 26 33 13 36 hhcurveto
          25 25 -14 -19 18 hvcurveto
          12 -13 3 -18 1 -19 rrcurveto
          endchar
        </CharString>
        <CharString name="ae-ar">
          -117 217 167 rmoveto
          50 226 -122 160 -114 -333 -40 -116 -21 -132 120 31 84 22 27 68 16 74 rrcurveto
          -79 98 rmoveto
          13 -9 37 -78 -17 -11 -29 -18 -46 -17 -39 17 -6 3 -9 8 2 4 4 15 42 119 48 -33 rrcurveto
          endchar
        </CharString>
        <CharString name="agrave">
          184 144 703 rmoveto
          162 -154 18 31 -120 157 -13 2 rlineto
          87 -273 rmoveto
          -170 -68 -140 -141 -90 36 -107 111 58 56 31 32 49 hvcurveto
          15 -4 rlineto
          -34 6 14 -25 37 hhcurveto
          32 54 34 24 40 hvcurveto
          -7 24 rlineto
          -8 -21 -30 -10 -14 hhcurveto
          -54 15 125 62 73 2 72 4 73 hvcurveto
          -5 5 -53 -31 rlineto
          23 -32 -43 12 -32 hhcurveto
          -21 -412 rmoveto
          -37 -41 8 33 -21 hvcurveto
          -23 35 -6 43 1 42 2 101 29 55 23 22 rrcurveto
          25 26 33 13 36 hhcurveto
          25 25 -14 -19 18 hvcurveto
          16 -17 0 -26 -26 vvcurveto
          -230 vlineto
          -23 -30 -37 -22 -39 hhcurveto
          endchar
        </CharString>
        <CharString name="ain-ar">
          319 206 262 rmoveto
          -117 -92 -114 -220 30 -142 55 -261 425 67 163 198 4 4 -12 -3 -5 -1 -175 -46 -260 -38 -136 153 -78 88 247 210 55 48 40 35 65 42 14 36 45 116 rcurveline
          -60 -58 -97 -59 -47 46 -32 27 -16 25 -8 49 40 -4 34 -7 31 -10 42 130 rcurveline
          -33 8 -29 8 -35 1 -99 2 -58 -206 91 -113 9 -12 10 -11 11 -10 rrcurveto
          endchar
        </CharString>
        <CharString name="ain-ar.fina">
          -23 389 548 rmoveto
          -10 hlineto
          -24 -18 -2 -4 -15 hvcurveto
          -6 -5 -17 -18 -27 -33 rrcurveto
          -25 -30 -13 -20 -11 -1 1 -1 -1 vvcurveto
          14 -90 -116 -114 -49 -53 -36 -66 -24 -78 rlinecurve
          -16 -51 -8 -49 -44 vvcurveto
          -102 38 -67 68 -34 vhcurveto
          -22 45 51 -11 55 hhcurveto
          85 67 19 35 76 hvcurveto
          67 31 53 40 41 49 rrcurveto
          2 vlineto
          1 0 0 -1 -2 -5 -1 -2 -6 vhcurveto
          -19 -77 -100 -21 -96 hhcurveto
          -132 -99 35 74 -66 hvcurveto
          -12 14 -6 16 19 vvcurveto
          11 2 11 5 13 vhcurveto
          11 34 18 34 24 35 37 52 64 69 41 37 19 16 22 17 27 19 27 19 18 17 10 17 5 6 5 8 7 10 51 79 rcurveline
          8 12 6 15 7 19 rrcurveto
          2 6 1 6 6 vvcurveto
          35 -31 11 -41 1 vhcurveto
          endchar
        </CharString>
        <CharString name="ain-ar.init">
          156 274 317 rmoveto
          36 -3 35 -8 34 -10 42 130 rcurveline
          -32 8 -27 8 -37 1 rrcurveto
          -1 hlineto
          -21 -20 -10 -21 -17 hvcurveto
          -33 -40 -26 -67 -70 vvcurveto
          -29 6 -24 12 -18 vhcurveto
          -62 -17 -60 -6 -80 -11 -23 -130 rcurveline
          70 15 73 16 78 18 78 18 74 28 71 38 1 2 3 7 7 14 12 24 15 34 8 25 rrcurveto
          2 5 1 4 3 vvcurveto
          2 0 1 -2 vhcurveto
          -2 hlineto
          -24 -9 -23 -11 -22 -11 -22 -11 -26 -6 -31 -1 -31 27 -28 35 -8 50 rrcurveto
          endchar
        </CharString>
        <CharString name="ain-ar.init.ain">
          352 461 323 rmoveto
          35 -3 35 -7 35 -11 42 130 rcurveline
          -32 8 -28 8 -37 1 -52 1 -33 -66 -15 -44 -17 -52 -10 -75 28 -43 -47 -14 -90 -18 -63 -6 -70 -7 -89 0 -14 51 -13 -34 -13 -43 -13 -51 1 -29 27 -14 28 -3 rrcurveto
          38 -4 46 2 54 8 54 8 54 11 55 14 92 24 111 38 70 37 1 2 3 8 7 13 12 24 16 33 8 25 4 12 0 5 -5 -2 -24 -9 -23 -11 -22 -11 rrcurveto
          -22 -11 -26 -6 -31 -1 -32 26 -28 36 -7 50 rrcurveto
          endchar
        </CharString>
        <CharString name="ain-ar.init.dal">
          188 475 121 rmoveto
          3 8 62 119 -19 -7 -48 -18 -39 -29 -62 -2 -32 27 -26 36 -8 49 40 -4 34 -6 31 -10 42 130 rcurveline
          -33 8 -29 8 -35 1 -86 2 -64 -204 50 -78 -38 -11 -93 -16 -40 10 -25 6 -14 32 4 30 rrcurveto
          3 -3 1 -3 -4 vhcurveto
          -41 -57 -31 -106 66 -32 77 -38 309 125 51 27 rrcurveto
          endchar
        </CharString>
        <CharString name="ain-ar.init.feh">
          392 499 330 rmoveto
          37 -4 35 -7 33 -10 42 129 rcurveline
          -32 8 -28 9 -37 1 -52 1 -34 -67 -15 -44 -18 -52 -8 -74 28 -43 -59 -17 -103 -21 -74 -6 -69 -6 -93 -1 -13 49 -13 -35 -13 -42 -13 -50 1 -29 27 -14 28 -3 rrcurveto
          37 -4 48 2 57 8 57 8 58 12 59 15 99 25 123 38 74 40 1 2 3 8 7 13 12 23 16 35 8 25 4 12 0 5 -5 -2 -24 -9 -23 -11 -22 -11 rrcurveto
          -22 -11 -27 -7 -31 -1 -31 27 -27 36 -8 50 rrcurveto
          endchar
        </CharString>
        <CharString name="ain-ar.init.hah">
          122 242 421 rmoveto
          36 -3 35 -8 34 -10 42 130 rcurveline
          -32 8 -28 8 -37 1 -52 1 -34 -66 -15 -44 -17 -52 -9 -75 28 -43 -40 -11 -31 -14 -21 -15 -21 -15 -22 -31 -20 -47 -20 -47 -8 -32 -10 -51 rrcurveto
          -6 9 0 3 3 vhcurveto
          55 88 55 44 106 31 66 19 60 22 58 31 1 2 3 7 7 14 12 24 14 34 9 25 4 12 0 5 -5 -2 -24 -9 -23 -11 -22 -11 -22 -11 -26 -6 -31 -1 rrcurveto
          -32 27 -27 35 -8 50 rrcurveto
          endchar
        </CharString>
        <CharString name="ain-ar.init.heh">
          279 392 405 rmoveto
          37 -4 34 -7 33 -10 43 130 rcurveline
          -32 8 -29 8 -37 1 -52 1 -33 -66 -15 -44 -17 -52 -10 -75 28 -43 -41 -11 -34 -21 -30 -29 -56 -55 -44 -74 -33 -75 -16 -37 -12 -31 -14 -24 -8 -16 rcurveline
          4 30 rlineto
          1 vlineto
          -53 -65 rlineto
          -1 vlineto
          -3 -38 -3 -41 1 -30 6 -17 rlinecurve
          6 -17 13 11 19 40 29 58 23 56 15 36 15 36 27 41 40 47 33 39 30 28 26 17 52 33 50 13 65 18 31 8 37 17 44 23 1 2 3 8 7 13 rrcurveto
          11 23 16 34 8 25 4 12 0 5 -5 -2 -24 -9 -23 -11 -22 -11 -22 -11 -26 -6 -31 -1 -32 27 -26 35 -8 50 rrcurveto
          endchar
        </CharString>
        <CharString name="ain-ar.init.meem">
          151 270 406 rmoveto
          35 -3 35 -7 35 -11 42 130 rcurveline
          -32 7 -28 9 -37 1 -52 1 -34 -66 -15 -44 -18 -52 -9 -75 28 -43 -78 -22 -45 -40 -40 -68 -22 -38 -16 -41 -19 -42 21 -2 rcurveline
          14 33 18 26 24 18 60 45 76 19 84 30 32 11 31 11 28 10 28 10 17 7 6 3 1 2 3 8 7 13 12 24 15 33 8 25 4 12 0 5 -5 -2 rrcurveto
          -24 -9 -23 -11 -22 -11 -22 -11 -26 -7 -31 -1 -31 27 -27 36 -8 50 rrcurveto
          endchar
        </CharString>
        <CharString name="ain-ar.init.ragaa">
          314 280 387 rmoveto
          37 -4 35 -7 33 -10 42 130 rcurveline
          -32 8 -28 8 -37 1 -52 1 -34 -66 -15 -44 -18 -52 -9 -75 28 -43 -15 -4 -18 -7 -21 -11 -30 -15 -26 -15 -23 -15 -46 -31 -34 -47 -17 -60 40 -30 rcurveline
          22 25 23 20 28 18 42 26 59 27 52 15 66 19 59 24 58 31 1 2 3 8 7 13 12 23 16 34 8 25 4 12 0 5 -5 -2 -24 -9 -23 -11 -22 -11 rrcurveto
          -22 -11 -27 -6 -31 -1 -31 27 -27 35 -8 50 rrcurveto
          endchar
        </CharString>
        <CharString name="ain-ar.init.reh">
          172 290 358 rmoveto
          34 -3 35 -7 36 -11 42 130 rcurveline
          -32 7 -28 9 -37 1 rrcurveto
          -1 hlineto
          -21 -20 -11 -21 -17 hvcurveto
          -33 -40 -26 -66 -70 vvcurveto
          -29 6 -24 12 -18 vhcurveto
          -15 -5 -21 -4 -26 -4 -1 -1 rcurveline
          -3 -1 hlineto
          -42 -10 -38 -15 -25 -26 -21 -22 -20 -30 -14 -32 rrcurveto
          -1 vlineto
          -10 -12 -5 -11 -9 vvcurveto
          -10 8 -13 9 6 5 5 9 7 vhcurveto
          34 34 36 9 48 14 114 26 97 27 96 51 1 2 3 8 7 13 12 24 15 34 8 25 rrcurveto
          2 5 1 4 3 vvcurveto
          2 0 1 -2 vhcurveto
          -2 hlineto
          -24 -9 -23 -11 -22 -11 -22 -11 -26 -6 -31 -1 -31 27 -27 35 -8 50 rrcurveto
          endchar
        </CharString>
        <CharString name="ain-ar.init.sad">
          417 523 330 rmoveto
          36 -3 35 -7 34 -10 42 129 rcurveline
          -32 8 -28 9 -37 1 rrcurveto
          -1 hlineto
          -21 -19 -11 -21 -17 hvcurveto
          -33 -40 -26 -67 -70 vvcurveto
          -29 6 -24 12 -18 vhcurveto
          -50 -14 -54 -12 -56 -11 rrcurveto
          -7 -38 -37 -4 -36 hhcurveto
          -62 -45 7 42 -20 hvcurveto
          -4 7 -2 10 10 vvcurveto
          29 14 40 26 52 vhcurveto
          1 2 0 1 1 vvcurveto
          2 -1 1 -1 vhcurveto
          -2 hlineto
          -2 -2 0 -2 -1 hvcurveto
          -10 -14 -15 -24 -20 -34 -20 -34 -14 -34 -11 -36 rrcurveto
          -7 -22 -4 -22 -20 vvcurveto
          -12 2 -11 2 -11 vhcurveto
          -43 10 50 -14 62 hhcurveto
          26 29 2 5 34 hvcurveto
          56 7 58 12 60 15 101 25 124 39 77 41 1 2 3 8 7 14 12 24 16 33 8 25 rrcurveto
          2 5 1 5 2 vvcurveto
          3 -1 1 -2 vhcurveto
          0 0 -1 -1 vhcurveto
          -24 -9 -23 -11 -22 -11 -22 -11 -27 -6 -31 -1 -31 27 -27 35 -8 50 rrcurveto
          endchar
        </CharString>
        <CharString name="ain-ar.init.yeh">
          123 243 362 rmoveto
          34 -3 35 -7 36 -11 42 130 rcurveline
          -32 7 -28 9 -37 1 -52 1 -34 -67 -15 -44 -18 -52 -9 -74 28 -43 -55 -15 -40 -25 -27 -34 -27 -35 -22 -38 -22 -44 19 -18 rcurveline
          14 19 17 15 19 12 40 25 12 5 56 19 55 19 73 24 55 20 29 10 17 7 6 3 1 2 3 8 7 13 12 23 15 35 8 25 4 12 1 5 -5 -2 rrcurveto
          -24 -9 -24 -11 -22 -11 -22 -11 -26 -6 -31 -1 -31 27 -27 35 -8 50 rrcurveto
          endchar
        </CharString>
        <CharString name="ain-ar.medi">
          -78 372 351 rmoveto
          -10 hlineto
          -23 -19 -3 -4 -15 hvcurveto
          -6 -5 -16 -17 -28 -33 rrcurveto
          -25 -30 -13 -20 -11 -1 1 -1 -1 vvcurveto
          19 -66 -72 -12 -71 -12 -72 -12 rlinecurve
          -1 -1 -21 -122 69 11 120 27 53 21 rlinecurve
          15 5 20 10 26 17 26 17 21 23 19 29 51 79 rcurveline
          8 12 6 16 7 19 rrcurveto
          2 6 1 5 6 vvcurveto
          35 -31 12 -41 1 vhcurveto
          endchar
        </CharString>
        <CharString name="ain-ar.medi.ain">
          42 361 59 rmoveto
          15 4 21 10 25 17 25 17 22 24 19 29 52 79 rcurveline
          7 12 7 15 7 19 15 45 -38 19 -47 1 -28 1 -22 -2 -17 -5 -6 -5 -16 -18 -28 -33 -28 -33 -12 -21 3 -9 20 -67 rcurveline
          -58 -16 -91 -17 -73 4 -44 2 -42 10 -10 34 -13 -34 -13 -42 -13 -51 1 -29 27 -15 28 -3 91 -9 151 41 63 26 rrcurveto
          endchar
        </CharString>
        <CharString name="ain-ar.medi.dal">
          -78 38 7 rmoveto
          73 -36 208 98 50 79 51 79 rcurveline
          15 24 22 46 -27 26 -21 20 -71 -1 -33 -10 -11 -9 -83 -91 6 -19 20 -66 rcurveline
          -38 -6 -75 -18 -40 10 -26 7 -14 35 6 31 rrcurveto
          2 -1 0 -2 -2 vhcurveto
          -42 -56 -35 -110 68 -33 rrcurveto
          endchar
        </CharString>
        <CharString name="ain-ar.medi.feh">
          103 422 64 rmoveto
          15 4 20 11 26 17 26 17 22 23 19 29 51 79 rcurveline
          8 12 7 16 6 19 6 19 -3 17 -14 13 -20 19 -75 -1 -31 -9 -6 -4 -16 -18 -28 -33 -28 -33 -12 -21 3 -10 20 -66 rcurveline
          -46 -15 -95 -16 -64 -4 -68 -5 -92 2 -14 49 -13 -35 -13 -42 -13 -50 1 -30 27 -14 28 -3 49 -5 63 5 76 15 76 15 60 16 42 17 rrcurveto
          endchar
        </CharString>
        <CharString name="ain-ar.medi.hah">
          -30 291 174 rmoveto
          15 4 19 11 26 17 26 17 21 23 19 29 51 79 rcurveline
          8 12 8 16 6 19 6 19 -4 17 -13 13 rrcurveto
          10 -11 -19 6 -28 hhcurveto
          -28 -22 -2 -5 -17 hvcurveto
          -6 -4 -17 -18 -28 -33 -28 -33 -12 -21 3 -10 20 -66 rcurveline
          -61 -12 -42 -11 -26 -10 -26 -10 -31 -33 -37 -57 -35 -53 -21 -46 -7 -37 rrcurveto
          -6 9 0 3 3 vhcurveto
          31 49 43 40 55 28 63 32 22 -3 65 26 rrcurveto
          endchar
        </CharString>
        <CharString name="ain-ar.medi.heh">
          145 465 168 rmoveto
          15 4 20 11 26 17 26 17 21 23 19 29 51 79 rcurveline
          8 12 7 16 6 19 15 45 -37 18 -47 1 -28 1 -22 -2 -17 -5 -6 -5 -16 -18 -28 -33 -28 -33 -12 -20 3 -10 19 -66 rcurveline
          -71 -12 -52 -16 -34 -18 -34 -18 -35 -33 -38 -49 -70 -90 -16 -39 -47 -96 -9 -18 rcurveline
          4 30 rlineto
          1 vlineto
          -53 -65 rlineto
          -1 vlineto
          -3 -38 -3 -41 1 -30 6 -17 rlinecurve
          6 -17 13 11 19 40 29 58 23 56 15 36 15 36 27 41 40 47 56 67 37 28 93 19 23 5 29 9 34 14 rrcurveto
          endchar
        </CharString>
        <CharString name="ain-ar.medi.meem">
          10 330 167 rmoveto
          15 4 19 11 26 17 26 17 22 24 19 29 51 79 rcurveline
          7 12 7 15 7 19 15 45 -37 19 -47 1 -28 1 -22 -2 -17 -5 -6 -4 -16 -19 -28 -33 -28 -33 -12 -21 3 -10 19 -66 rcurveline
          -27 -5 -55 -13 -31 -9 -49 -13 -23 -5 -33 -31 -52 -47 -24 -73 -31 -69 21 -2 rcurveline
          16 36 27 29 37 22 65 38 91 12 73 30 rrcurveto
          endchar
        </CharString>
        <CharString name="ain-ar.medi.ragaa">
          -70 252 118 rmoveto
          15 4 20 11 25 17 25 17 22 23 19 29 51 79 rcurveline
          7 12 7 16 6 19 6 19 -3 17 -13 13 -20 19 -73 -1 -32 -9 -6 -4 -16 -18 -27 -33 -27 -33 -12 -21 3 -10 19 -66 rcurveline
          -32 -6 -30 -7 -26 -8 -86 -25 -45 -53 -29 -88 rrcurveto
          -1 vlineto
          40 -30 21 25 26 22 26 16 rlinecurve
          60 36 14 -8 65 27 rrcurveto
          endchar
        </CharString>
        <CharString name="ain-ar.medi.reh">
          -77 373 378 rmoveto
          -10 hlineto
          -24 -19 -2 -4 -15 hvcurveto
          -6 -5 -17 -18 -27 -33 rrcurveto
          -25 -30 -12 -20 -11 vvcurveto
          -3 vlineto
          20 -65 -31 -6 1 1 -33 -6 -31 -5 -27 -3 rlinecurve
          -27 -3 -27 -25 -30 -49 -7 -11 -6 -12 -6 -13 rrcurveto
          -1 vlineto
          -10 -12 -5 -11 -9 vvcurveto
          -10 8 -13 9 6 5 5 9 7 vhcurveto
          11 11 23 10 33 9 51 14 43 10 47 19 15 5 20 11 26 17 26 17 22 23 19 29 50 79 rcurveline
          8 12 7 15 7 19 rrcurveto
          2 6 1 6 6 vvcurveto
          35 -31 11 -41 1 vhcurveto
          endchar
        </CharString>
        <CharString name="ain-ar.medi.sad">
          160 617 361 rmoveto
          -10 hlineto
          -24 -19 -3 -4 -15 hvcurveto
          -6 -5 -16 -17 -27 -33 rrcurveto
          -25 -30 -13 -20 -11 vvcurveto
          -3 vlineto
          20 -66 -46 -8 -55 -9 -63 -11 rlinecurve
          -8 -45 -41 -4 -37 hhcurveto
          -59 -41 9 40 -19 hvcurveto
          -4 7 -2 10 10 vvcurveto
          29 14 40 26 52 vhcurveto
          1 2 0 1 1 vvcurveto
          3 -3 0 -2 -2 -1 0 -2 -1 vhcurveto
          -10 -15 -15 -24 -20 -34 -20 -34 -14 -34 -11 -36 rrcurveto
          -7 -22 -4 -21 -20 vvcurveto
          -12 2 -11 2 -11 vhcurveto
          -42 9 49 -15 61 hhcurveto
          58 51 8 10 55 hvcurveto
          66 12 81 18 51 21 15 4 21 11 26 17 26 17 21 23 19 29 51 80 rcurveline
          8 12 6 15 7 19 rrcurveto
          2 6 1 5 6 vvcurveto
          35 -31 12 -41 1 vhcurveto
          endchar
        </CharString>
        <CharString name="ain-ar.medi.yeh">
          2 321 155 rmoveto
          15 4 21 11 26 17 26 17 21 23 19 29 51 79 rcurveline
          8 12 7 16 6 19 15 45 -38 19 -47 1 rrcurveto
          -28 -22 -2 -5 -17 hvcurveto
          -6 -5 -16 -17 -28 -33 -28 -33 -12 -21 3 -10 20 -67 rcurveline
          -49 -8 -77 -19 -44 -16 -43 -15 -38 -47 -20 -41 -13 -27 -15 -34 -18 -39 19 -8 rcurveline
          30 54 44 35 60 14 60 14 56 17 52 21 rrcurveto
          endchar
        </CharString>
        <CharString name="ainThreedots-ar">
          319 340 830 rmoveto
          -10 19 -11 16 -14 13 -49 46 -46 -45 -41 -55 -41 -56 -38 -66 -17 -33 -1 -1 rcurveline
          1 -44 25 34 94 211 60 -147 rlinecurve
          6 -15 5 5 4 5 27 35 26 37 20 41 rrcurveto
          -134 -568 rmoveto
          -117 -92 -114 -220 30 -142 55 -261 425 67 163 198 4 4 -12 -3 -5 -1 -175 -46 -260 -38 -136 153 -78 88 247 210 55 48 40 35 65 42 14 36 45 116 rcurveline
          -60 -58 -97 -59 -47 46 -32 27 -16 25 -8 49 40 -4 34 -7 31 -10 42 130 rcurveline
          -33 8 -29 8 -35 1 -99 2 -58 -206 91 -113 9 -12 10 -11 11 -10 rrcurveto
          endchar
        </CharString>
        <CharString name="alef-ar">
          -116 73 569 rmoveto
          28 -425 74 118 -28 425 rlineto
          endchar
        </CharString>
        <CharString name="alef-ar.fina">
          -252 73 570 rmoveto
          39 -570 62 118 -38 569 rlineto
          endchar
        </CharString>
        <CharString name="alef-ar.fina.lam">
          30 354 564 rmoveto
          -65 -120 34 -299 67 112 -8 108 -16 95 -12 104 rlinecurve
          endchar
        </CharString>
        <CharString name="alefHamzaabove-ar">
          -116 131 744 rmoveto
          37 26 20 43 -28 18 -15 10 -24 1 -12 14 15 21 26 3 8 18 21 45 rcurveline
          -9 -4 -9 -4 -8 -6 -26 -20 -88 -94 50 -28 11 -6 16 -6 11 -7 6 -4 -8 -5 -3 -2 -29 -16 -33 -13 -31 -14 36 6 35 2 31 22 rrcurveto
          -58 -175 rmoveto
          28 -425 74 118 -28 425 rlineto
          endchar
        </CharString>
        <CharString name="alefHamzabelow-ar">
          -116 73 569 rmoveto
          28 -425 74 118 -28 425 rlineto
          -9 -756 rmoveto
          37 26 20 43 -28 18 -15 10 -24 1 -12 14 15 21 26 3 8 18 21 45 rcurveline
          -9 -4 -9 -4 -8 -6 -26 -20 -88 -94 50 -28 11 -6 16 -6 11 -7 6 -4 -8 -5 -3 -2 -29 -16 -33 -13 -31 -14 36 6 35 2 31 22 rrcurveto
          endchar
        </CharString>
        <CharString name="alefMadda-ar">
          -116 293 845 rmoveto
          1 -2 3 -2 -2 vhcurveto
          -46 -40 -101 -27 -76 39 -10 5 2 3 -10 -5 -36 -18 -22 -20 -20 -35 -40 -70 55 68 19 11 9 5 11 11 12 -6 72 -37 92 25 49 32 rrcurveto
          -176 -219 rmoveto
          28 -425 74 118 -28 425 rlineto
          endchar
        </CharString>
        <CharString name="alefMaksura-ar">
          251 78 24 rmoveto
          157 -86 273 169 84 130 26 39 7 38 -25 27 -18 19 -33 -1 -28 8 -160 45 117 73 49 -15 20 32 11 39 17 36 rrcurveto
          9 4 -14 1 -4 hhcurveto
          -35 -1 -28 -29 -19 -18 -42 -40 -83 -134 16 -56 15 -54 64 -20 67 -7 -60 -39 -69 -30 -83 -15 -69 -13 -90 2 -45 35 -103 81 104 151 39 81 4 8 -9 1 -3 -5 rrcurveto
          -67 -94 -160 -272 173 -95 rrcurveto
          endchar
        </CharString>
        <CharString name="alefMaksura-ar.fina">
          50 136 487 rmoveto
          -2 -1 0 -2 -1 hvcurveto
          -17 -23 -20 -34 -24 -42 -24 -42 -19 -44 -13 -46 rrcurveto
          -9 -32 -5 -29 -30 vvcurveto
          -70 21 -40 56 -30 vhcurveto
          -16 29 33 -7 35 hhcurveto
          12 12 0 2 13 hvcurveto
          50 7 50 16 49 24 86 42 97 73 47 73 rrcurveto
          16 24 8 21 18 vvcurveto
          31 -23 23 -29 4 vhcurveto
          -67 9 -63 27 -19 58 -15 -26 -12 -26 -10 -27 rrcurveto
          -7 -18 -3 -16 -13 vvcurveto
          -7 1 -5 2 -6 vhcurveto
          8 -27 17 -19 28 -12 28 -12 31 -8 34 -3 -64 -41 -71 -28 -78 -14 rrcurveto
          -5 -25 -26 -2 -27 hhcurveto
          -95 -74 33 88 21 3 23 7 22 hvcurveto
          16 52 37 60 21 44 rrcurveto
          1 2 0 1 1 vvcurveto
          3 -3 0 -2 vhcurveto
          endchar
        </CharString>
        <CharString name="alefMaksura-ar.fina.jalt">
          432 287 8 rmoveto
          135 -17 138 11 114 34 133 40 114 72 69 107 38 59 -10 54 -56 8 -70 10 -51 27 -33 48 -14 -25 -11 -24 -9 -25 -21 -61 24 -39 45 -19 28 -12 30 -7 34 -3 rrcurveto
          -67 -44 -72 -29 -78 -14 -78 -14 -79 -10 -77 -6 -158 -2 -120 36 -84 73 -32 27 -15 24 2 20 2 20 11 18 18 18 61 58 75 42 90 28 90 28 86 15 82 3 53 112 rcurveline
          -79 -3 -72 -10 -64 -17 -143 -37 -114 -57 -80 -102 -79 -101 -26 -123 92 -100 43 -47 76 -30 109 -14 rrcurveto
          endchar
        </CharString>
        <CharString name="alefMaksura-ar.fina.yeh">
          276 193 1 rmoveto
          102 8 93 43 70 48 61 42 24 35 35 57 6 9 9 16 10 20 5 10 4 9 5 10 7 14 3 28 -13 11 -24 18 -36 10 -33 8 -104 25 rcurveline
          -1 vlineto
          -18 -38 -20 -33 -16 -40 -5 -11 0 -7 6 -1 57 -12 53 -10 51 -19 8 -4 5 -3 1 -6 -2 -3 -3 -3 -6 -3 -36 -20 -36 -17 -36 -15 -63 -27 -75 -20 -90 6 rrcurveto
          -39 3 -31 10 -22 18 -46 36 -9 52 21 67 16 52 37 61 21 44 4 8 -9 0 -3 -4 -17 -23 -20 -33 -24 -42 -24 -42 -19 -44 -13 -46 -13 -46 -4 -44 6 -42 rrcurveto
          11 -77 79 -50 99 8 rrcurveto
          endchar
        </CharString>
        <CharString name="alefMaksura-ar.fina.yeh.jalt">
          429 287 7 rmoveto
          43 -6 52 -2 61 2 135 4 124 29 97 49 54 27 42 35 29 45 11 18 16 25 20 33 20 33 10 28 -1 21 -1 7 -3 6 -5 4 -18 14 -32 13 -45 10 rrcurveto
          -45 10 -35 8 -23 6 rrcurveto
          -1 vlineto
          -19 -39 -18 -33 -17 -40 -5 -11 0 -7 6 -1 57 -12 53 -9 51 -19 7 -3 5 -4 2 -6 -2 -3 -3 -3 -6 -3 -72 -38 -70 -26 -67 -12 -67 -12 -78 -9 -87 -7 rrcurveto
          -158 -2 -120 35 -84 73 -32 27 -15 24 2 20 2 20 11 18 18 18 61 58 75 43 90 28 90 28 86 14 82 3 53 112 rcurveline
          -79 -3 -72 -9 -64 -17 -143 -37 -114 -58 -80 -102 -79 -101 -26 -122 92 -100 43 -47 76 -30 109 -14 rrcurveto
          endchar
        </CharString>
        <CharString name="alefMaksura-ar.jalt">
          719 287 9 rmoveto
          135 -17 138 12 114 34 133 40 114 72 69 107 28 44 3 34 -23 25 -18 19 -33 0 -28 8 -40 11 -25 12 -9 13 -9 13 0 13 7 11 11 17 41 21 30 -9 rrcurveto
          20 32 11 40 17 35 rrcurveto
          9 4 -12 1 -6 hhcurveto
          -35 -2 -29 -28 -19 -17 -21 -21 -24 -36 -30 -53 -30 -53 -11 -40 8 -28 8 -27 18 -19 28 -12 28 -12 30 -8 34 -3 -67 -44 -72 -28 -78 -14 -78 -14 -79 -10 -77 -6 rrcurveto
          -158 -2 -120 35 -84 73 -32 27 -15 24 2 20 2 20 11 18 18 18 61 58 75 42 90 28 90 28 86 15 82 3 53 112 rcurveline
          -79 -3 -72 -9 -64 -17 -143 -37 -114 -58 -80 -102 -79 -101 -26 -122 92 -100 43 -47 76 -31 109 -14 rrcurveto
          endchar
        </CharString>
        <CharString name="alefWasla-ar">
          -116 29 757 rmoveto
          75 74 -46 -89 101 42 28 11 26 15 16 22 12 16 16 21 -15 18 -12 14 -27 -8 -11 -10 -23 -21 -22 -22 -20 -24 rrcurveto
          -1 -3 -2 0 -2 hhcurveto
          -35 42 -55 -64 -10 -40 -1 -4 8 6 2 2 rrcurveto
          182 90 rmoveto
          2 -3 1 -4 -4 -2 -20 -10 -24 -5 -25 -5 13 13 12 14 17 9 10 5 14 -4 4 -8 rrcurveto
          -138 -278 rmoveto
          28 -425 74 118 -28 425 rlineto
          endchar
        </CharString>
        <CharString name="alefabove-ar">
          -24 150 rmoveto
          -5 -11 -6 -12 -5 -11 1 -6 2 -7 2 -5 14 -38 20 -33 2 -50 rrcurveto
          -8 vlineto
          -11 -1 -12 -2 -13 vhcurveto
          -1 -1 0 0 vhcurveto
          -1 1 -2 1 vhcurveto
          1 hlineto
          2 0 1 2 2 hvcurveto
          17 19 10 22 31 vvcurveto
          2 vlineto
          13 -2 12 -3 13 vhcurveto
          -10 38 -18 35 -13 35 rrcurveto
          2 -1 -1 1 -2 hhcurveto
          -1 hlineto
          -3 -1 -1 -1 -3 vvcurveto
          endchar
        </CharString>
        <CharString name="alefabove-ar.isol">
          -243 66 630 rmoveto
          -5 -11 -6 -12 -5 -11 1 -6 2 -7 2 -5 14 -38 20 -33 2 -50 rrcurveto
          -8 vlineto
          -11 -1 -12 -2 -13 vhcurveto
          -1 -1 0 0 vhcurveto
          -1 1 -2 1 vhcurveto
          1 hlineto
          2 0 1 2 2 hvcurveto
          17 19 10 22 31 vvcurveto
          2 vlineto
          13 -2 12 -3 13 vhcurveto
          -10 38 -18 35 -13 35 rrcurveto
          2 -1 -1 1 -2 hhcurveto
          -1 hlineto
          -3 -1 -1 -1 -3 vvcurveto
          endchar
        </CharString>
        <CharString name="alefabove-ar.medi">
          66 630 rmoveto
          -5 -11 -6 -12 -5 -11 1 -6 2 -7 2 -5 14 -38 20 -33 2 -50 rrcurveto
          -8 vlineto
          -11 -1 -12 -2 -13 vhcurveto
          -1 -1 0 0 vhcurveto
          -1 1 -2 1 vhcurveto
          1 hlineto
          2 0 1 2 2 hvcurveto
          17 19 10 22 31 vvcurveto
          2 vlineto
          13 -2 12 -3 13 vhcurveto
          -10 38 -18 35 -13 35 rrcurveto
          2 -1 -1 1 -2 hhcurveto
          -1 hlineto
          -3 -1 -1 -1 -3 vvcurveto
          endchar
        </CharString>
        <CharString name="alefbelow-ar">
          -24 150 rmoveto
          -5 -11 -6 -12 -5 -11 1 -6 2 -7 2 -5 14 -38 20 -33 2 -50 rrcurveto
          -8 vlineto
          -11 -1 -12 -2 -13 vhcurveto
          -1 -1 0 0 vhcurveto
          -1 1 -2 1 vhcurveto
          1 hlineto
          2 0 1 2 2 hvcurveto
          17 19 10 22 31 vvcurveto
          2 vlineto
          13 -2 12 -3 13 vhcurveto
          -10 38 -18 35 -13 35 rrcurveto
          2 -1 -1 1 -2 hhcurveto
          -1 hlineto
          -3 -1 -1 -1 -3 vvcurveto
          endchar
        </CharString>
        <CharString name="alpha">
          245 410 307 rmoveto
          -10 1 rlineto
          55 -15 -34 105 -89 hhcurveto
          -151 -81 -161 -138 -68 25 -113 81 60 60 50 44 36 hvcurveto
          65 78 11 -2 46 -134 rlineto
          -25 6 25 -19 23 hhcurveto
          34 49 42 54 68 hvcurveto
          -7 19 -10 1 rlineto
          -21 -27 -35 -25 -25 hhcurveto
          -48 -34 127 60 -16 hvcurveto
          1 92 138 46 69 vhcurveto
          -51 23 rlineto
          -155 -256 rmoveto
          -72 -51 -58 -78 -58 hhcurveto
          -69 -17 97 57 74 24 121 92 76 27 -87 -112 34 hvcurveto
          endchar
        </CharString>
        <CharString name="ampersand">
          374 326 356 rmoveto
          3 23 23 2 23 hhcurveto
          22 23 0 -16 16 hvcurveto
          21 -21 15 -28 -30 vvcurveto
          -48 -12 -49 -26 -38 vhcurveto
          -84 86 -64 93 -48 106 17 8 74 43 30 28 rrcurveto
          33 30 14 37 44 vvcurveto
          55 -52 37 -50 -102 -61 -87 -91 -42 10 -42 16 -39 vhcurveto
          -111 -68 -47 -43 -91 vvcurveto
          -55 23 -54 39 -39 vhcurveto
          -43 43 64 -12 60 hhcurveto
          58 55 28 32 40 hvcurveto
          5 -4 rlineto
          -34 35 45 -25 50 hhcurveto
          109 43 106 89 16 hvcurveto
          -21 5 rlineto
          -64 -15 -30 -72 -71 hhcurveto
          -40 -39 31 28 -26 hvcurveto
          -3 3 rlineto
          41 53 33 60 67 vvcurveto
          21 -4 21 -5 21 vhcurveto
          49 57 0 -7 41 hvcurveto
          3 48 rlineto
          -3 -30 -74 0 -52 hhcurveto
          -67 -77 0 3 -56 hvcurveto
          -78 36 rmoveto
          -17 40 -11 41 43 vvcurveto
          46 5 58 60 32 35 -46 -35 -65 -21 -30 -83 -52 vhcurveto
          146 -367 rmoveto
          -26 -32 -38 -11 -53 hhcurveto
          -99 -67 94 93 63 21 50 68 45 hvcurveto
          46 -110 74 -109 80 -89 rrcurveto
          endchar
        </CharString>
        <CharString name="aring">
          184 177 613 rmoveto
          -54 43 -43 54 54 43 43 54 54 -43 43 -54 -54 -43 -43 -54 vhcurveto
          30 hmoveto
          37 30 30 37 37 30 -30 -37 -37 -30 -30 -37 -37 -30 30 37 vhcurveto
          71 -147 rmoveto
          -170 -68 -140 -141 -90 36 -107 111 58 56 31 32 49 hvcurveto
          15 -4 rlineto
          -34 6 14 -25 37 hhcurveto
          32 54 34 24 40 hvcurveto
          -7 24 rlineto
          -8 -21 -30 -10 -14 hhcurveto
          -54 15 125 62 73 2 72 4 73 hvcurveto
          -5 5 -53 -31 rlineto
          23 -32 -43 12 -32 hhcurveto
          -21 -412 rmoveto
          -37 -41 8 33 -21 hvcurveto
          -23 35 -6 43 1 42 2 101 29 55 23 22 rrcurveto
          25 26 33 13 36 hhcurveto
          25 25 -14 -19 18 hvcurveto
          16 -17 0 -26 -26 vvcurveto
          -230 vlineto
          -23 -30 -37 -22 -39 hhcurveto
          endchar
        </CharString>
        <CharString name="asciitilde">
          308 342 291 rmoveto
          25 -41 -50 31 -44 hhcurveto
          -59 -36 -49 -58 -29 hvcurveto
          22 -12 rlineto
          53 29 21 24 40 hhcurveto
          29 27 -13 -15 24 hvcurveto
          99 -63 rlineto
          -20 31 36 -16 38 hhcurveto
          55 37 49 48 20 hvcurveto
          -21 11 rlineto
          -37 -20 -20 -30 -40 hhcurveto
          -27 -25 12 14 -22 hvcurveto
          endchar
        </CharString>
        <CharString name="asterisk">
          -63 175 448 rmoveto
          -8 36 -2 33 -1 35 26 -20 24 -22 17 -19 26 29 rcurveline
          -28 13 -29 20 -31 23 28 20 28 17 32 15 -25 31 rcurveline
          -20 -21 -23 -21 -25 -20 2 33 2 29 7 33 rrcurveto
          -40 hlineto
          8 -33 0 -31 -32 vvcurveto
          -25 19 -21 19 -22 21 -27 -28 rcurveline
          29 -15 27 -16 29 -21 -26 -18 -27 -18 -34 -17 21 -35 rcurveline
          24 28 26 23 27 21 -1 -43 -2 -30 -6 -38 rrcurveto
          endchar
        </CharString>
        <CharString name="at">
          364 472 371 rmoveto
          16 -25 -35 8 -25 hhcurveto
          -132 -56 -97 -99 -64 29 -74 88 46 44 22 22 39 hvcurveto
          12 -3 rlineto
          -24 4 11 -17 29 hhcurveto
          34 61 34 27 24 hvcurveto
          39 39 27 53 5 63 14 185 -185 137 -175 -34 -109 -21 -98 -87 -52 -86 -56 -92 -9 -122 57 -98 44 -76 83 -68 105 -8 43 42 rcurveline
          -14 15 -67 5 -58 28 -42 39 rlinecurve
          -98 105 6 189 91 109 42 35 50 25 53 10 168 32 163 -114 -13 -178 rrcurveto
          -54 -4 -23 -90 -63 hhcurveto
          -27 -2 29 17 hvcurveto
          27 -1 28 27 vvcurveto
          52 0 52 4 52 vhcurveto
          -4 4 rlineto
          -59 -255 rmoveto
          -15 -23 -29 -16 -32 hhcurveto
          -29 -32 6 23 -17 hvcurveto
          -18 24 -6 31 1 29 1 71 24 38 18 15 rrcurveto
          18 21 26 9 29 hhcurveto
          20 19 -10 -13 14 hvcurveto
          13 -12 0 -19 -18 vvcurveto
          endchar
        </CharString>
        <CharString name="atilde">
          184 272 658 rmoveto
          -26 12 -31 13 -26 -4 -35 -5 -19 -58 -8 -35 14 -5 rcurveline
          12 33 10 12 24 3 17 2 18 -4 15 -7 63 -30 rcurveline
          20 -9 22 -6 22 3 32 4 20 56 3 29 -13 5 rcurveline
          -9 -23 -8 -13 -24 -3 -16 -2 -16 5 -14 6 rrcurveto
          -41 -171 rmoveto
          -170 -68 -140 -141 -90 36 -107 111 58 56 31 32 49 hvcurveto
          15 -4 rlineto
          -34 6 14 -25 37 hhcurveto
          32 54 34 24 40 hvcurveto
          -7 24 rlineto
          -8 -21 -30 -10 -14 hhcurveto
          -54 15 125 62 73 2 72 4 73 hvcurveto
          -5 5 -53 -31 rlineto
          23 -32 -43 12 -32 hhcurveto
          -21 -412 rmoveto
          -37 -41 8 33 -21 hvcurveto
          -23 35 -6 43 1 42 2 101 29 55 23 22 rrcurveto
          25 26 33 13 36 hhcurveto
          25 25 -14 -19 18 hvcurveto
          16 -17 0 -26 -26 vvcurveto
          -230 vlineto
          -23 -30 -37 -22 -39 hhcurveto
          endchar
        </CharString>
        <CharString name="b">
          158 -14 640 rmoveto
          86 -13 8 7 -35 vvcurveto
          -476 vlineto
          -111 66 -22 51 114 117 80 107 35 vhcurveto
          14 43 5 44 44 vvcurveto
          84 -48 76 -93 -68 -58 -34 -40 -53 vhcurveto
          -9 5 rlineto
          33 vlineto
          82 6 81 8 82 vhcurveto
          -6 7 -169 -18 -6 -5 rlineto
          171 -314 rmoveto
          34 39 45 25 53 hhcurveto
          38 24 -23 -20 13 hvcurveto
          14 -21 16 -42 -73 vvcurveto
          -92 -41 -97 -106 -88 -11 78 113 39 2 45 2 34 vhcurveto
          endchar
        </CharString>
        <CharString name="backslash">
          26 404 -184 rmoveto
          3 13 -388 893 -31 -7 -5 -11 389 -896 rlineto
          endchar
        </CharString>
        <CharString name="bar">
          -148 128 738 rmoveto
          -40 -8 rlineto
          -897 vlineto
          40 8 rlineto
          endchar
        </CharString>
        <CharString name="beh-ar">
          437 619 342 rmoveto
          13 -34 19 -64 -1 -23 rrcurveto
          0 -194 -97 -150 -87 -79 31 85 4 vhcurveto
          3 60 37 57 8 15 4 8 -8 5 -11 -16 rrcurveto
          -54 -81 -37 -81 -55 vvcurveto
          -165 178 14 11 166 205 106 108 53 vhcurveto
          60 120 -63 121 0 vvcurveto
          -309 -579 rmoveto
          -71 66 -27 -34 -28 -35 -27 -34 rlinecurve
          71 -66 28 34 27 34 27 35 rlinecurve
          endchar
        </CharString>
        <CharString name="behDotless-ar">
          437 619 342 rmoveto
          13 -34 19 -64 -1 -23 rrcurveto
          0 -194 -97 -150 -87 -79 31 85 4 vhcurveto
          3 60 37 57 8 15 4 8 -8 5 -11 -16 rrcurveto
          -54 -81 -37 -81 -55 vvcurveto
          -165 178 14 11 166 205 106 108 53 vhcurveto
          60 120 -63 121 0 vvcurveto
          endchar
        </CharString>
        <CharString name="behDotless-ar.fina">
          126 489 43 rmoveto
          -1 -5 -1 -4 -3 vvcurveto
          -4 1 -1 2 vhcurveto
          1 hlineto
          25 26 20 31 15 35 15 35 13 31 6 22 rrcurveto
          1 2 27 -6 -14 vhcurveto
          -9 -20 -16 -20 -19 -10 rrcurveto
          -36 -69 -144 -7 -36 hhcurveto
          -174 -46 45 71 3 hvcurveto
          2 41 13 38 24 45 9 22 -18 7 -11 -17 -24 -39 -24 -44 -23 -51 rrcurveto
          -13 -30 -6 -29 -27 vvcurveto
          -161 204 2 41 84 103 20 23 57 vhcurveto
          endchar
        </CharString>
        <CharString name="behDotless-ar.fina.jalt">
          485 287 7 rmoveto
          96 -12 95 3 95 19 95 19 91 27 89 36 -5 -12 1 -6 6 1 25 27 19 30 15 35 15 35 11 30 7 23 rrcurveto
          1 2 1 3 6 vvcurveto
          6 -2 1 -4 -5 vhcurveto
          -9 -22 -13 -15 -20 -11 -56 -31 -71 -23 -84 -15 -84 -15 -75 -10 -63 -5 -158 -2 -120 36 -84 73 -32 27 -15 24 2 20 2 20 11 19 18 17 61 58 75 42 90 28 rrcurveto
          90 28 86 15 82 3 53 112 rcurveline
          -79 -3 -72 -9 -64 -17 -143 -38 -114 -57 -80 -102 -79 -101 -26 -123 92 -100 43 -47 76 -30 109 -14 rrcurveto
          endchar
        </CharString>
        <CharString name="behDotless-ar.init">
          -70 252 393 rmoveto
          -77 -113 rlineto
          17 -58 9 -36 -14 vvcurveto
          -19 -13 -21 -9 -24 -6 -24 -6 -38 -7 -52 -6 rrcurveto
          -1 hlineto
          -22 -125 40 4 35 6 28 8 rlinecurve
          66 19 41 46 34 57 42 69 -4 101 -30 83 rrcurveto
          endchar
        </CharString>
        <CharString name="behDotless-ar.init.ain">
          128 369 266 rmoveto
          14 -40 7 -31 -1 -21 -47 -20 -85 -20 -66 -5 -64 -5 -75 5 -13 47 -13 -35 -13 -42 -13 -50 1 -29 27 -15 28 -3 39 -4 45 2 51 6 51 6 44 14 37 20 rrcurveto
          78 40 54 86 12 100 2 16 -3 22 -7 30 -7 30 -3 13 -3 -4 rrcurveto
          endchar
        </CharString>
        <CharString name="behDotless-ar.init.ascend">
          -51 301 245 rmoveto
          -3 2 -17 -46 -26 -29 -34 -12 rlinecurve
          -34 -12 -67 -9 -102 -5 -18 -134 rcurveline
          94 6 67 14 40 23 32 18 24 32 17 43 rrcurveto
          17 43 10 36 30 vvcurveto
          endchar
        </CharString>
        <CharString name="behDotless-ar.init.dal">
          9 355 253 rmoveto
          3 -2 1 -1 -2 vhcurveto
          -31 -85 -144 -53 -93 24 -27 7 -12 36 6 31 rrcurveto
          1 -1 2 -2 -3 vhcurveto
          -43 -56 -35 -111 68 -33 126 -61 188 136 3 163 rrcurveto
          endchar
        </CharString>
        <CharString name="behDotless-ar.init.feh">
          195 433 279 rmoveto
          14 -39 6 -31 -1 -22 -52 -23 -104 -24 -73 -8 -74 -8 -95 -1 -15 52 -13 -35 -13 -42 -13 -50 1 -29 27 -14 28 -3 39 -4 55 2 69 10 114 16 71 27 57 66 rrcurveto
          39 46 23 56 7 64 2 16 -2 22 -7 30 -7 30 -4 13 -3 -4 rrcurveto
          endchar
        </CharString>
        <CharString name="behDotless-ar.init.hah">
          59 1 hmoveto
          73 hlineto
          14 15 15 15 16 14 32 28 38 22 45 15 19 5 20 1 23 -2 11 -2 12 -1 5 9 18 34 14 39 15 37 -5 6 rcurveline
          -30 12 -34 -3 -39 -18 rrcurveto
          -1 hlineto
          -1 -3 -2 -1 -2 hhcurveto
          -54 -22 -46 -30 -39 -37 -39 -37 -28 -30 -18 -24 -18 -24 -10 -15 -2 -5 rrcurveto
          endchar
        </CharString>
        <CharString name="behDotless-ar.init.heh">
          195 377 176 rmoveto
          24 10 28 3 29 -3 11 -2 12 -1 5 9 19 34 13 39 15 37 -5 6 rcurveline
          -24 10 -29 0 -32 -11 -32 -11 -31 -15 -32 -21 -53 -35 -63 -57 -36 -46 -52 -67 -42 -80 -39 -78 -9 -18 rcurveline
          4 30 rlineto
          1 vlineto
          -53 -65 rlineto
          -1 vlineto
          -3 -38 -3 -41 1 -30 6 -17 rlinecurve
          6 -17 13 11 19 40 29 58 23 56 15 36 15 36 27 41 40 47 50 59 57 61 77 30 rrcurveto
          endchar
        </CharString>
        <CharString name="behDotless-ar.init.meem">
          3 288 149 rmoveto
          8 21 12 30 17 38 17 38 -1 25 -21 12 -33 19 -33 1 -31 -17 -66 -36 -54 -73 -37 -69 -20 -37 -15 -30 -10 -21 -8 -18 -6 -12 -2 -7 -2 -7 -2 -5 -1 -1 rrcurveto
          18 hlineto
          14 22 18 28 23 33 23 33 25 27 26 23 26 23 26 12 25 2 25 2 21 -18 18 -38 rrcurveto
          endchar
        </CharString>
        <CharString name="behDotless-ar.init.ragaa">
          314 235 214 rmoveto
          -5 vlineto
          -25 -20 -28 -14 -31 -10 -60 -19 -69 -59 -22 -56 46 -32 rcurveline
          1 2 2 1 2 1 40 29 43 26 45 25 25 14 20 19 17 25 19 29 13 27 8 24 rrcurveto
          12 30 5 31 34 vvcurveto
          1 61 -19 49 -38 37 -63 -111 rcurveline
          19 -29 14 -26 8 -23 rrcurveto
          -1 vlineto
          5 -15 8 -30 2 -14 rrcurveto
          endchar
        </CharString>
        <CharString name="behDotless-ar.init.reh">
          -41 308 229 rmoveto
          -17 -16 -29 -9 -27 -4 -28 -6 -28 -4 -25 -4 -61 -9 -39 -33 -21 -53 -7 -11 -6 -12 -6 -13 rrcurveto
          -1 vlineto
          -15 -18 -4 -16 9 -13 9 -13 10 2 11 17 20 20 25 12 23 4 24 4 30 7 35 9 76 19 34 54 7 87 rrcurveto
          endchar
        </CharString>
        <CharString name="behDotless-ar.init.sad">
          279 520 234 rmoveto
          -2 vlineto
          -63 -30 -74 -36 -83 -19 -91 -17 rlinecurve
          -4 -19 -17 -2 -16 hhcurveto
          -53 -37 20 53 30 14 42 29 57 hvcurveto
          1 2 0 1 1 vvcurveto
          3 -3 0 -2 -2 -1 0 -2 -1 vhcurveto
          -10 -15 -15 -23 -20 -34 -20 -34 -14 -34 -11 -36 rrcurveto
          -7 -22 -4 -22 -20 vvcurveto
          -12 2 -11 2 -11 vhcurveto
          -43 9 51 -14 61 hhcurveto
          27 30 3 6 31 hvcurveto
          50 9 48 16 47 21 82 37 91 59 36 75 rrcurveto
          20 41 10 37 35 vvcurveto
          19 -3 18 -6 17 vhcurveto
          -24 74 -76 -113 rlineto
          10 -29 21 -57 -34 vvcurveto
          endchar
        </CharString>
        <CharString name="behDotless-ar.init.yeh">
          -187 105 87 rmoveto
          -22 -18 -47 -17 -29 -10 -7 -17 rcurveline
          98 -25 19 25 24 41 10 33 rlinecurve
          12 30 6 31 34 vvcurveto
          60 -19 50 -37 37 vhcurveto
          -64 -112 20 -30 15 -26 7 -22 rlinecurve
          5 -14 8 -31 2 -14 rrcurveto
          -1 -2 0 -1 -2 vvcurveto
          endchar
        </CharString>
        <CharString name="behDotless-ar.jalt">
          674 287 7 rmoveto
          49 -6 57 -2 65 3 143 6 130 36 97 58 53 32 39 42 25 51 30 62 7 56 -16 49 rrcurveto
          -24 74 0 0 0 vvcurveto
          -77 -114 10 -28 23 -60 -2 -33 rlinecurve
          0 -1 0 -73 -32 vhcurveto
          -49 -21 -42 -15 -36 -7 -72 -16 -80 -8 -80 -6 -157 -2 -120 36 -85 73 -32 27 -15 24 2 20 2 20 11 18 18 18 61 58 75 42 90 28 90 28 86 14 82 3 53 113 rcurveline
          -79 -3 -72 -10 -64 -17 -143 -37 -114 -57 -80 -102 -79 -101 -26 -123 92 -100 43 -47 76 -30 109 -14 rrcurveto
          endchar
        </CharString>
        <CharString name="behDotless-ar.medi">
          -158 205 24 rmoveto
          1 hlineto
          50 53 28 81 15 47 2 3 -1 21 -5 -11 -7 -17 -17 -24 -25 -11 -53 -23 -147 -14 -25 -2 -21 -127 rcurveline
          58 6 99 16 46 19 -2 -7 -1 -11 5 1 rrcurveto
          endchar
        </CharString>
        <CharString name="behDotless-ar.medi.ain">
          -17 348 25 rmoveto
          25 26 19 31 15 35 15 35 11 30 7 23 rrcurveto
          1 2 0 4 6 vvcurveto
          6 -1 1 -3 -5 vhcurveto
          -10 -22 -14 -17 -19 -10 -24 -13 -41 -11 -58 -7 -58 -7 -42 -5 -25 1 -48 1 -48 10 -11 36 -13 -35 -13 -42 -13 -50 1 -29 27 -15 28 -3 36 -3 48 3 62 8 rrcurveto
          62 8 48 11 34 14 -5 -12 1 -6 6 1 rrcurveto
          endchar
        </CharString>
        <CharString name="behDotless-ar.medi.dal">
          -136 226 35 rmoveto
          -7 -23 16 2 7 12 32 60 34 68 13 43 2 3 1 21 -7 -10 -8 -21 -15 -17 -19 -11 -29 -16 -111 -26 -49 12 rrcurveto
          -26 7 -8 33 30 vvcurveto
          7 1 1 -6 -7 vhcurveto
          -46 -53 -28 -111 67 -33 42 -20 114 37 30 12 rrcurveto
          endchar
        </CharString>
        <CharString name="behDotless-ar.medi.feh">
          31 56 1 rmoveto
          40 -4 58 3 76 11 76 11 54 12 34 14 -4 -12 1 -6 5 1 25 26 20 31 15 35 15 35 11 29 7 23 rrcurveto
          1 2 0 4 6 vvcurveto
          6 -1 1 -4 -5 vhcurveto
          -9 -22 -14 -16 -20 -11 -21 -12 -41 -10 -64 -9 -64 -9 -45 -5 -28 -1 -60 -3 -67 6 -13 43 -13 -35 -13 -42 -13 -50 1 -29 27 -15 28 -3 rrcurveto
          endchar
        </CharString>
        <CharString name="behDotless-ar.medi.hah">
          88 12 2 rmoveto
          23 36 18 30 14 21 14 21 25 27 37 30 35 29 38 22 41 15 30 12 21 -21 9 -18 5 -16 11 -8 17 1 rrcurveto
          4 7 3 2 8 hvcurveto
          62 134 -33 -5 rlineto
          -2 -1 0 1 -2 hvcurveto
          15 -12 -9 28 -27 hhcurveto
          -26 -28 -7 -14 -31 hvcurveto
          -59 -28 -58 -49 -43 -45 -26 -26 -23 -28 -21 -26 -13 -32 -14 -63 -3 -38 rrcurveto
          -6 9 0 3 3 vhcurveto
          endchar
        </CharString>
        <CharString name="behDotless-ar.medi.heh">
          208 237 76 rmoveto
          36 39 52 50 54 15 23 6 18 -9 12 -24 4 -16 10 -8 18 1 6 1 7 2 6 2 62 134 rcurveline
          -33 -5 -5 2 -25 31 -27 14 -30 -4 rlinecurve
          -30 -4 -30 -12 -29 -21 -29 -21 -26 -26 -25 -29 -25 -29 -20 -24 -15 -19 -52 -67 -42 -80 -39 -78 -9 -18 rcurveline
          4 30 rlineto
          1 vlineto
          -53 -65 rlineto
          -1 vlineto
          -3 -38 -3 -41 1 -30 6 -17 rlinecurve
          6 -17 13 11 19 40 29 58 23 56 15 36 23 54 52 64 51 56 rrcurveto
          endchar
        </CharString>
        <CharString name="behDotless-ar.medi.high">
          -38 223 179 rmoveto
          -50 -21 -55 -14 -60 -11 -58 -133 rcurveline
          28 7 27 7 27 7 106 28 73 67 25 102 17 62 2 57 -11 53 -11 53 -7 25 -2 -3 -76 -113 rcurveline
          18 -69 7 -29 -75 vvcurveto
          endchar
        </CharString>
        <CharString name="behDotless-ar.medi.high2">
          -128 215 293 rmoveto
          9 -114 -47 -20 -56 -12 -56 -10 rlinecurve
          -65 -137 156 50 29 16 24 19 20 22 rlinecurve
          8 -107 74 117 -22 294 rlineto
          endchar
        </CharString>
        <CharString name="behDotless-ar.medi.meem">
          -77 185 141 rmoveto
          27 10 21 -10 14 -29 4 -16 10 -7 18 1 6 1 7 1 6 2 63 135 rcurveline
          -33 -5 -6 1 -18 23 -21 15 -21 5 rlinecurve
          -20 4 -19 -3 -20 -9 -20 -9 -19 -13 -19 -18 -55 -53 -56 -87 -34 -72 30 -8 rcurveline
          39 55 49 60 67 26 rrcurveto
          endchar
        </CharString>
        <CharString name="behDotless-ar.medi.noon">
          -123 304 354 rmoveto
          3 -2 1 -3 -1 vhcurveto
          -4 -2 -3 -3 -3 -7 -14 -34 -39 -32 -64 -28 -62 -27 -51 -10 -41 6 -18 -133 rcurveline
          28 7 27 7 27 7 62 16 48 28 37 43 13 -195 rcurveline
          73 128 -6 74 -7 74 2 78 rlinecurve
          endchar
        </CharString>
        <CharString name="behDotless-ar.medi.ragaa">
          -105 240 114 rmoveto
          4 -16 10 -8 18 1 2 1 8 1 10 3 62 134 rcurveline
          -33 -5 rlineto
          1 -3 -2 1 -1 hhcurveto
          15 -12 -9 27 -27 hhcurveto
          -37 -33 -10 -18 -28 hvcurveto
          -28 -18 -25 -22 -22 -25 -11 -13 -18 -24 -23 -34 -23 -34 -14 -25 -5 -14 47 -32 rcurveline
          1 vlineto
          17 24 20 27 23 30 23 30 23 19 26 10 30 12 22 -21 9 -18 rrcurveto
          endchar
        </CharString>
        <CharString name="behDotless-ar.medi.reh">
          -40 307 31 rmoveto
          2 123 -30 -4 -24 9 4 31 rlinecurve
          1 28 -83 -24 -43 -13 -52 -16 -31 -18 -11 -21 -12 -23 -7 -27 -10 -24 -1 -1 -10 -17 1 -2 -7 -28 22 -17 18 26 11 11 13 10 12 7 21 8 27 7 30 7 rrcurveto
          30 7 14 -1 -1 -11 -5 -31 12 -13 27 4 27 4 28 4 27 5 rrcurveto
          endchar
        </CharString>
        <CharString name="behDotless-ar.medi.sad">
          124 106 333 rmoveto
          -2 -1 -1 -2 -1 hvcurveto
          -10 -15 -15 -23 -20 -34 -20 -34 -14 -34 -11 -36 rrcurveto
          -7 -22 -4 -22 -20 vvcurveto
          -12 2 -11 2 -11 vhcurveto
          -41 9 44 -15 60 hhcurveto
          60 52 8 9 57 hvcurveto
          66 11 85 16 49 21 rrcurveto
          -1 -5 -1 -3 -3 vvcurveto
          -4 1 -2 3 vhcurveto
          25 27 20 30 15 35 15 35 11 30 7 23 rrcurveto
          1 2 0 3 6 vvcurveto
          4 0 2 -1 -1 -1 -2 -2 -2 vhcurveto
          -9 -21 -14 -17 -20 -11 rrcurveto
          -32 -92 -129 -31 -120 hhcurveto
          -57 -38 8 35 -21 hvcurveto
          -5 8 -3 11 12 vvcurveto
          29 13 41 27 52 vhcurveto
          1 2 0 1 1 vvcurveto
          3 -3 1 -2 vhcurveto
          endchar
        </CharString>
        <CharString name="behDotless-ar.medi.yeh">
          -106 281 264 rmoveto
          1 1 -8 4 -11 1 -14 -2 rlinecurve
          -45 -5 -40 -18 -33 -32 -58 -55 -45 -67 -28 -84 21 -7 rcurveline
          39 55 50 60 67 26 11 4 10 1 10 -4 rrcurveto
          -1 vlineto
          13 -4 11 -10 7 -15 4 -16 11 -7 17 1 5 1 7 1 8 2 62 135 rcurveline
          -34 -5 rlineto
          0 -1 0 -4 1 vhcurveto
          -10 12 -7 19 -15 8 rrcurveto
          endchar
        </CharString>
        <CharString name="beta">
          166 325 392 rmoveto
          65 25 58 71 75 vvcurveto
          75 -61 60 -75 -106 -71 -57 -81 -38 vhcurveto
          -22 -47 -8 -78 -2 -51 -8 -190 4 -191 -5 -190 12 -15 rcurveline
          76 33 rlineto
          -7 125 -2 126 126 vvcurveto
          186 -6 64 22 87 vhcurveto
          61 15 35 45 68 hhcurveto
          60 41 -55 -56 -106 -80 -48 -89 hvcurveto
          -2 -36 rlineto
          2 21 21 0 21 hhcurveto
          98 67 -57 -101 -74 -36 -99 -84 -38 -34 31 38 hvcurveto
          7 vlineto
          -13 6 -49 -69 rlineto
          -35 20 36 -14 38 hhcurveto
          129 116 79 138 48 -20 50 -34 35 hvcurveto
          -30 31 -55 12 -49 2 rrcurveto
          endchar
        </CharString>
        <CharString name="braceleft">
          -51 303 -154 rmoveto
          -97 -36 2 182 91 7 120 -92 32 hvcurveto
          1 vlineto
          64 23 21 88 133 vvcurveto
          66 -4 101 50 13 vhcurveto
          7 27 31 1 29 hhcurveto
          24 vlineto
          -160 -24 -1 -215 -93 6 -88 -32 -28 hvcurveto
          -19 -22 -24 -1 -39 hhcurveto
          -26 vlineto
          31 37 -2 -21 19 hvcurveto
          25 -28 0 -105 -69 vvcurveto
          -101 -8 -85 75 -20 vhcurveto
          -6 24 53 0 39 hhcurveto
          endchar
        </CharString>
        <CharString name="braceright">
          -51 10 -175 rmoveto
          149 34 -1 213 104 -3 101 61 15 hvcurveto
          17 4 19 2 18 -1 rrcurveto
          26 vlineto
          -107 -4 36 193 114 6 30 -32 40 hvcurveto
          -27 34 -53 -3 -78 1 rrcurveto
          -24 vlineto
          62 50 4 -74 15 hvcurveto
          12 -79 -10 -81 11 -81 9 -68 32 -40 37 -13 rrcurveto
          -1 vlineto
          -92 -33 7 -123 -87 vvcurveto
          -67 3 -98 -56 -13 vhcurveto
          -6 -23 -30 0 -27 hhcurveto
          endchar
        </CharString>
        <CharString name="bracketleft">
          -106 247 736 rmoveto
          -54 -66 0 5 -39 hvcurveto
          -866 vlineto
          5 52 53 0 54 hhcurveto
          24 vlineto
          -119 13 rlineto
          782 vlineto
          119 13 rlineto
          endchar
        </CharString>
        <CharString name="bracketright">
          -106 130 -83 rmoveto
          -119 -13 rlineto
          -24 vlineto
          54 53 0 -5 52 hvcurveto
          866 vlineto
          -5 -39 -66 0 -54 hhcurveto
          -24 vlineto
          119 -13 rlineto
          endchar
        </CharString>
        <CharString name="brokenbar">
          -156 124 738 rmoveto
          -40 -8 rlineto
          -403 vlineto
          40 8 rlineto
          -91 vmoveto
          -40 -8 rlineto
          -403 vlineto
          40 8 rlineto
          endchar
        </CharString>
        <CharString name="bullet">
          -32 69 265 rmoveto
          -54 43 -43 54 54 43 43 54 54 -43 43 -54 -54 -43 -43 -54 vhcurveto
          endchar
        </CharString>
        <CharString name="c">
          91 425 116 rmoveto
          -38 -44 -50 -31 -59 hhcurveto
          -117 -24 115 86 88 45 100 85 43 33 -39 -67 9 hvcurveto
          17 -6 54 53 rlineto
          57 -6 -45 41 -65 hhcurveto
          -148 -105 -108 -150 -99 10 -137 163 89 73 54 61 62 hvcurveto
          -11 18 rlineto
          endchar
        </CharString>
        <CharString name="ccedilla">
          91 180 -122 rmoveto
          37 -11 50 -31 -28 -38 -14 -18 -32 -14 -26 -10 -5 -10 rcurveline
          6 -15 55 10 70 18 33 44 rlinecurve
          26 36 -9 36 -23 28 -19 23 -40 18 -13 5 15 36 rcurveline
          71 14 59 46 52 51 -11 18 rcurveline
          -9 2 rlineto
          -38 -44 -50 -31 -59 hhcurveto
          -117 -24 115 86 88 45 100 85 43 33 -39 -67 9 hvcurveto
          17 -6 54 53 rlineto
          57 -6 -45 41 -65 hhcurveto
          -148 -105 -108 -150 -99 10 -137 163 hvcurveto
          1 2 0 1 hhcurveto
          endchar
        </CharString>
        <CharString name="cedilla">
          156 188 -112 rmoveto
          37 -11 50 -31 -28 -38 -14 -18 -32 -14 -26 -10 -5 -10 rcurveline
          6 -15 55 10 70 18 33 44 rlinecurve
          26 36 -9 36 -23 28 -19 23 -40 18 -13 5 20 47 rcurveline
          -36 hlineto
          endchar
        </CharString>
        <CharString name="cedillacomb">
          -72 -112 rmoveto
          37 -11 50 -31 -28 -38 -14 -18 -32 -14 -26 -10 -5 -10 rcurveline
          6 -15 55 10 70 18 33 44 rlinecurve
          26 36 -9 36 -23 28 -19 23 -40 18 -13 5 20 47 rcurveline
          -36 hlineto
          endchar
        </CharString>
        <CharString name="cent">
          97 418 116 rmoveto
          -38 -44 -50 -31 -59 hhcurveto
          -2 388 hlineto
          39 -5 29 -38 8 -62 17 -6 rcurveline
          54 53 rlineto
          57 -6 -45 41 -65 hhcurveto
          -11 -10 -1 -1 -10 hvcurveto
          169 vlineto
          -40 -8 rlineto
          -168 vlineto
          -109 -29 -73 -95 -125 vvcurveto
          -99 10 -137 163 vhcurveto
          3 3 0 3 hhcurveto
          -148 vlineto
          40 8 rlineto
          146 vlineto
          67 15 58 45 50 49 -11 18 rcurveline
          -303 134 rmoveto
          77 34 85 65 21 vhcurveto
          -378 vlineto
          -81 24 -18 96 75 vvcurveto
          endchar
        </CharString>
        <CharString name="chi">
          161 284 206 rmoveto
          -90 192 rlineto
          30 -14 -23 38 -37 hhcurveto
          -25 -25 -8 -15 -19 hvcurveto
          -63 -48 15 -21 rlineto
          15 19 28 22 18 hhcurveto
          29 22 -34 -28 14 hvcurveto
          35 -72 74 -142 -1 vvcurveto
          -74 -96 -69 -99 -68 -100 50 -30 rcurveline
          17 6 36 91 60 89 58 88 rlinecurve
          10 hlineto
          -147 62 42 -133 66 hhcurveto
          41 54 32 25 43 hvcurveto
          -8 23 rlineto
          -11 -21 -24 -4 -24 hhcurveto
          -62 -70 170 118 -53 hvcurveto
          15 21 17 19 16 19 179 206 rcurveline
          -1 7 -33 32 -20 -4 -187 -250 rlineto
          endchar
        </CharString>
        <CharString name="circumflex">
          136 103 511 rmoveto
          23 -12 143 131 121 -124 39 26 -157 160 rlineto
          endchar
        </CharString>
        <CharString name="circumflexcomb">
          -163 511 rmoveto
          23 -12 143 131 121 -124 39 26 -157 160 rlineto
          endchar
        </CharString>
        <CharString name="colon">
          -180 35 398 rmoveto
          -31 26 -26 32 31 25 26 31 31 -25 26 -31 -32 -26 -26 -31 vhcurveto
          -353 vmoveto
          -31 26 -26 32 31 25 26 31 31 -25 26 -31 -32 -26 -26 -31 vhcurveto
          endchar
        </CharString>
        <CharString name="comma">
          -131 77 -210 rmoveto
          71 82 33 51 50 vvcurveto
          35 -35 130 -53 -25 -34 -22 -26 -10 3 -11 4 -5 vhcurveto
          70 -83 rlineto
          9 -11 4 -17 -14 vvcurveto
          -40 -31 -49 -35 -46 vhcurveto
          endchar
        </CharString>
        <CharString name="comma-ar">
          -86 127 hmoveto
          60 29 52 91 4 hvcurveto
          8 -8 6 -7 -7 vhcurveto
          -103 -99 8 172 23 85 17 64 9 37 2 10 -31 -30 rcurveline
          -33 -94 -28 -95 -7 -72 rrcurveto
          -77 -8 32 -51 41 hhcurveto
          endchar
        </CharString>
        <CharString name="comma-ar.alt">
          -86 127 219 rmoveto
          -41 -32 -51 -77 8 hvcurveto
          7 -72 28 -95 33 -94 31 -30 rcurveline
          -2 10 -9 37 -17 64 -23 85 -8 172 103 -99 rrcurveto
          7 -7 8 6 8 vvcurveto
          91 -4 -29 52 -60 hhcurveto
          endchar
        </CharString>
        <CharString name="copyright">
          268 45 437 rmoveto
          -150 121 -121 150 150 121 121 150 150 -121 121 -150 -150 -121 -121 -150 vhcurveto
          25 hmoveto
          136 110 110 136 136 110 -110 -136 -136 -110 -110 -136 -136 -110 110 136 vhcurveto
          413 126 rmoveto
          42 -31 -46 14 -52 hhcurveto
          -63 -60 -18 -36 -44 hvcurveto
          -42 -35 -13 -49 -48 vvcurveto
          -49 16 -49 42 -35 vhcurveto
          -28 34 49 -10 48 hhcurveto
          52 48 22 24 43 hvcurveto
          -10 14 rlineto
          -19 -34 -37 -15 -41 hhcurveto
          -49 -26 14 28 -33 hvcurveto
          -20 16 -28 50 46 vvcurveto
          44 11 49 36 31 vhcurveto
          22 26 38 11 36 hhcurveto
          49 39 -20 -45 20 hvcurveto
          8 hlineto
          endchar
        </CharString>
        <CharString name="currency">
          226 75 484 rmoveto
          49 -49 rlineto
          -30 -34 -12 -36 -52 vvcurveto
          -50 12 -35 30 -38 vhcurveto
          -49 -49 45 -45 48 48 rlineto
          -30 37 37 -12 53 hhcurveto
          53 37 12 30 37 hvcurveto
          48 -48 45 45 -49 49 rlineto
          30 38 12 35 50 vvcurveto
          52 -12 36 -30 34 vhcurveto
          49 49 -47 47 -48 -48 rlineto
          28 -38 -39 13 -48 hhcurveto
          -48 -40 -13 -28 -37 hvcurveto
          -48 48 rlineto
          176 -66 rmoveto
          81 70 -70 -82 -84 -69 -68 -85 -85 -69 68 85 83 70 68 87 hvcurveto
          endchar
        </CharString>
        <CharString name="d">
          187 269 638 rmoveto
          33 47 -1 -35 11 hvcurveto
          7 -26 -1 -72 1 -53 -7 -4 rcurveline
          9 -27 -27 6 -29 hhcurveto
          -162 -75 -142 -140 -89 35 -109 114 59 64 37 35 51 hvcurveto
          -35 2 18 -38 39 hhcurveto
          39 51 36 27 39 hvcurveto
          -8 23 rlineto
          -8 -20 -31 -11 -10 hhcurveto
          -30 -6 33 29 -2 hvcurveto
          565 vlineto
          -8 9 -163 -20 -5 -4 rlineto
          95 -565 rmoveto
          -27 -27 -56 -20 -35 hhcurveto
          -90 -28 85 70 94 34 131 112 83 11 -64 -54 hvcurveto
          endchar
        </CharString>
        <CharString name="dad-ar">
          517 689 794 rmoveto
          -71 66 -27 -34 -28 -35 -27 -34 rlinecurve
          71 -66 28 34 27 34 27 35 rlinecurve
          -340 -668 rmoveto
          34 49 25 56 12 58 33 5 49 10 40 10 87 22 90 51 53 71 34 45 45 59 -42 50 -34 40 -77 -20 -31 -29 rrcurveto
          -110 -105 -71 -86 0 vvcurveto
          -59 -13 3 32 -33 73 -54 -125 rcurveline
          14 -44 13 -45 -2 -56 -64 -59 -124 -59 -93 33 -105 37 86 143 31 69 9 24 -13 4 -8 -16 -256 -466 372 -29 146 211 rrcurveto
          372 373 rmoveto
          4 -8 6 -13 -11 -5 -57 -27 -68 -14 -70 -14 36 37 34 39 47 25 28 15 39 -13 12 -22 rrcurveto
          endchar
        </CharString>
        <CharString name="dal-ar">
          3 242 311 rmoveto
          14 -40 18 -55 -1 -26 -50 -22 -89 -24 -60 -11 -74 -133 rcurveline
          56 15 105 22 46 24 29 15 25 22 21 24 rrcurveto
          122 145 -85 158 0 vvcurveto
          endchar
        </CharString>
        <CharString name="dal-ar.fina">
          26 374 164 rmoveto
          -5 -5 -2 -4 -4 hvcurveto
          -14 -13 -17 -8 -18 -3 -99 -16 -109 -1 -93 -23 rrcurveto
          -7 -2 -3 -3 -3 vvcurveto
          -2 1 -1 2 -2 vhcurveto
          8 -7 25 -13 42 -18 42 -18 26 -10 11 -3 rrcurveto
          -8 25 24 -4 21 hhcurveto
          45 24 18 38 25 hvcurveto
          15 24 18 26 22 16 rrcurveto
          8 3 6 10 12 vvcurveto
          9 -5 8 -11 vhcurveto
          endchar
        </CharString>
        <CharString name="damma-ar">
          79 80 rmoveto
          7 22 4 18 14 vvcurveto
          23 -8 18 -20 -5 -5 -2 -2 -5 vhcurveto
          -22 -9 -32 -33 -29 vvcurveto
          -28 28 -15 19 -11 vhcurveto
          -6 -6 -8 -7 -10 -7 -41 -29 -51 -32 -42 -27 rrcurveto
          -7 -4 -2 -2 -1 vvcurveto
          6 1 81 20 55 27 43 58 rlinecurve
          7 -5 6 -1 5 -7 rrcurveto
          8 12 7 11 14 vvcurveto
          1 vlineto
          -1 9 -5 5 -6 4 rrcurveto
          -37 54 rmoveto
          3 hlineto
          12 5 -11 -14 -6 0 -6 -2 -8 hvcurveto
          -10 5 -27 10 14 vvcurveto
          9 11 6 8 1 vhcurveto
          endchar
        </CharString>
        <CharString name="dammainverted-ar">
          -36 26 rmoveto
          -7 -22 -4 -18 -14 vvcurveto
          -23 8 -18 20 5 5 2 2 5 vhcurveto
          22 9 32 33 29 vvcurveto
          28 -28 15 -19 11 vhcurveto
          6 6 8 7 10 7 41 29 51 32 42 27 rrcurveto
          7 4 2 2 1 vvcurveto
          -6 -1 -81 -20 -55 -27 -43 -58 rlinecurve
          -7 5 -6 1 -5 7 rrcurveto
          -8 -12 -7 -11 -14 vvcurveto
          -1 vlineto
          1 -9 5 -5 6 -4 rrcurveto
          37 -54 rmoveto
          -3 hlineto
          -12 -5 11 14 6 0 6 2 8 hvcurveto
          10 -5 27 -10 -14 vvcurveto
          -9 -11 -6 -8 -1 vhcurveto
          endchar
        </CharString>
        <CharString name="dammainverted-ar.urd">
          53 -9 rmoveto
          7 22 2 16 -1 9 -2 12 -6 1 -7 -8 -3 -2 -2 -3 -3 -4 rrcurveto
          -18 -12 -12 -8 -11 hhcurveto
          -9 3 -7 5 -4 7 rrcurveto
          1 hlineto
          -4 11 -1 19 2 15 8 42 18 58 18 33 3 7 3 5 1 2 1 4 0 2 -2 -2 -3 -1 -2 -2 -2 -2 -22 -25 -15 -25 -15 -39 -21 -54 -9 -32 8 -69 rrcurveto
          -27 3 15 -13 28 hhcurveto
          24 20 20 41 13 hvcurveto
          endchar
        </CharString>
        <CharString name="dammatan-ar">
          47 280 rmoveto
          -79 -25 -65 -52 -33 -72 -19 -32 -5 -53 29 -24 24 -20 32 9 22 15 23 49 rcurveline
          -22 -12 -60 -24 -7 42 -2 8 1 9 4 10 11 24 19 22 20 18 29 26 39 30 44 9 52 11 23 -15 -12 -52 rrcurveto
          -2 -6 0 -4 -2 vvcurveto
          1 -5 6 5 2 3 11 12 9 16 3 20 10 63 -57 12 -51 -15 rrcurveto
          32 -200 rmoveto
          7 22 4 18 14 vvcurveto
          23 -8 18 -20 -5 -5 -2 -2 -5 vhcurveto
          -22 -9 -32 -33 -29 vvcurveto
          -28 28 -15 19 -11 vhcurveto
          -6 -6 -8 -7 -10 -7 -41 -29 -51 -32 -42 -27 rrcurveto
          -7 -4 -2 -2 -1 vvcurveto
          6 1 81 20 55 27 43 58 rlinecurve
          7 -5 6 -1 5 -7 rrcurveto
          8 12 7 11 14 vvcurveto
          1 vlineto
          -1 9 -5 5 -6 4 rrcurveto
          -37 54 rmoveto
          3 hlineto
          12 5 -11 -14 -6 0 -6 -2 -8 hvcurveto
          -10 5 -27 10 14 vvcurveto
          9 11 6 8 1 vhcurveto
          endchar
        </CharString>
        <CharString name="ddal-ar">
          3 207 705 rmoveto
          8 -125 29 46 -8 125 rlineto
          82 -159 rmoveto
          13 18 18 15 -16 20 -13 16 -30 -9 -12 -11 -25 -24 -23 -25 -23 -26 -34 -6 -38 -3 -40 1 rrcurveto
          -2 -2 -4 -1 2 hvcurveto
          29 -17 15 -15 25 -2 11 -1 13 1 17 4 51 13 38 21 26 35 rrcurveto
          -19 9 rmoveto
          2 -3 2 -6 -4 -2 -22 -11 -27 -5 -27 -5 14 14 13 15 18 10 11 6 15 -4 5 -9 rrcurveto
          -57 -290 rmoveto
          14 -40 18 -55 -1 -26 -50 -22 -89 -24 -60 -11 -74 -133 rcurveline
          56 15 105 22 46 24 29 15 25 22 21 24 rrcurveto
          122 145 -85 158 0 vvcurveto
          endchar
        </CharString>
        <CharString name="degree">
          -32 69 575 rmoveto
          -54 43 -43 54 54 43 43 54 54 -43 43 -54 -54 -43 -43 -54 vhcurveto
          30 hmoveto
          37 30 30 37 37 30 -30 -37 -37 -30 -30 -37 -37 -30 30 37 vhcurveto
          endchar
        </CharString>
        <CharString name="delta">
          59 349 687 rmoveto
          4 -29 -24 3 -27 hhcurveto
          -73 -63 -21 -71 -35 hvcurveto
          -6 -12 -5 -12 -13 vvcurveto
          -38 54 -50 38 -35 vhcurveto
          -77 -77 -81 -102 -103 vvcurveto
          -82 44 -87 104 131 103 131 129 55 -30 50 -38 39 vhcurveto
          -95 91 rlineto
          -80 76 -25 16 27 vvcurveto
          32 32 9 33 66 38 -7 -2 35 vhcurveto
          15 42 rlineto
          -151 -257 rmoveto
          60 -60 76 -81 -72 vvcurveto
          -83 -45 -82 -75 -85 -36 96 72 76 35 62 70 72 vhcurveto
          endchar
        </CharString>
        <CharString name="dieresis">
          156 420 595 rmoveto
          30 -20 28 -34 -29 -35 -22 -34 -32 26 -26 32 32 26 23 33 2 vhcurveto
          -202 hmoveto
          30 -20 28 -34 -29 -35 -22 -34 -32 26 -26 32 32 26 23 33 2 vhcurveto
          endchar
        </CharString>
        <CharString name="dieresiscomb">
          160 595 rmoveto
          30 -20 28 -34 -29 -35 -22 -34 -32 26 -26 32 32 26 23 33 2 vhcurveto
          -202 hmoveto
          30 -20 28 -34 -29 -35 -22 -34 -32 26 -26 32 32 26 23 33 2 vhcurveto
          endchar
        </CharString>
        <CharString name="divide">
          460 471 514 rmoveto
          30 -20 28 -34 -29 -35 -22 -34 -32 26 -26 32 32 26 23 33 2 vhcurveto
          273 -238 rmoveto
          -657 hlineto
          -7 -40 rlineto
          658 hlineto
          -267 -238 rmoveto
          30 -20 28 -34 -29 -35 -22 -34 -32 26 -26 32 32 26 23 33 2 vhcurveto
          endchar
        </CharString>
        <CharString name="dollar">
          112 439 593 rmoveto
          79 -42 -57 12 -69 -1 -1 0 -1 hhcurveto
          114 vlineto
          -40 -8 rlineto
          -110 vlineto
          -86 -14 -73 -60 -102 vvcurveto
          -89 54 -47 105 -46 vhcurveto
          -275 vlineto
          -2 -2 0 -2 hhcurveto
          -67 -39 49 66 -20 hvcurveto
          -16 1 -55 -63 rlineto
          -69 27 64 -28 66 hhcurveto
          15 16 1 3 15 hvcurveto
          -114 vlineto
          40 8 rlineto
          116 vlineto
          93 29 81 74 96 vvcurveto
          76 -52 51 -100 44 vhcurveto
          -7 3 -8 4 -7 3 rrcurveto
          251 vlineto
          54 -7 29 -41 15 -57 13 -3 rcurveline
          -234 -3 rmoveto
          54 34 45 49 11 vhcurveto
          -229 vlineto
          -47 29 -36 37 53 vvcurveto
          213 -351 rmoveto
          -63 -38 -49 -52 -19 vhcurveto
          247 vlineto
          48 -27 42 -44 -45 vvcurveto
          endchar
        </CharString>
        <CharString name="dotabove-ar">
          79 13 rmoveto
          -71 66 -27 -34 -28 -35 -27 -34 rlinecurve
          71 -66 28 34 27 34 27 35 rlinecurve
          endchar
        </CharString>
        <CharString name="dotbelow-ar">
          79 13 rmoveto
          -71 66 -27 -34 -28 -35 -27 -34 rlinecurve
          71 -66 28 34 27 34 27 35 rlinecurve
          endchar
        </CharString>
        <CharString name="dotlessi">
          -41 192 392 rmoveto
          44 -17 35 -45 -39 -56 -39 -36 -45 vhcurveto
          13 -18 rlineto
          15 24 34 17 22 hhcurveto
          26 9 -33 -52 hvcurveto
          -6 -221 rlineto
          -99 37 -13 43 55 52 52 45 34 vhcurveto
          11 vlineto
          -13 10 rlineto
          -24 -27 -27 -21 -38 hhcurveto
          -35 -9 43 74 hvcurveto
          endchar
        </CharString>
        <CharString name="dotlessj">
          -76 18 375 rmoveto
          13 25 35 20 16 hhcurveto
          36 8 -12 -242 -44 -3 -124 -17 -62 hvcurveto
          -14 -50 -40 -45 -74 -44 16 -16 rcurveline
          90 43 76 60 30 87 rrcurveto
          12 35 0 140 20 vvcurveto
          37 0 167 -7 43 vhcurveto
          33 -3 -10 34 -48 hhcurveto
          -43 -57 -43 -32 -41 hvcurveto
          endchar
        </CharString>
        <CharString name="dul-ar">
          3 380 636 rmoveto
          -10 19 -11 16 -14 13 -49 46 -46 -45 -41 -55 -41 -56 -38 -66 -17 -33 -1 -1 rcurveline
          1 -44 25 34 94 211 60 -147 rlinecurve
          6 -15 5 5 4 5 27 35 26 37 20 41 rrcurveto
          -138 -325 rmoveto
          14 -40 18 -55 -1 -26 -50 -22 -89 -24 -60 -11 -74 -133 rcurveline
          56 15 105 22 46 24 29 15 25 22 21 24 rrcurveto
          122 145 -85 158 0 vvcurveto
          endchar
        </CharString>
        <CharString name="e">
          98 438 340 rmoveto
          77 -56 61 -86 -76 -72 -33 -57 -49 vhcurveto
          -39 -45 -12 -59 -58 vvcurveto
          -113 32 -125 134 86 80 58 58 62 vhcurveto
          -13 18 -11 2 rlineto
          -35 -45 -54 -33 -55 hhcurveto
          -89 -34 78 63 -6 hvcurveto
          282 122 rlineto
          11 5 10 4 12 vvcurveto
          -177 98 rmoveto
          56 35 -52 -42 -16 -7 -8 -6 -2 hvcurveto
          -202 -80 -4 4 rlineto
          -1 6 -1 6 6 vvcurveto
          49 7 45 39 42 vhcurveto
          26 21 30 16 33 hhcurveto
          endchar
        </CharString>
        <CharString name="eacute">
          74 354 714 rmoveto
          -47 36 -13 -2 -120 -157 18 -31 rlineto
          246 -220 rmoveto
          77 -56 61 -86 -76 -72 -33 -57 -49 vhcurveto
          -39 -45 -12 -59 -58 vvcurveto
          -113 32 -125 134 86 80 58 58 62 vhcurveto
          -13 18 -11 2 rlineto
          -35 -45 -54 -33 -55 hhcurveto
          -89 -34 78 63 -6 hvcurveto
          282 122 rlineto
          11 5 10 4 12 vvcurveto
          -177 98 rmoveto
          56 35 -52 -42 -16 -7 -8 -6 -2 hvcurveto
          -202 -80 -4 4 rlineto
          -1 6 -1 6 6 vvcurveto
          49 7 45 39 42 vhcurveto
          26 21 30 16 33 hhcurveto
          endchar
        </CharString>
        <CharString name="ecircumflex">
          74 76 561 rmoveto
          23 -12 143 131 121 -124 39 26 -157 160 rlineto
          193 -402 rmoveto
          77 -56 61 -86 -76 -72 -33 -57 -49 vhcurveto
          -39 -45 -12 -59 -58 vvcurveto
          -113 32 -125 134 86 80 58 58 62 vhcurveto
          -13 18 -11 2 rlineto
          -35 -45 -54 -33 -55 hhcurveto
          -89 -34 78 63 -6 hvcurveto
          282 122 rlineto
          11 5 10 4 12 vvcurveto
          -177 98 rmoveto
          56 35 -52 -42 -16 -7 -8 -6 -2 hvcurveto
          -202 -80 -4 4 rlineto
          -1 6 -1 6 6 vvcurveto
          49 7 45 39 42 vhcurveto
          26 21 30 16 33 hhcurveto
          endchar
        </CharString>
        <CharString name="edieresis">
          74 399 615 rmoveto
          30 -20 28 -34 -29 -35 -22 -34 -32 26 -26 32 32 26 23 33 2 vhcurveto
          -202 hmoveto
          30 -20 28 -34 -29 -35 -22 -34 -32 26 -26 32 32 26 23 33 2 vhcurveto
          241 -275 rmoveto
          77 -56 61 -86 -76 -72 -33 -57 -49 vhcurveto
          -39 -45 -12 -59 -58 vvcurveto
          -113 32 -125 134 86 80 58 58 62 vhcurveto
          -13 18 -11 2 rlineto
          -35 -45 -54 -33 -55 hhcurveto
          -89 -34 78 63 -6 hvcurveto
          282 122 rlineto
          11 5 10 4 12 vvcurveto
          -177 98 rmoveto
          56 35 -52 -42 -16 -7 -8 -6 -2 hvcurveto
          -202 -80 -4 4 rlineto
          -1 6 -1 6 6 vvcurveto
          49 7 45 39 42 vhcurveto
          26 21 30 16 33 hhcurveto
          endchar
        </CharString>
        <CharString name="egrave">
          74 109 716 rmoveto
          162 -154 18 31 -120 157 -13 2 rlineto
          282 -412 rmoveto
          77 -56 61 -86 -76 -72 -33 -57 -49 vhcurveto
          -39 -45 -12 -59 -58 vvcurveto
          -113 32 -125 134 86 80 58 58 62 vhcurveto
          -13 18 -11 2 rlineto
          -35 -45 -54 -33 -55 hhcurveto
          -89 -34 78 63 -6 hvcurveto
          282 122 rlineto
          11 5 10 4 12 vvcurveto
          -177 98 rmoveto
          56 35 -52 -42 -16 -7 -8 -6 -2 hvcurveto
          -202 -80 -4 4 rlineto
          -1 6 -1 6 6 vvcurveto
          49 7 45 39 42 vhcurveto
          26 21 30 16 33 hhcurveto
          endchar
        </CharString>
        <CharString name="eight">
          136 312 396 rmoveto
          60 37 63 63 72 vvcurveto
          82 -70 56 -102 vhcurveto
          -9 hlineto
          -81 -32 -84 -46 -98 vvcurveto
          -71 57 -58 55 -38 vhcurveto
          -11 vlineto
          -108 -63 -53 -39 -93 vvcurveto
          -45 10 -45 32 -32 vhcurveto
          -35 35 54 -10 48 hhcurveto
          119 123 78 129 80 -43 36 -106 72 hvcurveto
          -33 27 rmoveto
          -53 37 -60 54 59 vvcurveto
          39 11 28 46 30 vhcurveto
          85 43 -66 -50 -53 -30 -49 -42 -29 hvcurveto
          -41 -78 rmoveto
          82 -52 54 -39 -75 vvcurveto
          -79 -46 -57 -83 -79 -43 75 70 77 46 44 69 36 vhcurveto
          endchar
        </CharString>
        <CharString name="eight-ar">
          12 351 139 rmoveto
          -65 138 -63 135 -30 169 -2 8 -11 -9 -3 -5 -15 -27 -2 -38 -8 -32 -32 -123 -34 -117 -50 -103 rrcurveto
          -48 -5 -45 -7 -41 vhcurveto
          3 -1 2 0 1 3 50 114 47 120 36 134 36 -117 52 -133 58 -121 15 47 15 48 12 44 rrcurveto
          endchar
        </CharString>
        <CharString name="eight-ar.dnom">
          -99 247 97 rmoveto
          -46 97 -44 94 -21 119 -1 5 -8 -6 -2 -3 -11 -19 -1 -27 -6 -22 -22 -87 -24 -81 -35 -72 rrcurveto
          -34 -3 -32 -5 -28 vhcurveto
          2 -1 1 0 1 2 35 80 33 84 25 94 25 -82 37 -93 40 -85 11 33 10 34 9 30 rrcurveto
          endchar
        </CharString>
        <CharString name="eight-ar.numr">
          -99 247 366 rmoveto
          -46 97 -44 94 -21 119 -1 5 -8 -6 -2 -3 -11 -19 -1 -27 -6 -22 -22 -86 -24 -82 -35 -72 rrcurveto
          -34 -3 -32 -5 -28 vhcurveto
          2 -1 1 0 1 2 35 80 33 84 25 94 25 -82 37 -93 40 -85 11 33 10 34 9 30 rrcurveto
          endchar
        </CharString>
        <CharString name="eight.dnom">
          12 230 231 rmoveto
          7 vlineto
          40 22 44 38 43 vvcurveto
          50 -49 33 -68 vhcurveto
          -6 hlineto
          -54 -19 -58 -27 -60 vvcurveto
          -43 38 -34 38 -23 vhcurveto
          -7 vlineto
          -72 -37 -37 -24 -56 vvcurveto
          -27 6 -27 22 -19 vhcurveto
          -21 23 38 -6 32 hhcurveto
          81 83 47 77 49 -30 20 -71 44 hvcurveto
          -22 16 rmoveto
          -36 22 -41 33 35 vvcurveto
          23 8 17 31 18 vhcurveto
          58 29 -39 -30 -32 -20 -30 -29 -17 hvcurveto
          -28 -47 rmoveto
          55 -31 37 -24 -44 vvcurveto
          -49 -33 -33 -54 -53 -30 44 43 47 32 25 46 22 vhcurveto
          endchar
        </CharString>
        <CharString name="eight.numr">
          12 230 506 rmoveto
          7 vlineto
          40 22 44 38 43 vvcurveto
          50 -49 33 -68 vhcurveto
          -6 hlineto
          -54 -19 -58 -27 -60 vvcurveto
          -43 38 -34 38 -23 vhcurveto
          -7 vlineto
          -72 -37 -37 -24 -56 vvcurveto
          -27 6 -27 22 -19 vhcurveto
          -21 23 38 -6 32 hhcurveto
          81 83 47 77 49 -30 20 -71 44 hvcurveto
          -22 16 rmoveto
          -36 22 -41 33 35 vvcurveto
          23 8 17 31 18 vhcurveto
          58 29 -39 -30 -32 -20 -30 -29 -17 hvcurveto
          -28 -47 rmoveto
          55 -31 37 -24 -44 vvcurveto
          -49 -33 -33 -54 -53 -30 44 43 47 32 25 46 22 vhcurveto
          endchar
        </CharString>
        <CharString name="ellipsis">
          636 71 82 rmoveto
          -5 -5 -3 -6 -5 vvcurveto
          -4 2 -4 3 -4 vhcurveto
          43 -50 rlineto
          -5 4 5 -1 5 hhcurveto
          3 4 2 7 7 hvcurveto
          39 43 rlineto
          5 5 2 5 5 vvcurveto
          4 -2 6 -4 5 vhcurveto
          -39 42 rlineto
          5 -6 -5 2 -4 hhcurveto
          -5 -4 -1 -5 -5 hvcurveto
          293 -41 rmoveto
          -5 -5 -3 -6 -5 vvcurveto
          -4 2 -4 3 -4 vhcurveto
          43 -50 rlineto
          -5 4 5 -1 5 hhcurveto
          3 5 2 7 7 hvcurveto
          39 43 rlineto
          5 5 2 5 5 vvcurveto
          4 -2 6 -4 5 vhcurveto
          -39 42 rlineto
          5 -6 -6 2 -4 hhcurveto
          -5 -4 -1 -5 -5 hvcurveto
          294 -41 rmoveto
          -5 -5 -3 -6 -5 vvcurveto
          -4 2 -4 3 -4 vhcurveto
          43 -50 rlineto
          -5 4 5 -1 5 hhcurveto
          3 4 2 7 7 hvcurveto
          39 43 rlineto
          5 5 2 5 5 vvcurveto
          4 -2 6 -4 5 vhcurveto
          -39 42 rlineto
          5 -6 -5 2 -4 hhcurveto
          -5 -4 -1 -5 -5 hvcurveto
          endchar
        </CharString>
        <CharString name="emdash">
          636 205 vmoveto
          1000 58 -1000 hlineto
          endchar
        </CharString>
        <CharString name="endash">
          177 27 205 rmoveto
          487 58 -487 hlineto
          endchar
        </CharString>
        <CharString name="epsilon">
          6 335 430 rmoveto
          22 -31 -35 19 -39 hhcurveto
          -85 -82 -55 -96 -30 20 -34 23 -14 hvcurveto
          -7 vlineto
          -54 -25 -31 -44 -57 vvcurveto
          -79 74 -45 74 79 72 40 57 53 vhcurveto
          -8 14 -9 2 rlineto
          -32 -39 -48 -28 -46 hhcurveto
          -64 -68 40 73 54 48 27 45 16 15 -1 -4 15 hvcurveto
          21 47 rlineto
          -81 5 -58 -13 87 vvcurveto
          49 46 28 40 40 41 -21 -43 15 vhcurveto
          11 -1 rlineto
          endchar
        </CharString>
        <CharString name="epsilon1">
          56 213 258 rmoveto
          -2 -1 -64 1 -37 hhcurveto
          -6 6 rlineto
          78 2 35 87 96 hhcurveto
          53 26 -12 -59 42 hvcurveto
          13 2 37 53 rlineto
          37 -37 -49 22 -52 hhcurveto
          -144 -105 -128 -140 -60 16 -62 43 -43 hvcurveto
          -37 37 56 -12 51 hhcurveto
          72 71 42 44 56 hvcurveto
          -12 20 -8 1 rlineto
          -33 -39 -51 -16 -51 hhcurveto
          -36 -45 5 24 -24 hvcurveto
          -35 35 -18 48 -2 49 5 6 rcurveline
          1 26 42 2 1 hhcurveto
          47 64 0 -1 30 hvcurveto
          14 42 rlineto
          endchar
        </CharString>
        <CharString name="equal">
          459 745 369 rmoveto
          -661 hlineto
          -7 -40 rlineto
          662 hlineto
          6 -157 rmoveto
          -661 hlineto
          -7 -40 rlineto
          662 hlineto
          endchar
        </CharString>
        <CharString name="eta">
          176 498 -164 rmoveto
          -15 122 -2 123 123 vvcurveto
          177 11 85 -104 -64 -71 -38 -37 -56 vhcurveto
          -11 2 rlineto
          49 -3 -25 21 -41 hhcurveto
          -45 -49 -41 -29 -36 hvcurveto
          16 -18 rlineto
          14 22 28 19 19 hhcurveto
          37 2 -42 -32 hvcurveto
          -335 vlineto
          9 -10 72 25 rlineto
          -3 57 -4 67 46 vvcurveto
          53 0 83 2 24 vhcurveto
          29 41 48 29 47 hhcurveto
          105 -20 -107 -170 -105 0 -181 -1 -27 hvcurveto
          9 -11 rlineto
          endchar
        </CharString>
        <CharString name="eth">
          97 144 662 rmoveto
          27 -16 23 -17 20 -22 -108 -57 rcurveline
          13 -39 122 65 22 -31 20 -36 18 -43 rlinecurve
          -3 -5 -37 4 -23 -1 -21 -3 rlinecurve
          -151 -24 -54 -135 20 -127 7 -46 25 -69 40 -35 41 -36 54 0 57 9 41 7 38 23 28 33 70 81 -2 114 -16 100 -15 96 -51 86 -62 62 92 49 rcurveline
          -13 39 -112 -59 -31 25 -32 19 -33 11 rlinecurve
          187 -539 rmoveto
          -8 -47 -23 -51 -52 -8 -98 -15 -41 119 -8 47 -14 90 16 133 116 18 27 4 28 -4 26 -7 14 -37 10 -39 6 -40 8 -53 3 -57 -10 -53 rrcurveto
          endchar
        </CharString>
        <CharString name="euro">
          274 425 270 rmoveto
          10 40 rlineto
          -225 hlineto
          -1 11 -1 12 11 vvcurveto
          9 0 9 1 8 vhcurveto
          242 hlineto
          10 40 rlineto
          -249 hlineto
          34 246 224 39 63 -166 14 -1 rcurveline
          57 58 -125 142 -168 -22 -101 -116 rlinecurve
          -46 -53 -26 -61 -12 -66 rrcurveto
          -65 hlineto
          -10 -40 rlineto
          70 hlineto
          -1 -15 -1 -14 -15 -5 0 -6 -5 vvcurveto
          -84 hlineto
          -10 -40 rlineto
          97 hlineto
          9 -79 27 -75 57 -57 rrcurveto
          -45 45 53 -18 52 hhcurveto
          85 -1 81 43 41 38 -17 29 rcurveline
          -71 -37 -104 -23 -77 64 -42 35 -31 60 -14 66 rrcurveto
          endchar
        </CharString>
        <CharString name="exclam">
          -111 132 194 rmoveto
          13 10 6 18 8 16 29 58 22 70 -7 98 -11 153 -56 100 -50 107 -20 -48 -22 -45 -18 -47 -3 -7 21 -30 4 -8 56 -108 50 -149 -30 -180 rrcurveto
          -2 -1 -13 9 7 vhcurveto
          -83 -109 rmoveto
          -3 -4 0 -5 4 -3 72 -70 rcurveline
          4 -3 6 -1 3 4 88 92 rcurveline
          3 4 1 5 -4 3 -73 70 rcurveline
          -4 3 -5 1 -3 -4 rrcurveto
          endchar
        </CharString>
        <CharString name="exclam.1">
          -148 112 186 rmoveto
          36 371 rlineto
          3 29 2 29 29 vvcurveto
          20 -7 26 -30 -32 -18 -14 -51 vhcurveto
          -1 -17 3 -22 1 -19 27 -383 rcurveline
          -42 -138 rmoveto
          -31 26 -26 32 31 25 26 31 31 -25 26 -31 -32 -26 -26 -31 vhcurveto
          endchar
        </CharString>
        <CharString name="exclamdown">
          -148 54 442 rmoveto
          -31 26 -26 32 31 25 26 31 31 -25 26 -31 -32 -26 -26 -31 vhcurveto
          58 -140 rmoveto
          -16 2 -27 -383 -1 -19 -3 -22 1 -17 rlinecurve
          -51 18 -14 32 30 7 26 20 29 -2 29 -3 29 vhcurveto
          endchar
        </CharString>
        <CharString name="f">
          -35 3 428 rmoveto
          -4 -22 5 -7 rlineto
          112 hlineto
          6 -8 rlineto
          -108 vlineto
          -91 -6 -94 -7 -99 vhcurveto
          17 -11 79 24 rlineto
          -7 81 -3 95 94 vvcurveto
          111 vlineto
          6 6 rlineto
          115 hlineto
          7 6 7 22 -5 7 rlineto
          -124 hlineto
          -4 6 rlineto
          102 17 87 43 47 7 -43 -21 4 vhcurveto
          12 -4 58 54 rlineto
          27 -13 -26 27 -54 hhcurveto
          -63 -60 -37 -70 -30 hvcurveto
          -16 -36 -2 -51 -35 vvcurveto
          -6 -6 rlineto
          -105 hlineto
          endchar
        </CharString>
        <CharString name="f.alt">
          -47 314 641 rmoveto
          28 -22 vlineto
          -63 -60 -37 -70 -30 hvcurveto
          -16 -36 -2 -51 -35 vvcurveto
          -6 -6 rlineto
          -105 hlineto
          -7 -6 -4 -22 5 -7 rlineto
          112 hlineto
          6 -8 rlineto
          -108 vlineto
          -91 -6 -94 -7 -99 vhcurveto
          17 -11 79 24 rlineto
          -7 81 -3 95 94 vvcurveto
          111 vlineto
          6 6 rlineto
          115 hlineto
          7 6 7 22 -5 7 rlineto
          -124 hlineto
          -4 6 rlineto
          66 6 64 22 37 vhcurveto
          12 20 16 9 22 2 43 4 -10 -2 6 1 rrcurveto
          endchar
        </CharString>
        <CharString name="fatha-ar">
          79 7 rmoveto
          29 46 -67 -24 -76 -26 -64 -26 rlinecurve
          -33 -52 61 30 81 28 69 24 rlinecurve
          endchar
        </CharString>
        <CharString name="fathatan-ar">
          79 75 rmoveto
          29 46 -67 -24 -76 -26 -64 -26 rlinecurve
          -33 -52 61 30 81 28 69 24 rlinecurve
          -65 vmoveto
          29 46 -67 -24 -76 -26 -64 -26 rlinecurve
          -33 -52 61 30 81 28 69 24 rlinecurve
          endchar
        </CharString>
        <CharString name="feh-ar">
          315 562 663 rmoveto
          -71 66 -27 -34 -28 -35 -27 -34 rlinecurve
          71 -66 28 34 27 34 27 35 rlinecurve
          -474 -629 rmoveto
          111 -74 277 53 103 122 67 79 40 106 -45 89 -25 49 -46 42 -33 -45 -27 -37 -19 -45 -22 -41 -10 -19 -1 -34 19 -9 32 -16 38 15 21 18 rrcurveto
          11 12 21 -75 0 vvcurveto
          -72 -72 -455 -111 17 200 4 53 24 42 20 36 -11 -3 -4 -9 -5 -8 -114 -174 15 -98 69 -46 rrcurveto
          endchar
        </CharString>
        <CharString name="fehDotless-ar">
          315 88 34 rmoveto
          111 -74 277 53 103 122 67 79 40 106 -45 89 -25 49 -46 42 -33 -45 -27 -37 -19 -45 -22 -41 -10 -19 -1 -34 19 -9 32 -16 38 15 21 18 rrcurveto
          11 12 21 -75 0 vvcurveto
          -72 -72 -455 -111 17 200 4 53 24 42 20 36 -11 -3 -4 -9 -5 -8 -114 -174 15 -98 69 -46 rrcurveto
          endchar
        </CharString>
        <CharString name="fehDotless-ar.fina">
          203 103 386 rmoveto
          -5 -4 -3 -6 -4 hvcurveto
          -24 -38 -24 -44 -23 -51 rrcurveto
          -13 -30 -7 -29 -27 vvcurveto
          -19 3 -18 7 -18 vhcurveto
          11 -33 21 -24 31 -17 rrcurveto
          -20 35 41 -9 52 hhcurveto
          114 112 33 38 77 hvcurveto
          16 4 57 16 46 30 35 44 rlinecurve
          35 44 28 49 20 54 rrcurveto
          5 20 3 17 15 vvcurveto
          39 -21 32 -39 -24 -26 -16 -32 -27 vhcurveto
          -47 -55 -42 -68 -37 -82 -37 -13 -48 -13 -60 -12 rrcurveto
          -8 -38 -36 -5 -34 hhcurveto
          -19 -17 1 3 -17 hvcurveto
          -49 7 -34 20 -20 34 rrcurveto
          -6 11 -3 13 15 vvcurveto
          33 14 44 29 54 vhcurveto
          2 5 1 3 3 vvcurveto
          6 -3 3 -7 vhcurveto
          444 -152 rmoveto
          6 2 5 4 5 vhcurveto
          18 24 15 27 31 11 rrcurveto
          14 -6 24 -31 -29 vvcurveto
          -11 -5 -8 -10 -5 vhcurveto
          -26 -12 -24 -7 -21 -1 rrcurveto
          -9 4 -13 14 14 vvcurveto
          endchar
        </CharString>
        <CharString name="fehDotless-ar.fina.jalt">
          439 287 3 rmoveto
          87 -11 111 10 86 13 94 14 108 27 62 40 69 45 49 76 30 83 16 61 -8 38 -32 17 -32 17 -35 -14 -37 -44 -47 -55 -42 -70 -38 -83 -76 -27 -96 -8 -93 -7 rrcurveto
          -158 -2 -120 35 -84 73 -32 27 -15 24 2 20 2 20 10 18 18 18 61 58 76 42 90 28 90 28 86 15 82 3 53 112 rcurveline
          -78 -3 -72 -9 -65 -17 -143 -37 -115 -57 -79 -103 -78 -101 -27 -123 92 -100 43 -47 76 -30 109 -14 rrcurveto
          574 297 rmoveto
          13 -5 11 -14 9 -24 9 -24 -3 -16 -16 -7 -26 -12 -24 -7 -21 -1 -13 7 -18 21 15 20 18 24 14 28 32 10 rrcurveto
          endchar
        </CharString>
        <CharString name="fehDotless-ar.init">
          26 208 255 rmoveto
          25 22 13 11 13 hvcurveto
          1 1 1 1 1 hhcurveto
          5 6 -9 -20 7 hvcurveto
          12 -36 -32 -25 -93 -29 -154 -33 rlinecurve
          -22 -129 100 21 65 19 33 17 rlinecurve
          33 17 30 25 27 31 29 33 22 43 13 54 rrcurveto
          5 21 3 20 19 vvcurveto
          62 -31 50 -37 27 vhcurveto
          6 -8 -7 3 -7 hhcurveto
          -11 -11 -7 -14 -10 hvcurveto
          -27 -36 -19 -46 -22 -41 rrcurveto
          -5 -9 -2 -11 -12 vvcurveto
          -27 20 -10 25 vhcurveto
          endchar
        </CharString>
        <CharString name="fehDotless-ar.init.ain">
          189 456 215 rmoveto
          -12 -11 -27 -14 -42 -16 -70 -27 -102 -28 -92 8 -40 4 -24 16 -8 29 -13 -35 -13 -42 -13 -50 1 -29 27 -15 28 -3 65 -7 70 8 74 21 74 21 60 35 44 49 rrcurveto
          47 53 53 125 -47 93 -13 24 -16 20 -20 14 -20 14 -17 -4 -17 -22 -27 -37 -19 -45 -22 -41 -10 -18 -1 -35 19 -9 33 -17 38 18 19 16 5 6 8 -9 8 -24 rrcurveto
          12 -36 0 0 0 vvcurveto
          endchar
        </CharString>
        <CharString name="fehDotless-ar.init.dal">
          65 328 118 rmoveto
          58 64 34 124 -41 81 -25 49 -45 41 -33 -45 -27 -37 -19 -45 -22 -41 -10 -19 -1 -34 19 -9 32 -16 37 15 21 18 10 12 21 -68 2 -7 -30 -15 -157 -69 -67 17 rrcurveto
          -24 6 -13 30 2 29 rrcurveto
          4 -4 2 -4 -6 vhcurveto
          -40 -58 -29 -101 65 -32 68 -33 175 91 47 52 rrcurveto
          endchar
        </CharString>
        <CharString name="fehDotless-ar.init.feh">
          257 509 141 rmoveto
          29 32 22 43 13 55 21 90 -30 73 -51 37 -20 14 -18 -4 -17 -22 -27 -36 -18 -47 -22 -41 -11 -18 -1 -35 19 -9 33 -16 39 18 19 16 6 6 6 -9 8 -24 rrcurveto
          12 -36 0 0 0 vvcurveto
          -16 -14 -31 -16 -49 -18 -82 -31 -117 -31 -106 8 -46 3 -27 17 -8 30 -13 -35 -13 -42 -13 -50 1 -29 27 -15 28 -3 68 -7 80 8 93 23 93 23 70 38 49 54 rrcurveto
          endchar
        </CharString>
        <CharString name="fehDotless-ar.init.hah">
          -152 138 87 rmoveto
          -22 -18 -47 -17 -29 -10 -7 -17 rcurveline
          98 -25 18 25 24 42 11 32 rlinecurve
          12 30 6 31 33 vvcurveto
          9 vlineto
          -1 36 -9 33 -14 29 -13 24 -16 20 -20 14 rrcurveto
          6 -8 -7 2 -7 hhcurveto
          -11 -11 -6 -14 -10 hvcurveto
          -27 -36 -19 -47 -22 -41 rrcurveto
          -5 -9 -2 -10 -13 vvcurveto
          -2 vlineto
          -25 1 19 -10 24 hhcurveto
          25 23 14 11 13 hvcurveto
          1 1 1 0 1 hhcurveto
          6 5 -13 -24 7 hvcurveto
          8 -29 4 -17 1 -4 rrcurveto
          -1 -2 0 -1 -2 vvcurveto
          endchar
        </CharString>
        <CharString name="fehDotless-ar.init.heh">
          235 193 26 rmoveto
          52 62 52 41 52 19 52 19 46 29 38 39 52 54 50 117 -47 96 -13 24 -16 21 -20 14 -20 14 -17 -5 -17 -22 -27 -37 -19 -45 -22 -41 -10 -19 -1 -34 19 -9 rrcurveto
          33 -17 38 18 19 16 5 6 8 -9 8 -24 rrcurveto
          12 -36 0 -1 0 vvcurveto
          -5 -4 -20 -10 -36 -14 rrcurveto
          -14 -36 -19 -8 -2 hhcurveto
          -98 -29 -68 -50 -40 -74 -40 -74 -41 -78 -41 -82 4 30 rcurveline
          1 vlineto
          -53 -65 rlineto
          -1 vlineto
          -3 -38 -3 -41 1 -30 6 -17 rlinecurve
          6 -17 13 11 19 40 29 58 23 56 15 36 15 36 27 41 40 47 rrcurveto
          endchar
        </CharString>
        <CharString name="fehDotless-ar.init.meem">
          51 316 200 rmoveto
          26 29 21 43 13 57 13 57 -2 48 -19 38 -13 24 -16 20 -20 14 -20 14 -18 -4 -16 -22 -27 -36 -19 -46 -22 -41 -10 -19 -1 -35 19 -9 33 -16 38 18 19 16 rrcurveto
          5 6 7 -10 8 -24 rrcurveto
          12 -36 1 0 0 vvcurveto
          -11 -9 -60 -14 -15 -6 -62 -14 -48 -18 -34 -35 -48 -50 -18 -69 -32 -69 21 -2 rcurveline
          31 77 57 30 84 22 50 13 45 23 28 35 rrcurveto
          endchar
        </CharString>
        <CharString name="fehDotless-ar.init.ragaa">
          314 249 224 rmoveto
          -11 -9 -17 -9 -23 -9 rrcurveto
          -1 vlineto
          -30 -14 -35 -13 -26 -18 rrcurveto
          0 -2 -1 -6 -5 vhcurveto
          -39 -29 -42 -33 -18 -50 45 -33 rcurveline
          1 5 5 0 vhcurveto
          30 21 37 22 32 20 rrcurveto
          1 vlineto
          4 3 3 1 2 1 33 17 35 31 21 23 21 30 17 30 10 30 27 71 -2 68 -31 63 -13 24 -16 20 -20 14 -20 14 -17 -5 -17 -22 -27 -37 -19 -45 -22 -41 rrcurveto
          -10 -18 -2 -35 19 -9 33 -17 39 17 19 17 15 13 18 -94 1 -5 rrcurveto
          -1 -2 0 -1 -2 vvcurveto
          endchar
        </CharString>
        <CharString name="fehDotless-ar.init.reh">
          18 285 149 rmoveto
          26 29 20 44 13 57 13 57 -2 47 -19 38 -13 24 -16 20 -20 14 -20 14 -18 -4 -17 -22 -27 -36 -18 -46 -22 -41 -10 -18 -1 -35 18 -9 33 -17 39 18 19 16 rrcurveto
          11 13 20 -74 1 -2 -16 -11 -24 -5 -22 -4 -60 -15 -44 -12 -28 -10 -28 -10 -21 -17 -14 -23 -9 -16 -8 -23 -7 -31 rrcurveto
          -1 vlineto
          -15 -18 -4 -16 9 -13 9 -13 10 2 11 17 rrcurveto
          1 hlineto
          16 15 19 13 25 12 66 29 79 12 45 51 rrcurveto
          endchar
        </CharString>
        <CharString name="fehDotless-ar.init.sad">
          356 522 280 rmoveto
          25 23 14 11 13 hvcurveto
          1 1 1 1 1 hhcurveto
          5 6 -10 -20 7 hvcurveto
          12 -36 -43 -38 -102 -26 -74 -16 rlinecurve
          -15 -68 -78 -15 -73 hhcurveto
          -50 -34 13 32 -17 hvcurveto
          -4 8 -3 10 12 vvcurveto
          29 14 40 26 52 vhcurveto
          1 2 0 1 1 vvcurveto
          3 -3 0 -2 -2 -1 0 -2 -1 vhcurveto
          -10 -15 -15 -23 -20 -34 -20 -34 -14 -34 -11 -36 rrcurveto
          -7 -22 -4 -22 -20 vvcurveto
          -55 21 -25 57 -8 vhcurveto
          -3 19 20 -1 23 hhcurveto
          21 22 2 2 24 hvcurveto
          106 10 103 30 81 39 91 44 52 56 26 104 rrcurveto
          5 21 2 19 19 vvcurveto
          29 -6 27 -12 25 vhcurveto
          -13 24 -16 20 -20 14 rrcurveto
          6 -8 -8 3 -7 hhcurveto
          -11 -11 -7 -14 -10 hvcurveto
          -27 -37 -18 -45 -22 -41 rrcurveto
          -5 -9 -2 -11 -12 vvcurveto
          -27 19 -11 25 vhcurveto
          endchar
        </CharString>
        <CharString name="fehDotless-ar.init.yeh">
          -152 138 87 rmoveto
          -22 -18 -47 -17 -29 -10 -7 -17 rcurveline
          98 -25 18 25 24 42 11 32 rlinecurve
          12 30 6 31 33 vvcurveto
          9 vlineto
          -1 36 -9 33 -14 29 -13 24 -16 20 -20 14 rrcurveto
          6 -8 -7 2 -7 hhcurveto
          -11 -11 -6 -14 -10 hvcurveto
          -27 -36 -19 -47 -22 -41 rrcurveto
          -5 -9 -2 -10 -13 vvcurveto
          -2 vlineto
          -25 1 19 -10 24 hhcurveto
          25 23 14 11 13 hvcurveto
          1 1 1 0 1 hhcurveto
          6 5 -13 -24 7 hvcurveto
          8 -29 4 -17 1 -4 rrcurveto
          -1 -2 0 -1 -2 vvcurveto
          endchar
        </CharString>
        <CharString name="fehDotless-ar.jalt">
          671 416 1 rmoveto
          110 4 107 20 90 30 114 38 72 51 42 112 23 62 -1 56 -25 51 -13 24 -16 20 -20 14 -20 14 -17 -4 -17 -22 -27 -36 -19 -46 -22 -41 -11 -18 0 -35 19 -9 rrcurveto
          33 -16 38 17 19 16 6 6 7 -9 8 -24 rrcurveto
          12 -36 0 0 0 vvcurveto
          -17 -15 -35 -17 -54 -19 -54 -19 -36 -10 -17 -4 -72 -16 -80 -8 -80 -6 -158 -2 -120 36 -84 73 -32 27 -15 24 2 20 2 20 11 19 18 17 61 58 75 42 90 28 rrcurveto
          90 28 86 15 82 3 53 112 rcurveline
          -79 -3 -72 -9 -64 -17 -143 -38 -114 -57 -80 -102 -79 -101 -26 -123 92 -100 61 -66 140 -34 156 5 rrcurveto
          endchar
        </CharString>
        <CharString name="fehDotless-ar.medi">
          -81 404 415 rmoveto
          -24 -26 -16 -32 -27 hvcurveto
          -51 -60 -43 -74 -34 -77 -180 -27 rcurveline
          -19 -129 97 21 137 34 57 16 47 31 35 44 rlinecurve
          35 44 27 49 20 53 rrcurveto
          5 20 3 18 15 vvcurveto
          39 -20 31 -39 vhcurveto
          -142 -201 rmoveto
          6 2 5 4 5 vhcurveto
          18 24 15 29 32 10 rrcurveto
          13 -6 25 -31 -29 vvcurveto
          -11 -6 -8 -10 -5 vhcurveto
          -26 -12 -23 -7 -21 -2 rrcurveto
          -9 4 -14 14 14 vvcurveto
          endchar
        </CharString>
        <CharString name="fehDotless-ar.medi.ain">
          11 56 1 rmoveto
          81 -8 146 42 60 22 52 18 42 30 33 43 33 43 26 46 19 51 16 61 -9 38 -32 17 -32 17 -35 -14 -37 -44 -47 -55 -42 -69 -38 -83 -43 -16 -69 -17 -57 6 rrcurveto
          -49 4 -28 16 -7 26 -13 -35 -13 -43 -13 -50 1 -29 27 -14 28 -3 rrcurveto
          370 288 rmoveto
          13 -5 10 -14 9 -24 9 -24 -3 -16 -16 -7 -26 -12 -23 -7 -21 -2 -13 7 -19 22 15 20 18 24 15 28 32 10 rrcurveto
          endchar
        </CharString>
        <CharString name="fehDotless-ar.medi.dal">
          -75 241 38 rmoveto
          113 32 68 98 39 107 31 121 -84 42 -75 -88 -51 -60 -42 -70 -35 -78 -40 -7 -40 -13 -41 10 -25 6 -14 32 4 30 rrcurveto
          4 -2 2 -4 -6 vhcurveto
          -41 -57 -30 -105 66 -32 45 -22 117 44 41 10 rrcurveto
          98 238 rmoveto
          26 -10 29 -66 -32 -15 -22 -11 -25 -7 -24 -2 -15 8 -15 22 13 18 18 24 15 28 32 11 rrcurveto
          endchar
        </CharString>
        <CharString name="fehDotless-ar.medi.feh">
          127 213 11 rmoveto
          36 6 52 10 67 16 67 16 49 17 31 21 69 45 49 76 30 83 16 61 -8 38 -32 17 -32 17 -35 -14 -37 -44 -48 -55 -42 -70 -37 -83 -59 -21 -65 -8 -72 -7 rrcurveto
          -71 -7 -87 0 -15 51 -13 -34 -13 -43 -13 -51 1 -29 27 -14 28 -3 45 -4 52 3 60 10 rrcurveto
          328 291 rmoveto
          13 -5 10 -15 9 -24 9 -24 -3 -16 -16 -7 -26 -12 -23 -6 -21 -2 -13 7 -18 21 15 20 18 24 15 29 31 10 rrcurveto
          endchar
        </CharString>
        <CharString name="fehDotless-ar.medi.hah">
          -45 271 159 rmoveto
          57 16 46 30 35 44 35 44 27 49 20 54 16 61 -8 38 -32 17 -32 17 -35 -14 -37 -44 -49 -57 -43 -69 -36 -82 -43 -8 -31 -11 -22 -15 -22 -15 -26 -29 -28 -44 rrcurveto
          -35 -53 -21 -46 -7 -37 rrcurveto
          -6 9 0 3 3 vhcurveto
          31 49 43 40 55 28 52 27 18 -2 60 15 rrcurveto
          98 238 rmoveto
          13 -5 11 -14 9 -24 9 -24 -3 -16 -16 -7 -25 -12 -24 -8 -22 -1 -14 7 -17 21 15 20 18 24 14 28 32 11 rrcurveto
          endchar
        </CharString>
        <CharString name="fehDotless-ar.medi.heh">
          147 463 143 rmoveto
          57 16 47 30 35 44 35 44 28 49 19 54 16 61 -9 38 -32 17 -32 17 -35 -14 -37 -44 -48 -55 -42 -70 -37 -83 -59 -11 -47 -15 -36 -19 -73 -39 -46 -56 -38 -76 rrcurveto
          -19 -39 -22 -45 -25 -50 -9 -18 rcurveline
          4 30 rlineto
          1 vlineto
          -53 -65 rlineto
          -1 vlineto
          -3 -38 -3 -41 1 -30 6 -17 rlinecurve
          8 -23 15 29 18 35 32 68 24 55 19 42 37 83 44 50 84 34 41 17 59 17 76 18 rrcurveto
          99 238 rmoveto
          13 -5 10 -15 9 -24 9 -24 -3 -15 -16 -7 -25 -12 -24 -8 -21 -1 -13 7 -19 21 15 20 18 24 15 28 32 11 rrcurveto
          endchar
        </CharString>
        <CharString name="fehDotless-ar.medi.meem">
          -19 297 145 rmoveto
          57 16 46 30 35 44 35 44 27 49 20 54 16 61 -8 38 -32 17 -32 17 -35 -14 -37 -44 -48 -56 -42 -68 -37 -83 -37 -7 -34 -8 -29 -10 -54 -18 -41 -56 -25 -55 rrcurveto
          -12 -26 -14 -32 -16 -36 21 -2 rcurveline
          25 55 39 35 54 15 54 15 53 13 51 12 rrcurveto
          98 238 rmoveto
          13 -5 10 -15 9 -24 9 -24 -3 -16 -16 -7 -24 -12 -24 -6 -22 -2 -13 7 -18 21 15 20 18 24 15 28 31 11 rrcurveto
          endchar
        </CharString>
        <CharString name="fehDotless-ar.medi.ragaa">
          -94 248 115 rmoveto
          18 6 21 12 25 19 60 45 42 70 28 76 16 61 -8 38 -32 17 -32 17 -35 -14 -37 -44 -52 -61 -40 -70 -35 -77 -36 -6 -40 -12 -25 -19 -25 -19 -21 -31 -19 -44 rrcurveto
          -4 -11 -8 -10 -4 -10 -3 -10 -1 -6 -1 -2 40 -30 rcurveline
          19 23 23 22 23 17 16 11 13 7 11 5 29 12 48 10 26 8 rrcurveto
          72 229 rmoveto
          13 -5 11 -14 9 -24 9 -24 -3 -16 -16 -7 -25 -12 -25 -8 -21 -1 -13 7 -16 22 13 20 18 24 15 27 31 11 rrcurveto
          endchar
        </CharString>
        <CharString name="fehDotless-ar.medi.reh">
          -50 435 444 rmoveto
          -24 -26 -16 -32 -27 hvcurveto
          -49 -56 -43 -69 -36 -82 -20 -4 rcurveline
          -1 hlineto
          -2 -4 -13 0 -4 -1 rrcurveto
          -2 -1 hlineto
          -86 -9 -24 -5 -45 -74 -7 -11 -6 -12 -6 -13 rrcurveto
          -1 vlineto
          -10 -12 -5 -11 -9 vvcurveto
          -10 8 -13 9 6 5 5 9 7 vhcurveto
          14 14 24 10 33 7 33 7 31 8 29 8 rrcurveto
          1 1 vlineto
          11 3 11 3 11 2 75 17 54 28 43 54 35 44 27 49 20 53 rrcurveto
          5 20 3 18 15 vvcurveto
          39 -20 31 -39 vhcurveto
          -141 -200 rmoveto
          6 2 5 4 5 vhcurveto
          18 24 14 27 32 11 rrcurveto
          13 -6 25 -31 -29 vvcurveto
          -11 -5 -8 -10 -5 vhcurveto
          -25 -12 -24 -7 -22 -2 rrcurveto
          -9 4 -13 14 15 vvcurveto
          endchar
        </CharString>
        <CharString name="fehDotless-ar.medi.sad">
          176 677 435 rmoveto
          -24 -26 -16 -32 -27 hvcurveto
          -48 -56 -43 -69 -37 -82 -30 -8 -42 -11 -56 -14 rrcurveto
          -13 -52 -48 -7 -45 hhcurveto
          -52 -39 13 30 -23 hvcurveto
          -8 10 -4 13 16 vvcurveto
          29 13 38 24 49 vhcurveto
          1 2 0 1 1 vvcurveto
          3 -3 1 -2 -2 -1 -1 -2 -1 vhcurveto
          -10 -15 -15 -23 -20 -34 -20 -34 -14 -34 -11 -36 rrcurveto
          -7 -22 -4 -22 -20 vvcurveto
          -12 2 -11 2 -11 vhcurveto
          -39 9 41 -17 58 hhcurveto
          19 23 1 3 27 hvcurveto
          45 5 47 7 49 10 79 16 105 25 56 31 79 43 54 82 32 89 rrcurveto
          5 20 3 18 15 vvcurveto
          39 -20 31 -39 vhcurveto
          -141 -201 rmoveto
          6 2 5 4 5 vhcurveto
          18 24 14 28 32 11 rrcurveto
          13 -6 25 -31 -29 vvcurveto
          -11 -6 -8 -10 -5 vhcurveto
          -24 -12 -24 -7 -22 -2 rrcurveto
          -9 4 -13 14 14 vvcurveto
          endchar
        </CharString>
        <CharString name="fehDotless-ar.medi.yeh">
          -19 297 145 rmoveto
          57 16 46 30 35 44 35 44 27 49 20 54 16 61 -8 38 -32 17 -32 17 -35 -14 -37 -44 -48 -56 -42 -68 -37 -83 -37 -7 -34 -8 -29 -10 -54 -18 -41 -56 -25 -55 rrcurveto
          -12 -26 -14 -32 -16 -36 21 -2 rcurveline
          25 55 39 35 54 15 54 15 53 13 51 12 rrcurveto
          98 238 rmoveto
          13 -5 10 -15 9 -24 9 -24 -3 -16 -16 -7 -24 -12 -24 -6 -22 -2 -13 7 -18 21 15 20 18 24 15 28 31 11 rrcurveto
          endchar
        </CharString>
        <CharString name="five">
          136 125 594 rmoveto
          6 6 4 6 48 126 3 2 87 vhcurveto
          27 78 rlineto
          -335 hlineto
          -7 -7 rlineto
          -327 vlineto
          13 -11 rlineto
          31 32 41 22 44 hhcurveto
          103 36 -90 -82 -102 -54 -95 -112 -62 -35 57 49 -22 hvcurveto
          -11 hlineto
          -44 -56 1 -12 rlineto
          -49 41 61 -26 63 hhcurveto
          145 125 109 153 112 -74 80 -117 -46 -45 -17 -20 -41 hvcurveto
          endchar
        </CharString>
        <CharString name="five-ar">
          -26 223 43 rmoveto
          84 87 17 112 -44 109 -39 95 -68 102 -56 -121 -29 -63 -97 -292 53 -49 47 -44 96 26 36 38 rrcurveto
          32 134 rmoveto
          7 -25 -126 -34 -55 36 -40 26 65 121 28 26 12 11 18 2 14 -10 31 -23 36 -92 10 -38 rrcurveto
          endchar
        </CharString>
        <CharString name="five-ar.dnom">
          -99 172 30 rmoveto
          59 61 12 78 -31 77 -27 66 -48 72 -39 -85 -20 -44 -68 -205 37 -34 33 -31 67 19 25 26 rrcurveto
          23 94 rmoveto
          4 -18 -88 -23 -38 25 -28 18 45 85 20 18 8 8 13 1 10 -7 21 -16 26 -64 7 -27 rrcurveto
          endchar
        </CharString>
        <CharString name="five-ar.numr">
          -99 172 299 rmoveto
          59 61 12 78 -31 77 -27 66 -48 72 -39 -85 -20 -44 -68 -205 37 -34 33 -31 67 19 25 26 rrcurveto
          23 94 rmoveto
          4 -18 -88 -23 -38 25 -28 18 45 85 20 18 8 8 13 1 10 -7 21 -16 26 -64 7 -27 rrcurveto
          endchar
        </CharString>
        <CharString name="five-persian">
          80 401 310 rmoveto
          -44 97 -111 80 -81 69 -14 -46 -7 -23 -8 -48 8 -7 2 -2 9 -7 -43 -69 -102 -206 24 -82 47 -163 115 189 67 -50 76 -56 113 175 -51 149 rrcurveto
          -25 -133 rmoveto
          -11 -16 -26 -21 -20 7 -98 35 13 -59 -81 -10 -149 -19 126 256 42 60 81 -70 86 -59 37 -104 rrcurveto
          endchar
        </CharString>
        <CharString name="five-persian.dnom">
          -99 258 217 rmoveto
          -31 68 -78 56 -57 48 -9 -32 -5 -16 -6 -34 6 -5 1 -1 7 -5 -31 -48 -71 -144 17 -58 33 -114 80 132 47 -35 53 -39 79 123 -35 104 rrcurveto
          -18 -93 rmoveto
          -8 -11 -18 -15 -14 5 -68 24 9 -41 -57 -7 -104 -13 88 179 29 42 57 -49 60 -41 26 -73 rrcurveto
          endchar
        </CharString>
        <CharString name="five-persian.numr">
          -99 258 486 rmoveto
          -31 68 -78 56 -57 48 -9 -32 -5 -16 -6 -34 6 -5 1 -1 7 -5 -31 -48 -71 -144 17 -58 33 -114 80 132 47 -35 53 -39 79 123 -35 104 rrcurveto
          -18 -93 rmoveto
          -8 -11 -18 -15 -14 5 -68 24 9 -41 -57 -7 -104 -13 88 179 29 42 57 -49 60 -41 26 -73 rrcurveto
          endchar
        </CharString>
        <CharString name="five.dnom">
          12 103 356 rmoveto
          4 5 2 4 32 86 2 1 59 vhcurveto
          18 47 rlineto
          -227 hlineto
          -5 -4 rlineto
          -196 vlineto
          8 -7 rlineto
          19 22 28 13 30 hhcurveto
          69 25 -53 -50 -62 -36 -56 -76 -41 -26 34 29 -14 hvcurveto
          -8 hlineto
          -29 -33 1 -8 rlineto
          -29 28 40 -16 43 hhcurveto
          97 86 65 93 67 -50 48 -79 -31 -31 -10 -12 -28 hvcurveto
          endchar
        </CharString>
        <CharString name="five.numr">
          12 103 631 rmoveto
          4 5 2 4 32 86 2 1 59 vhcurveto
          18 47 rlineto
          -227 hlineto
          -5 -4 rlineto
          -196 vlineto
          8 -7 rlineto
          19 22 28 13 30 hhcurveto
          69 25 -53 -50 -62 -36 -56 -76 -41 -26 34 29 -14 hvcurveto
          -8 hlineto
          -29 -33 1 -8 rlineto
          -29 28 40 -16 43 hhcurveto
          97 86 65 93 67 -50 48 -79 -31 -31 -10 -12 -28 hvcurveto
          endchar
        </CharString>
        <CharString name="four">
          136 285 669 rmoveto
          -286 -434 rlineto
          -44 284 vlineto
          7 -9 rlineto
          -63 0 -83 -5 -35 vhcurveto
          5 -6 80 33 rlineto
          -3 22 0 79 54 vvcurveto
          8 8 rlineto
          82 hlineto
          16 37 -5 7 rlineto
          -94 hlineto
          -7 9 rlineto
          155 0 272 1 27 vhcurveto
          -7 6 rlineto
          -77 -469 rmoveto
          -215 hlineto
          -5 7 1 22 84 138 38 59 rlinecurve
          29 45 30 46 34 39 rrcurveto
          1 1 2 1 2 hhcurveto
          3 2 -3 -5 hvcurveto
          -342 vlineto
          endchar
        </CharString>
        <CharString name="four-ar">
          -6 269 38 rmoveto
          23 36 19 39 22 36 rrcurveto
          -5 3 -2 -1 0 vvcurveto
          -37 -23 -49 -16 -56 9 -38 7 -39 15 -7 36 58 93 63 62 -109 68 -8 5 -4 10 3 9 11 32 37 11 24 18 15 34 13 35 19 29 -10 -3 -6 -4 -7 -4 rrcurveto
          -64 -40 -47 -75 -34 -65 -72 -137 90 46 27 -71 -16 -49 -25 -36 -23 -39 -14 -25 9 -36 18 -16 53 -47 120 9 48 45 rrcurveto
          endchar
        </CharString>
        <CharString name="four-ar.dnom">
          -99 194 27 rmoveto
          16 25 14 27 15 25 rrcurveto
          -3 2 -2 0 0 vvcurveto
          -26 -16 -34 -12 -39 7 -27 5 -27 10 -5 25 41 65 44 44 -77 47 -5 4 -3 7 2 6 8 23 26 7 17 13 10 24 9 24 13 21 -7 -3 -4 -2 -5 -3 rrcurveto
          -44 -28 -33 -53 -24 -45 -51 -96 63 32 19 -50 -11 -34 -17 -25 -16 -27 -10 -18 6 -25 13 -11 37 -33 84 6 33 32 rrcurveto
          endchar
        </CharString>
        <CharString name="four-ar.numr">
          -99 194 296 rmoveto
          16 25 14 27 15 25 rrcurveto
          -3 2 -2 0 0 vvcurveto
          -26 -16 -34 -12 -39 7 -27 5 -27 10 -5 25 41 65 44 44 -77 47 -5 4 -3 7 2 6 8 23 26 7 17 13 10 24 9 24 13 21 -7 -3 -4 -2 -5 -3 rrcurveto
          -44 -28 -33 -53 -24 -45 -51 -96 63 32 19 -50 -11 -34 -17 -25 -16 -27 -10 -18 6 -25 13 -11 37 -33 84 6 33 32 rrcurveto
          endchar
        </CharString>
        <CharString name="four-persian">
          50 219 4 rmoveto
          71 106 -16 135 -64 105 -2 3 10 4 14 -2 107 -18 40 85 11 129 1 8 -10 -17 -1 -4 -7 -34 -103 -76 -42 76 -8 15 28 55 64 -30 39 -18 18 79 -68 -4 rrcurveto
          -35 -2 -92 -78 3 -62 -74 14 3 21 -32 62 -19 -38 -15 -41 -15 -39 21 -50 34 -39 27 -42 52 -80 64 -94 -14 -135 rrcurveto
          -2 8 4 2 4 vhcurveto
          endchar
        </CharString>
        <CharString name="four-persian.dnom">
          -99 141 3 rmoveto
          50 74 -11 95 -45 73 -1 2 7 3 9 -2 75 -12 28 59 8 91 1 5 -7 -12 -1 -2 -5 -24 -72 -53 -29 53 -6 10 20 39 44 -21 28 -13 12 56 -47 -3 rrcurveto
          -25 -2 -64 -54 2 -44 -52 10 2 15 -22 43 -13 -26 -11 -29 -10 -27 14 -35 24 -28 19 -29 36 -56 45 -66 -10 -94 rrcurveto
          -2 6 3 1 3 vhcurveto
          endchar
        </CharString>
        <CharString name="four-persian.numr">
          -99 141 272 rmoveto
          50 74 -11 95 -45 73 -1 2 7 3 9 -1 75 -13 28 59 8 91 1 5 -7 -12 -1 -2 -5 -24 -72 -53 -29 53 -6 10 20 39 44 -21 28 -13 12 56 -47 -3 rrcurveto
          -25 -2 -64 -54 2 -44 -52 10 2 15 -22 43 -13 -26 -11 -29 -10 -27 14 -35 24 -28 19 -29 36 -56 45 -66 -10 -94 rrcurveto
          -2 6 3 1 3 vhcurveto
          endchar
        </CharString>
        <CharString name="four-persian.urd">
          34 263 346 rmoveto
          1 vlineto
          21 30 49 108 41 129 -103 -35 rcurveline
          -34 -96 -37 49 -42 59 -30 -3 rlinecurve
          -113 -13 -8 -212 52 -89 39 -66 51 -101 -12 -107 6 4 3 5 1 5 17 64 31 63 -9 78 -22 79 -54 84 -29 72 51 71 81 -172 41 -12 3 -1 3 3 3 3 rrcurveto
          endchar
        </CharString>
        <CharString name="four-persian.urd.dnom">
          -99 176 242 rmoveto
          1 vlineto
          15 21 34 76 29 90 -72 -25 rcurveline
          -24 -67 -26 34 -29 42 -21 -2 rlinecurve
          -79 -9 -6 -149 36 -62 28 -46 35 -71 -8 -75 4 3 2 3 1 4 12 45 22 44 -7 54 -15 56 -38 58 -20 51 35 50 57 -121 29 -8 2 -1 2 2 2 2 rrcurveto
          endchar
        </CharString>
        <CharString name="four-persian.urd.numr">
          -99 176 511 rmoveto
          1 vlineto
          15 21 34 76 29 90 -72 -25 rcurveline
          -24 -67 -26 34 -29 42 -21 -2 rlinecurve
          -79 -9 -6 -149 36 -62 28 -46 35 -71 -8 -75 4 3 2 3 1 4 12 45 22 44 -7 54 -15 56 -38 58 -20 51 35 50 57 -121 29 -8 2 -1 2 2 2 2 rrcurveto
          endchar
        </CharString>
        <CharString name="four.dnom">
          12 263 422 rmoveto
          -51 -21 -194 -260 rlineto
          -26 192 vlineto
          5 -6 rlineto
          -38 1 -49 -4 -21 vhcurveto
          3 -4 54 20 rlineto
          -2 13 1 48 32 vvcurveto
          4 5 rlineto
          56 hlineto
          11 22 -3 4 rlineto
          -64 hlineto
          -4 5 rlineto
          93 -1 164 1 16 vhcurveto
          -53 -273 rmoveto
          -4 -5 rlineto
          -146 hlineto
          -3 4 rlineto
          13 57 84 26 35 vhcurveto
          20 27 20 28 23 23 rrcurveto
          1 1 2 0 1 hhcurveto
          2 1 -1 -4 hvcurveto
          endchar
        </CharString>
        <CharString name="four.numr">
          12 263 697 rmoveto
          -51 -21 -194 -260 rlineto
          -26 192 vlineto
          5 -6 rlineto
          -38 1 -49 -4 -21 vhcurveto
          3 -4 54 20 rlineto
          -2 13 1 48 32 vvcurveto
          4 5 rlineto
          56 hlineto
          11 22 -3 4 rlineto
          -64 hlineto
          -4 5 rlineto
          93 -1 164 1 16 vhcurveto
          -53 -273 rmoveto
          -4 -5 rlineto
          -146 hlineto
          -3 4 rlineto
          13 57 84 26 35 vhcurveto
          20 27 20 28 23 23 rrcurveto
          1 1 2 0 1 hhcurveto
          2 1 -1 -4 hvcurveto
          endchar
        </CharString>
        <CharString name="foursuperior">
          112 263 697 rmoveto
          -51 -21 -194 -260 rlineto
          -26 192 vlineto
          5 -6 rlineto
          -38 1 -49 -4 -21 vhcurveto
          3 -4 54 20 rlineto
          -2 13 1 48 32 vvcurveto
          4 5 rlineto
          56 hlineto
          11 22 -3 4 rlineto
          -64 hlineto
          -4 5 rlineto
          93 -1 164 1 16 vhcurveto
          -53 -273 rmoveto
          -4 -5 rlineto
          -146 hlineto
          -3 4 rlineto
          13 57 84 26 35 vhcurveto
          20 27 20 28 23 23 rrcurveto
          1 1 2 0 1 hhcurveto
          2 1 -1 -4 hvcurveto
          endchar
        </CharString>
        <CharString name="fraction">
          -294 245 704 rmoveto
          -11 -1 -433 -680 rlineto
          -14 vlineto
          31 -13 437 688 -3 11 rlineto
          endchar
        </CharString>
        <CharString name="fullstop-ar">
          -111 62 99 rmoveto
          -40 -99 165 20 45 99 rlineto
          endchar
        </CharString>
        <CharString name="g">
          147 365 45 rmoveto
          -130 -4 -45 -107 -106 hhcurveto
          -36 -46 41 36 -18 hvcurveto
          -14 hlineto
          -49 -62 rlineto
          -46 49 45 -10 44 hhcurveto
          61 50 15 39 51 hvcurveto
          20 15 37 34 16 44 rrcurveto
          20 58 2 71 39 vvcurveto
          209 4 72 5 91 vhcurveto
          -14 6 -51 -29 rlineto
          25 -33 -43 9 -41 hhcurveto
          -128 -101 -103 -178 -116 62 -79 83 63 56 33 30 52 hvcurveto
          9 47 rmoveto
          -18 -23 -56 -29 -46 hhcurveto
          -50 -64 61 90 90 32 138 118 42 44 -21 -47 3 hvcurveto
          endchar
        </CharString>
        <CharString name="gaf-ar">
          580 562 856 rmoveto
          -31 -52 300 172 31 52 rlineto
          -375 -880 rmoveto
          40 48 31 79 0 vvcurveto
          8 28 0 14 -3 42 -16 257 rcurveline
          106 62 107 63 106 62 33 117 rcurveline
          1 6 -7 2 -5 -2 -108 -63 -108 -63 -108 -63 -32 -117 rcurveline
          -60 -95 rlineto
          7 -100 12 -101 -102 vvcurveto
          -182 -92 -155 -29 -72 84 -47 54 30 58 46 83 -11 -3 -11 -8 -5 -8 -75 -115 -15 -81 11 -52 13 -59 43 -44 81 -8 130 -13 145 75 70 84 rrcurveto
          endchar
        </CharString>
        <CharString name="gafsarkashabove-ar">
          -132 -58 rmoveto
          -31 -52 300 172 31 52 rlineto
          endchar
        </CharString>
        <CharString name="gamma">
          225 525 465 rmoveto
          -37 -95 -82 -160 -65 -120 -8 2 rcurveline
          146 -24 231 -149 -77 -42 -34 -77 -50 vhcurveto
          16 -12 23 27 rlineto
          23 20 40 7 27 hhcurveto
          26 25 -13 -18 19 hvcurveto
          73 -72 31 -261 -39 vvcurveto
          -53 -165 17 -14 18 -12 21 -7 rlinecurve
          34 26 rlineto
          5 52 3 55 53 vvcurveto
          23 vlineto
          17 43 75 134 90 124 80 131 rlinecurve
          -60 27 rlineto
          endchar
        </CharString>
        <CharString name="germandbls">
          89 3 428 rmoveto
          -4 -22 5 -7 rlineto
          68 hlineto
          6 -8 rlineto
          -108 vlineto
          -91 -6 -94 -7 -99 vhcurveto
          17 -11 79 24 rlineto
          -7 81 -3 95 94 vvcurveto
          111 vlineto
          6 6 rlineto
          153 hlineto
          -76 -133 rlineto
          -24 vlineto
          29 -23 48 -43 28 -49 21 -38 4 -39 -15 -44 -23 -67 -77 -58 -85 -17 5 -24 rcurveline
          162 103 100 128 1 hvcurveto
          94 -70 56 -51 41 vhcurveto
          83 146 7 22 -5 7 rlineto
          -242 hlineto
          -4 6 rlineto
          102 17 87 43 47 7 -43 -21 4 vhcurveto
          12 -4 58 54 rlineto
          27 -13 -26 27 -54 hhcurveto
          -63 -60 -37 -70 -30 hvcurveto
          -16 -36 -2 -51 -35 vvcurveto
          -6 -6 rlineto
          -61 hlineto
          endchar
        </CharString>
        <CharString name="ghain-ar">
          319 272 769 rmoveto
          -71 66 -27 -34 -28 -35 -27 -34 rlinecurve
          71 -66 28 34 27 34 27 35 rlinecurve
          -66 -507 rmoveto
          -117 -92 -114 -220 30 -142 55 -261 425 67 163 198 4 4 -12 -3 -5 -1 -175 -46 -260 -38 -136 153 -78 88 247 210 55 48 40 35 65 42 14 36 45 116 rcurveline
          -60 -58 -97 -59 -47 46 -32 27 -16 25 -8 49 40 -4 34 -7 31 -10 42 130 rcurveline
          -33 8 -29 8 -35 1 -99 2 -58 -206 91 -113 9 -12 10 -11 11 -10 rrcurveto
          endchar
        </CharString>
        <CharString name="grave">
          156 70 665 rmoveto
          162 -154 18 31 -120 157 -13 2 rlineto
          endchar
        </CharString>
        <CharString name="gravecomb">
          -130 665 rmoveto
          162 -154 18 31 -120 157 -13 2 rlineto
          endchar
        </CharString>
        <CharString name="greater">
          347 574 254 rmoveto
          -9 vlineto
          -518 -243 -4 -9 8 -24 10 -5 600 280 rlineto
          12 vlineto
          -602 275 -10 -3 -10 -24 2 -10 rlineto
          endchar
        </CharString>
        <CharString name="guillemotleft">
          52 374 36 rmoveto
          14 28 -150 170 149 146 -31 46 -192 -188 rlineto
          58 -202 rmoveto
          14 28 -150 170 149 146 -31 46 -192 -188 rlineto
          endchar
        </CharString>
        <CharString name="guillemotright">
          52 42 36 rmoveto
          210 202 -192 188 -31 -46 149 -146 -150 -170 rlineto
          166 -28 rmoveto
          210 202 -192 188 -31 -46 149 -146 -150 -170 rlineto
          endchar
        </CharString>
        <CharString name="guilsinglleft">
          -100 12 238 rmoveto
          210 -202 14 28 -150 170 149 146 -31 46 rlineto
          endchar
        </CharString>
        <CharString name="guilsinglright">
          -100 252 238 rmoveto
          -192 188 -31 -46 149 -146 -150 -170 14 -28 rlineto
          endchar
        </CharString>
        <CharString name="h">
          228 499 62 rmoveto
          -53 9 83 41 hvcurveto
          74 vlineto
          80 6 70 -30 28 vhcurveto
          18 -19 -31 10 -15 hhcurveto
          -73 -69 -40 -36 -59 hvcurveto
          -8 8 rlineto
          92 0 99 4 85 vhcurveto
          -6 7 -158 -17 -5 -4 rlineto
          -18 vlineto
          27 -6 41 -8 9 -12 rrcurveto
          26 -36 -6 -79 -101 vvcurveto
          -1 -132 -6 -132 -7 -132 6 -10 rcurveline
          72 22 rlineto
          108 2 110 110 vvcurveto
          28 39 48 32 55 hhcurveto
          74 12 -62 -76 hvcurveto
          -36 -4 -87 -54 vvcurveto
          -49 19 -50 47 60 53 49 47 44 vhcurveto
          11 vlineto
          -13 10 rlineto
          -18 -19 -32 -27 -39 hhcurveto
          endchar
        </CharString>
        <CharString name="hah-ar">
          319 648 -186 rmoveto
          4 4 -12 -3 -5 -1 -175 -46 -260 -39 -136 153 -78 88 247 211 55 48 40 35 43 36 32 46 27 38 64 138 -66 27 -64 27 -108 -20 -44 -31 -66 -47 -39 -153 75 -83 rrcurveto
          -90 -82 -118 -209 30 -141 55 -261 426 67 163 198 rrcurveto
          -446 594 rmoveto
          29 25 136 24 20 -59 -34 -32 -52 -32 -41 -30 -16 36 -27 30 -15 38 rrcurveto
          endchar
        </CharString>
        <CharString name="hah-ar.fina">
          -176 387 395 rmoveto
          -34 -32 -53 -34 -39 -28 -79 -61 rcurveline
          -45 -41 -44 -65 -44 -88 -44 -88 -15 -79 15 -71 14 -65 34 -46 53 -26 121 -59 144 26 116 54 67 31 53 40 41 49 2 2 -1 1 -4 -1 -4 -1 -3 0 -3 -1 rrcurveto
          -18 -7 -48 -10 -78 -13 -52 -9 -52 -3 -52 2 -117 4 -92 35 -61 69 -20 22 -2 29 16 34 34 73 67 73 59 53 32 29 24 22 14 12 40 35 43 37 32 44 rrcurveto
          13 19 16 35 18 51 18 51 -7 33 -33 14 rrcurveto
          10 -25 -39 4 -53 hhcurveto
          -53 -36 -2 -4 -16 hvcurveto
          -16 -24 -34 -56 -9 -42 -3 -15 4 -7 12 3 rrcurveto
          4 23 34 2 46 hhcurveto
          46 38 -3 -7 31 hvcurveto
          2 -1 3 -4 3 -9 rrcurveto
          endchar
        </CharString>
        <CharString name="hah-ar.init">
          194 21 124 rmoveto
          -21 -124 8 1 6 2 8 2 rlinecurve
          2 1 1 2 hhcurveto
          22 6 25 4 23 4 rrcurveto
          1 vlineto
          21 4 19 4 16 3 rrcurveto
          -2 -10 -6 -18 -10 vvcurveto
          -4 2 -2 4 20 3 39 13 6 vhcurveto
          105 27 84 14 99 31 64 138 rcurveline
          -5 -9 -9 -2 -8 hhcurveto
          -12 -11 5 10 -9 hvcurveto
          -7 25 -10 23 -11 21 rrcurveto
          26 -14 -27 27 -37 hhcurveto
          -13 -11 -4 -8 -12 hvcurveto
          -61 -42 -42 -95 -27 -75 -60 -11 -60 -10 -60 -11 rrcurveto
          352 74 rmoveto
          1 -2 0 -2 -2 vvcurveto
          -3 -2 -2 -4 -1 vhcurveto
          -142 -28 14 35 12 32 27 24 rlinecurve
          8 9 9 4 10 hhcurveto
          9 10 -3 -8 10 hvcurveto
          14 -11 13 -18 10 -23 rrcurveto
          endchar
        </CharString>
        <CharString name="hah-ar.init.ain">
          261 267 145 rmoveto
          -67 -10 -141 -34 -20 74 -14 -37 -13 -42 -12 -48 1 -30 28 -14 27 -3 72 -7 28 11 61 13 -2 -12 -15 -36 19 7 16 6 3 29 7 14 105 27 83 16 99 32 64 137 rcurveline
          -24 -10 -18 2 -15 16 -14 48 -21 46 -40 20 -24 12 -23 -2 -21 -14 -61 -42 -41 -94 -27 -75 rrcurveto
          171 41 rmoveto
          3 -7 -2 -4 -6 -1 -141 -28 rcurveline
          14 35 11 32 27 24 44 39 37 -60 13 -30 rrcurveto
          endchar
        </CharString>
        <CharString name="hah-ar.init.dal">
          272 277 144 rmoveto
          -120 -20 -37 3 -20 6 -33 10 -22 34 5 37 rrcurveto
          2 -3 1 -1 -3 vhcurveto
          -84 -159 8 -102 257 67 -2 -11 -4 -15 -2 -8 -1 -5 6 -6 4 1 20 5 -1 32 7 13 107 23 104 28 78 25 63 136 rcurveline
          -21 -9 -23 2 -13 15 -12 51 -22 43 -38 21 -96 52 -78 -197 -26 -72 rrcurveto
          170 42 rmoveto
          3 -7 2 -3 -11 -2 -140 -28 rcurveline
          16 34 13 38 28 23 17 14 23 -4 15 -13 16 -14 10 -17 8 -21 rrcurveto
          endchar
        </CharString>
        <CharString name="hah-ar.init.feh">
          427 425 168 rmoveto
          -71 -17 -102 -19 -82 -4 -59 -4 -59 8 -13 44 -13 -34 -13 -43 -13 -51 1 -29 27 -14 28 -3 100 -10 135 32 84 18 -2 -12 -15 -32 19 2 16 6 3 30 7 14 rrcurveto
          105 27 83 17 99 31 64 137 rcurveline
          -23 -11 -19 3 -15 17 -14 48 -21 46 -40 20 -24 12 -23 -2 -21 -14 -61 -42 -42 -96 -26 -75 rrcurveto
          171 42 rmoveto
          3 -7 -2 -3 -6 -1 -141 -29 rcurveline
          14 35 11 32 27 24 44 39 37 -59 13 -31 rrcurveto
          endchar
        </CharString>
        <CharString name="hah-ar.init.hah">
          150 5 vmoveto
          -6 9 0 3 3 vhcurveto
          8 13 16 22 25 28 25 28 53 35 83 42 83 42 58 44 35 44 35 44 24 48 13 51 13 51 -9 31 -33 14 -32 13 -39 4 -45 -7 -45 -7 -33 -12 -22 -15 rrcurveto
          -33 -23 -23 -42 -14 -61 -14 -61 5 -39 21 -19 -29 -17 -25 -19 -22 -21 -50 -48 -25 -80 -16 -80 rrcurveto
          399 383 rmoveto
          -3 -3 0 0 0 vvcurveto
          -43 -31 -42 -20 -49 -20 rrcurveto
          -1 1 -1 1 1 vvcurveto
          -14 28 -20 22 -11 31 14 11 29 9 45 6 49 6 35 -10 12 -32 rrcurveto
          endchar
        </CharString>
        <CharString name="hah-ar.init.heh">
          268 47 -242 rmoveto
          45 97 42 72 39 49 74 92 69 52 87 71 39 32 41 48 45 62 13 19 17 35 18 51 18 51 -7 32 -33 14 -32 13 -39 4 -45 -7 -45 -7 -33 -12 -22 -15 rrcurveto
          -33 -24 -23 -42 -12 -62 -12 -62 12 -51 37 -41 -3 -3 rcurveline
          -45 -36 -36 -35 -27 -35 -52 -67 -42 -79 -39 -78 -9 -18 rcurveline
          4 29 1 2 -54 -66 -3 -39 -3 -41 1 -30 6 -17 rlinecurve
          8 -23 15 29 18 36 rrcurveto
          339 533 rmoveto
          -16 35 -28 31 -14 38 15 12 32 9 49 5 49 5 29 -12 10 -30 -34 -32 -54 -33 -38 -28 rrcurveto
          endchar
        </CharString>
        <CharString name="hah-ar.init.heh.ragaa">
          187 48 -240 rmoveto
          32 70 39 55 49 50 44 46 47 41 48 38 48 38 47 51 45 63 13 19 16 35 18 51 18 51 -7 32 -33 14 -32 13 -39 4 -45 -7 -45 -7 -34 -11 -21 -16 rrcurveto
          -33 -23 -23 -42 -12 -62 -12 -62 13 -51 37 -42 -1 -1 -2 -1 -1 -1 -58 -46 -44 -50 -29 -56 -10 -19 -8 -21 -11 -18 -7 -15 rcurveline
          4 29 rlineto
          1 vlineto
          -51 -65 -6 -39 -4 -42 2 -29 6 -17 rlinecurve
          8 -23 16 30 18 35 rrcurveto
          256 409 rmoveto
          -16 36 -27 31 -15 37 15 12 32 10 49 5 49 5 29 -12 10 -29 -34 -32 -53 -35 -39 -28 rrcurveto
          endchar
        </CharString>
        <CharString name="hah-ar.init.meem">
          203 243 250 rmoveto
          -95 -30 -57 -30 -20 -29 -36 -53 -14 -45 -21 -61 21 -2 rcurveline
          19 46 51 34 55 17 51 16 68 32 42 18 102 44 82 83 37 109 rrcurveto
          8 24 5 25 23 vvcurveto
          23 -9 16 -19 8 vhcurveto
          -32 13 -39 3 -45 -7 -45 -7 -33 -11 -22 -15 -28 -20 -21 -34 -14 -48 -14 -48 3 -47 20 -47 rrcurveto
          94 37 rmoveto
          -21 27 -16 30 -13 33 15 12 32 9 49 5 49 5 29 -11 10 -30 -34 -32 -54 -28 -46 -20 rrcurveto
          endchar
        </CharString>
        <CharString name="hah-ar.init.ragaa">
          314 173 206 rmoveto
          -3 -3 -9 -4 -15 -7 -27 -12 -22 -14 -20 -15 -24 -19 -18 -22 -11 -24 -6 -13 -15 -32 -3 -13 42 -29 rcurveline
          17 14 29 13 16 14 18 13 20 14 25 15 44 26 42 25 42 25 42 25 41 39 39 55 13 19 16 35 18 51 18 51 -8 33 -33 14 -32 13 -38 4 -45 -7 rrcurveto
          -45 -7 -33 -12 -22 -15 -35 -25 -26 -57 -11 -50 -9 -44 -2 -58 30 -16 rrcurveto
          100 29 rmoveto
          -16 36 -27 31 -14 37 15 12 31 9 49 5 49 5 30 -11 10 -30 -34 -32 -54 -34 -39 -28 rrcurveto
          endchar
        </CharString>
        <CharString name="hah-ar.init.reh">
          180 18 hmoveto
          6 5 5 9 7 hvcurveto
          19 19 37 19 54 21 51 16 68 31 42 18 102 44 82 84 37 109 rrcurveto
          8 24 5 24 23 vvcurveto
          23 -9 16 -19 8 vhcurveto
          -32 13 -39 4 -45 -7 -45 -7 -33 -12 -22 -15 -50 -36 -44 -112 35 -89 -45 -20 -43 -21 -44 -21 -44 -21 -30 -39 -17 -55 rrcurveto
          -1 vlineto
          -10 -12 -5 -10 -9 vvcurveto
          -10 9 -13 9 vhcurveto
          319 262 rmoveto
          -21 27 -16 31 -13 33 15 12 32 9 49 5 49 5 29 -12 10 -30 -34 -32 -54 -28 -46 -20 rrcurveto
          endchar
        </CharString>
        <CharString name="hah-ar.init.sad">
          433 106 333 rmoveto
          -2 -1 0 -2 -1 hvcurveto
          -10 -15 -15 -23 -20 -34 -20 -34 -14 -34 -11 -36 rrcurveto
          -7 -22 -4 -22 -20 vvcurveto
          -12 2 -11 2 -11 vhcurveto
          -42 9 49 -15 60 hhcurveto
          31 35 4 8 40 hvcurveto
          60 11 50 10 42 9 rrcurveto
          -2 -10 -6 -16 -10 vvcurveto
          -4 3 -2 5 vhcurveto
          2 hlineto
          16 6 3 30 6 14 105 27 84 17 99 31 64 137 rcurveline
          -5 -9 -9 -2 -8 hhcurveto
          -12 -11 6 10 -9 hvcurveto
          -7 25 -9 22 -12 21 rrcurveto
          26 -15 -26 28 -37 hhcurveto
          -13 -11 -4 -8 -12 hvcurveto
          -61 -42 -43 -96 -26 -75 -41 -6 -47 -8 -52 -11 rrcurveto
          -8 -40 -35 -5 -32 hhcurveto
          -53 -37 13 35 -17 hvcurveto
          -4 7 -2 9 11 vvcurveto
          29 14 40 26 52 vhcurveto
          1 2 0 1 1 vvcurveto
          3 -3 0 -2 vhcurveto
          494 -121 rmoveto
          1 -2 0 -2 -1 vvcurveto
          -4 -2 -2 -4 -1 vhcurveto
          -141 -28 14 35 11 32 27 24 rlinecurve
          8 9 9 4 10 hhcurveto
          9 10 -3 -8 10 hvcurveto
          14 -11 12 -18 11 -23 rrcurveto
          endchar
        </CharString>
        <CharString name="hah-ar.init.yeh">
          150 5 vmoveto
          -6 9 0 3 3 vhcurveto
          8 13 25 25 42 36 42 36 54 37 69 39 69 39 55 49 40 60 13 19 16 36 18 51 18 51 -7 32 -33 14 -32 13 -39 4 -45 -7 -45 -7 -33 -12 -22 -15 rrcurveto
          -33 -23 -23 -42 -14 -61 -14 -61 5 -39 21 -19 -29 -17 -25 -19 -22 -21 -50 -48 -25 -80 -16 -80 rrcurveto
          399 383 rmoveto
          -3 -3 0 0 0 vvcurveto
          -43 -31 -42 -20 -49 -20 rrcurveto
          -1 1 -1 1 1 vvcurveto
          -14 28 -20 22 -11 31 14 11 29 9 45 6 49 6 35 -10 12 -32 rrcurveto
          endchar
        </CharString>
        <CharString name="hah-ar.medi">
          -83 393 238 rmoveto
          -90 -52 -122 -36 -154 -20 rrcurveto
          -1 -3 vlineto
          -24 -129 4 1 8 2 11 2 rlinecurve
          211 54 130 64 49 74 29 45 21 35 23 54 8 18 -3 14 -12 9 -18 14 -32 10 -46 7 -46 7 -34 3 -21 -1 -18 -38 -19 -35 -17 -39 -5 -12 0 -6 6 -1 rrcurveto
          13 -3 21 -2 30 -1 36 -1 68 -3 7 -24 -2 -3 -3 -3 -6 -3 rrcurveto
          endchar
        </CharString>
        <CharString name="hah-ar.medi.ain">
          31 507 231 rmoveto
          -94 -50 -94 -37 -117 -15 -52 -7 -39 2 -27 10 -24 8 -15 14 -6 21 -13 -35 -13 -43 -13 -50 1 -29 27 -14 28 -3 55 -5 55 2 55 9 132 23 111 62 63 95 rrcurveto
          29 45 21 35 23 54 7 18 -2 14 -12 9 -18 14 -31 9 -45 4 -45 4 -35 3 -23 6 -18 -38 -19 -35 -17 -39 -5 -12 0 -6 6 -1 13 -3 22 -1 30 -1 rrcurveto
          30 -1 26 -3 21 -5 20 -5 11 -6 2 -8 -2 -3 -3 -3 -6 -3 rrcurveto
          endchar
        </CharString>
        <CharString name="hah-ar.medi.dal">
          -73 47 9 rmoveto
          65 -36 203 73 94 110 38 44 35 57 16 49 7 21 -3 15 -10 8 -18 14 -33 8 -45 4 -45 4 -34 4 -22 6 rrcurveto
          -1 hlineto
          -18 -38 -20 -35 -16 -39 -5 -12 0 -6 6 -1 13 -3 22 -2 30 -1 30 -1 27 -3 21 -5 36 -9 3 -10 -21 -13 -187 -99 -163 -24 15 111 rrcurveto
          8 -2 0 -5 -8 vhcurveto
          -32 -43 -52 -109 71 -39 rrcurveto
          endchar
        </CharString>
        <CharString name="hah-ar.medi.feh">
          74 246 16 rmoveto
          44 8 39 9 35 11 107 33 66 55 57 86 21 31 25 42 9 40 4 16 -3 11 -8 7 -19 15 -40 6 -32 5 -33 5 -45 2 -28 7 rrcurveto
          -1 hlineto
          -18 -38 -19 -35 -16 -39 -6 -12 1 -6 6 -1 13 -3 21 -1 30 -1 36 -1 67 -3 7 -24 -2 -3 -2 -3 -6 -3 -90 -48 -97 -31 -121 -17 -71 -10 -121 -10 -17 60 rrcurveto
          -13 -34 -13 -43 -13 -51 1 -29 27 -14 28 -3 49 -5 64 5 77 14 rrcurveto
          endchar
        </CharString>
        <CharString name="hah-ar.medi.hah">
          -96 174 261 rmoveto
          -32 -8 -29 -15 -25 -23 -17 -16 -15 -21 -12 -26 -16 -33 -14 -49 -14 -65 rrcurveto
          -6 9 0 3 3 vhcurveto
          26 49 39 33 47 25 52 28 62 17 48 32 43 27 37 39 33 50 29 46 22 34 22 54 7 18 -1 14 -12 9 -18 14 -32 8 -45 4 -45 4 -34 4 -23 6 rrcurveto
          -1 hlineto
          -18 -38 -20 -34 -16 -40 -5 -11 0 -7 6 -1 13 -3 22 -2 30 -1 30 -1 27 -2 21 -5 19 -5 11 -6 3 -8 -1 -2 -4 -4 -6 -4 -74 -38 -52 -24 -80 -20 rrcurveto
          endchar
        </CharString>
        <CharString name="hah-ar.medi.heh">
          89 146 -51 rmoveto
          38 68 100 71 160 74 59 28 45 40 36 56 29 45 22 35 22 54 7 18 -1 14 -12 9 -18 14 -32 8 -45 4 -45 4 -35 4 -22 6 rrcurveto
          -1 hlineto
          -18 -38 -20 -35 -16 -39 -5 -12 0 -6 6 -1 13 -3 22 -2 30 -1 30 -1 27 -3 21 -5 20 -5 10 -6 2 -8 -1 -3 -3 -2 -6 -3 -49 -26 3 -1 -53 -15 rrcurveto
          -55 -16 -46 -13 -45 -25 -118 -65 -77 -145 -62 -125 -9 -18 rcurveline
          4 30 rlineto
          1 vlineto
          -53 -65 rlineto
          -1 vlineto
          -3 -38 -3 -41 1 -30 6 -17 rlinecurve
          6 -17 13 11 19 40 31 62 31 64 40 71 rrcurveto
          endchar
        </CharString>
        <CharString name="hah-ar.medi.heh.ragaa">
          27 520 184 rmoveto
          32 37 1 4 30 52 16 28 0 19 -15 9 -45 28 -118 35 -63 11 -21 -41 -3 -8 -22 -54 -5 -10 0 -5 5 -1 56 -10 86 -28 42 -24 -2 -1 -2 -2 -2 -1 rrcurveto
          -1 hlineto
          -29 -15 -35 -11 -41 -7 -35 -6 -34 -9 -32 -13 -70 -28 -57 -56 -34 -65 -18 -35 -20 -39 -21 -41 -1 -2 rcurveline
          -7 -15 4 29 rlineto
          1 vlineto
          -51 -65 -6 -39 -5 -37 1 -29 8 -22 rlinecurve
          6 -17 13 11 19 40 8 20 10 20 11 26 12 27 10 25 11 25 32 72 42 47 70 28 44 18 60 10 48 20 40 17 49 42 29 35 rrcurveto
          endchar
        </CharString>
        <CharString name="hah-ar.medi.meem">
          -58 18 hmoveto
          3 hlineto
          2 5 2 5 4 6 16 25 20 23 25 18 37 24 63 28 49 19 85 33 65 44 48 73 29 45 21 34 23 54 8 18 -2 15 -12 9 -18 14 -32 8 -45 4 rrcurveto
          -45 4 -34 4 -23 6 -1 -1 rcurveline
          -19 -39 -18 -33 -17 -40 -5 -11 0 -6 6 -1 38 -9 126 11 11 -36 -2 -3 -3 -3 -6 -3 -50 -27 8 2 -56 -16 -50 -15 -43 -11 -44 -16 -48 -17 -35 -23 -22 -29 rrcurveto
          -21 -28 -19 -44 -16 -60 -6 -25 -5 -11 -10 -22 11 -1 rcurveline
          1 -1 3 -1 3 1 rrcurveto
          endchar
        </CharString>
        <CharString name="hah-ar.medi.ragaa">
          -166 318 274 rmoveto
          -91 -48 8 9 -89 -41 -61 -29 -41 -35 -20 -42 -3 -6 -14 -34 -3 -6 -1 -3 -1 -4 -2 -5 42 -30 rcurveline
          17 13 29 15 16 14 28 21 23 14 20 7 42 15 32 23 31 33 16 18 19 26 22 34 20 31 20 28 16 34 9 19 13 16 -1 29 -1 7 -3 7 -6 4 rrcurveto
          -18 14 -32 12 -45 10 -45 10 -33 8 -23 6 rrcurveto
          -1 hlineto
          -18 -38 -19 -35 -17 -39 -5 -12 0 -6 6 -1 56 -13 54 -9 51 -18 8 -4 5 -4 1 -6 -1 -3 -4 -3 -6 -3 rrcurveto
          endchar
        </CharString>
        <CharString name="hah-ar.medi.reh">
          -85 392 288 rmoveto
          -36 -19 -33 -15 -27 -11 -53 -23 -57 -14 -55 -21 -28 -11 -42 -18 -14 -21 -16 -23 -4 -30 -13 -27 rrcurveto
          -1 vlineto
          -15 -18 -4 -16 9 -13 9 -13 10 2 11 17 38 38 70 22 57 22 98 37 62 35 52 80 29 45 22 35 22 54 7 18 -1 14 -12 9 -18 14 -33 8 -45 4 rrcurveto
          -45 4 -34 4 -23 6 -18 -38 -19 -35 -17 -39 -5 -12 0 -6 6 -1 13 -3 22 -2 30 -1 36 -1 68 -3 6 -24 -1 -3 -3 -2 -6 -4 rrcurveto
          endchar
        </CharString>
        <CharString name="hah-ar.medi.sad">
          177 83 7 rmoveto
          119 -18 124 16 127 50 127 50 92 83 56 115 5 9 6 14 7 18 7 18 -2 14 -12 9 -18 14 -32 8 -45 4 -45 4 -35 4 -22 6 -19 -38 -19 -34 -16 -40 rrcurveto
          -6 -11 0 -7 7 -1 13 -3 21 -1 30 -1 30 -1 27 -3 21 -5 20 -5 11 -6 2 -8 -1 -1 -4 -4 -6 -5 -22 -12 -19 -9 -18 -6 -73 -26 -78 -24 -86 -20 rrcurveto
          -101 -23 -119 -12 -45 67 -19 28 8 48 34 68 2 4 0 2 -3 1 -3 1 -2 -2 -2 -2 -10 -14 -15 -23 -20 -34 -20 -34 -15 -34 -11 -36 -11 -36 -2 -32 7 -30 rrcurveto
          7 -30 23 -18 43 -6 rrcurveto
          endchar
        </CharString>
        <CharString name="hah-ar.medi.yeh">
          -77 12 2 rmoveto
          30 56 52 39 63 27 76 32 77 24 60 50 16 13 19 23 21 33 35 54 9 15 22 53 7 18 -2 14 -12 9 -18 14 -32 9 -45 4 -45 4 -34 3 -22 6 rrcurveto
          -1 hlineto
          -18 -38 -20 -34 -16 -39 -5 -12 0 -6 6 -1 13 -3 22 -2 30 -1 30 -1 26 -3 21 -5 20 -5 11 -6 2 -8 -1 -2 -5 -2 -9 -3 -72 -23 -75 -21 -71 -24 rrcurveto
          -68 -23 -37 -27 -30 -65 -15 -32 -14 -48 -13 -63 rrcurveto
          -6 9 0 3 3 vhcurveto
          endchar
        </CharString>
        <CharString name="hamza-ar">
          67 84 hmoveto
          39 46 6 12 25 hvcurveto
          34 16 29 38 30 41 28 39 26 32 -2 19 -5 51 -72 -16 -26 46 28 24 23 8 38 10 8 15 25 30 10 17 rrcurveto
          17 10 12 23 -14 hhcurveto
          -14 -35 -20 -11 -15 hvcurveto
          -91 -63 -91 -118 26 -45 11 -19 27 -19 35 -8 17 -4 11 -10 -24 -12 -48 -24 -80 -28 -44 -28 rrcurveto
          -16 -25 18 -3 30 hhcurveto
          endchar
        </CharString>
        <CharString name="hamzaabove-ar">
          10 -47 rmoveto
          37 26 20 43 -28 18 -15 10 -24 1 -12 14 15 21 26 3 8 18 21 45 rcurveline
          -9 -4 -9 -4 -8 -6 -26 -20 -88 -94 50 -28 11 -6 16 -6 11 -7 6 -4 -8 -5 -3 -2 -29 -16 -33 -13 -31 -14 36 6 35 2 31 22 rrcurveto
          endchar
        </CharString>
        <CharString name="hamzabelow-ar">
          10 -47 rmoveto
          37 26 20 43 -28 18 -15 10 -24 1 -12 14 15 21 26 3 8 18 21 45 rcurveline
          -9 -4 -9 -4 -8 -6 -26 -20 -88 -94 50 -28 11 -6 16 -6 11 -7 6 -4 -8 -5 -3 -2 -29 -16 -33 -13 -31 -14 36 6 35 2 31 22 rrcurveto
          endchar
        </CharString>
        <CharString name="heh-ar">
          -117 217 167 rmoveto
          50 226 -122 160 -114 -333 -40 -116 -21 -132 120 31 84 22 27 68 16 74 rrcurveto
          -79 98 rmoveto
          13 -9 37 -78 -17 -11 -29 -18 -46 -17 -39 17 -6 3 -9 8 2 4 4 15 42 119 48 -33 rrcurveto
          endchar
        </CharString>
        <CharString name="heh-ar.fina">
          -168 78 135 rmoveto
          8 9 1 3 9 hvcurveto
          32 9 27 17 21 24 13 -189 rcurveline
          74 138 -18 263 rlineto
          44 -12 26 -25 10 vhcurveto
          2 -6 -6 2 -7 hhcurveto
          -20 -22 -12 -23 -25 hvcurveto
          -9 -8 -14 -18 -18 -26 -33 -47 -37 -65 -15 -61 rrcurveto
          -2 -9 -2 -9 -8 vvcurveto
          -41 46 -23 32 vhcurveto
          93 153 rmoveto
          -7 -1 -7 -1 -6 vhcurveto
          -3 -11 -10 -2 -10 hhcurveto
          -32 -27 14 20 -10 hvcurveto
          -3 5 -2 5 4 vvcurveto
          5 2 4 4 5 vhcurveto
          8 10 10 9 12 10 rrcurveto
          7 8 8 3 10 hhcurveto
          38 7 -36 -40 hvcurveto
          endchar
        </CharString>
        <CharString name="heh-ar.init">
          221 343 391 rmoveto
          -15 -17 -12 -23 -20 hvcurveto
          -47 -54 -40 -67 -33 -81 -148 -24 rcurveline
          -23 -130 60 16 61 11 60 16 rlinecurve
          -1 vlineto
          2 2 7 0 2 hhcurveto
          11 hlineto
          151 81 67 101 66 hvcurveto
          30 46 17 41 4 38 rrcurveto
          1 11 1 11 11 vvcurveto
          17 -2 16 -3 17 vhcurveto
          -5 28 -4 30 -5 31 -7 45 -13 29 -18 12 rrcurveto
          8 -12 -13 3 -13 hhcurveto
          -8 -8 -1 -3 -8 hvcurveto
          -48 -16 -49 -53 -29 -38 -25 -34 -30 -32 -15 -43 rrcurveto
          -1 -1 0 0 vhcurveto
          -3 3 -2 6 vhcurveto
          1 1 rlineto
          7 5 2 3 3 hvcurveto
          15 17 14 17 14 20 14 20 17 15 22 11 rrcurveto
          3 7 6 2 6 hhcurveto
          20 17 -18 -12 6 hvcurveto
          28 -58 13 -70 -80 vvcurveto
          -11 0 -11 -1 -11 vhcurveto
          -33 -21 -41 -15 -50 -9 18 35 16 31 14 29 rrcurveto
          6 12 3 11 13 vvcurveto
          28 -20 57 -31 vhcurveto
          -117 -201 rmoveto
          3 1 3 1 3 vhcurveto
          11 24 14 16 17 6 rrcurveto
          1 3 2 0 2 hhcurveto
          13 12 -14 -26 9 hvcurveto
          2 -3 -17 -15 -23 -12 -28 -8 rlinecurve
          -1 hlineto
          -6 -12 13 9 hvcurveto
          endchar
        </CharString>
        <CharString name="heh-ar.init.ain">
          338 445 389 rmoveto
          -15 -16 -12 -23 -20 hvcurveto
          -47 -54 -40 -67 -33 -81 rrcurveto
          -2 vlineto
          -66 -14 -147 -38 -22 77 -13 -35 -13 -42 -13 -50 1 -29 27 -15 28 -3 41 -4 40 3 38 10 38 10 39 10 40 10 rrcurveto
          1 1 1 1 hhcurveto
          1 11 vlineto
          151 81 67 101 66 hvcurveto
          30 46 16 41 4 38 rrcurveto
          1 11 1 11 11 vvcurveto
          17 -1 16 -3 17 vhcurveto
          -5 28 -4 30 -5 31 -7 45 -14 29 -18 12 rrcurveto
          8 -12 -12 3 -13 hhcurveto
          -8 -8 -1 -3 -8 hvcurveto
          -48 -16 -50 -53 -29 -38 -25 -34 -30 -32 -15 -43 rrcurveto
          -1 vlineto
          -3 2 -2 6 vhcurveto
          1 1 rlineto
          7 5 2 3 3 hvcurveto
          15 17 14 17 14 20 14 20 17 15 22 11 rrcurveto
          3 7 7 2 6 hhcurveto
          20 16 -18 -12 6 hvcurveto
          28 -58 14 -70 -80 vvcurveto
          -11 0 -11 -1 -11 vhcurveto
          -33 -21 -41 -15 -50 -9 18 35 16 31 14 29 rrcurveto
          6 12 3 11 13 vvcurveto
          28 -21 57 -31 vhcurveto
          -116 -201 rmoveto
          3 1 3 1 3 vhcurveto
          11 24 13 16 17 6 rrcurveto
          1 3 2 0 2 hhcurveto
          13 13 -14 -26 9 hvcurveto
          2 -3 -17 -15 -23 -11 -28 -8 rlinecurve
          -2 hlineto
          -6 -11 12 9 hvcurveto
          endchar
        </CharString>
        <CharString name="heh-ar.init.dal">
          237 195 29 rmoveto
          1 7 7 1 7 hhcurveto
          90 -1 70 24 53 41 60 46 72 107 8 76 6 54 -13 55 -10 62 -29 181 -133 -106 -65 -88 -25 -34 -30 -32 -14 -43 -3 -8 20 1 6 6 31 34 22 45 44 22 rrcurveto
          29 14 24 -21 9 -19 31 -64 14 -82 -4 -94 -34 -21 -42 -16 -49 -9 16 31 17 32 15 32 28 58 -50 113 -72 -84 -50 -58 -39 -70 -31 -75 rrcurveto
          1 vlineto
          -33 -7 -38 -11 -33 9 -24 6 -13 30 2 29 1 4 -5 2 -4 -6 -40 -58 -28 -101 65 -32 39 -19 81 33 37 9 rrcurveto
          52 170 rmoveto
          23 49 38 21 22 -63 rrcurveto
          0 1 -1 1 -2 vhcurveto
          -18 -15 -25 -12 -25 -8 -6 -2 -18 18 7 15 rrcurveto
          endchar
        </CharString>
        <CharString name="heh-ar.init.feh">
          453 422 51 rmoveto
          154 -1 82 66 67 102 30 46 16 42 4 38 6 61 -14 55 -9 55 -7 45 -14 28 -18 13 -18 13 -21 1 -22 -7 -48 -16 -50 -53 -28 -38 -25 -34 -31 -31 -14 -44 rrcurveto
          -4 -10 25 7 3 3 16 17 14 18 14 20 14 20 17 14 22 11 30 15 22 -24 9 -16 32 -65 13 -80 -4 -96 -34 -21 -41 -15 -49 -9 16 31 15 32 16 31 rrcurveto
          14 29 -3 32 -20 36 -20 36 -29 -3 -36 -42 -50 -58 -38 -69 -31 -75 -52 -11 -88 -16 -64 -3 -62 -3 -78 3 -12 45 -13 -34 -13 -43 -13 -51 1 -29 27 -14 28 -3 rrcurveto
          105 -11 155 36 86 22 rrcurveto
          -1 3 13 3 4 hhcurveto
          117 172 rmoveto
          -16 -14 -23 -12 -29 -9 -3 -1 -5 3 -6 7 -6 7 -1 7 4 8 11 24 13 15 17 6 17 6 14 -13 11 -31 rrcurveto
          -1 1 -1 1 -1 vhcurveto
          endchar
        </CharString>
        <CharString name="heh-ar.init.hah">
          263 454 217 rmoveto
          30 23 30 34 30 46 30 46 16 42 4 38 6 61 -14 54 -9 56 -7 45 -14 29 -18 12 -18 12 -21 2 -22 -7 -48 -16 -50 -53 -28 -38 -25 -34 -31 -32 -14 -43 rrcurveto
          -3 -10 24 7 3 3 15 17 14 17 14 20 14 20 17 15 22 11 30 14 24 -22 8 -17 32 -65 13 -81 -4 -95 -33 -21 -41 -15 -50 -9 18 35 16 30 14 29 rrcurveto
          14 29 -4 32 -20 36 -20 36 -29 -4 -36 -42 -47 -54 -39 -67 -33 -81 -45 -8 -46 -22 -26 -17 -26 -18 -20 -24 -13 -31 -13 -31 -13 -46 -12 -60 rrcurveto
          -6 9 0 3 3 vhcurveto
          24 39 22 29 31 25 32 24 47 20 45 10 rrcurveto
          3 12 10 1 7 hhcurveto
          85 -1 70 21 57 44 rrcurveto
          -97 108 rmoveto
          -17 -15 -22 -12 -28 -8 -3 -1 -5 3 -6 7 -6 7 -1 7 4 8 11 24 13 15 17 6 17 6 14 -13 11 -31 rrcurveto
          0 0 0 1 -3 vhcurveto
          endchar
        </CharString>
        <CharString name="heh-ar.init.heh">
          416 387 148 rmoveto
          85 -1 71 22 57 44 30 23 29 34 30 46 30 46 16 41 4 38 7 61 -14 55 -9 55 -7 45 -14 28 -18 13 -18 13 -21 2 -22 -7 -48 -16 -50 -53 -29 -38 rrcurveto
          -25 -33 -30 -33 -15 -43 rrcurveto
          -4 -1 3 -2 7 hhcurveto
          7 5 2 3 3 hvcurveto
          15 17 14 18 14 20 14 20 18 15 22 11 30 15 22 -25 9 -16 32 -66 13 -80 -4 -94 -34 -21 -41 -15 -49 -9 16 31 16 32 16 32 14 29 -4 32 -20 35 rrcurveto
          -20 35 -28 -3 -36 -42 -50 -58 -39 -68 -31 -76 rrcurveto
          1 vlineto
          -3 -1 rlineto
          -1 hlineto
          -36 -12 -27 -17 -20 -19 -20 -19 -25 -29 -31 -40 -52 -67 -42 -80 -39 -78 -9 -18 rcurveline
          4 30 rlineto
          1 vlineto
          -53 -65 rlineto
          -1 vlineto
          -3 -38 -3 -41 1 -30 6 -17 rlinecurve
          6 -17 13 11 19 40 29 58 23 56 15 36 15 36 27 41 40 47 41 49 44 34 54 30 rrcurveto
          -1 vlineto
          4 18 15 6 22 hhcurveto
          116 172 rmoveto
          -18 -14 -22 -12 -28 -8 -3 -1 -4 3 -6 7 -6 7 -2 7 4 8 11 24 13 15 17 6 17 6 14 -13 11 -31 rrcurveto
          0 0 -1 2 -3 vhcurveto
          endchar
        </CharString>
        <CharString name="heh-ar.init.meem">
          277 466 211 rmoveto
          30 23 30 33 30 46 30 46 16 42 4 38 7 62 -14 53 -9 56 -7 45 -14 29 -18 12 -18 12 -21 3 -22 -7 -48 -16 -50 -54 -29 -38 -25 -33 -30 -32 -15 -43 rrcurveto
          -3 -10 24 6 3 3 15 17 15 18 14 20 14 20 17 15 22 11 30 14 23 -24 9 -16 31 -66 13 -79 -4 -95 -33 -21 -41 -16 -50 -9 18 35 16 31 14 29 rrcurveto
          14 29 -4 32 -20 36 -20 36 -28 -4 -36 -42 -47 -54 -40 -68 -33 -81 -15 -4 -33 -12 -13 -6 -62 -26 -36 -46 -27 -63 -14 -31 -12 -33 -14 -32 21 -2 rcurveline
          13 31 16 25 21 19 19 17 25 13 31 12 21 8 22 7 21 7 rrcurveto
          2 1 0 1 2 hvcurveto
          74 23 14 -5 19 -5 20 3 rlinecurve
          52 8 32 16 40 31 rrcurveto
          -96 107 rmoveto
          -18 -14 -22 -12 -28 -8 -3 -1 -4 2 -6 7 -6 7 -2 7 4 8 11 24 14 16 17 6 17 6 13 -14 11 -31 rrcurveto
          0 1 0 1 -3 vhcurveto
          endchar
        </CharString>
        <CharString name="heh-ar.init.ragaa">
          314 256 103 rmoveto
          86 -1 70 21 56 44 52 40 80 108 8 81 7 62 -15 53 -9 56 -7 45 -13 29 -18 12 -18 12 -21 2 -22 -7 -48 -16 -51 -53 -28 -38 -25 -34 -30 -32 -15 -43 rrcurveto
          -3 -10 24 6 3 3 16 17 14 19 14 20 14 20 18 14 21 11 30 14 23 -22 8 -17 32 -65 14 -81 -5 -95 -33 -21 -41 -15 -50 -9 16 31 16 32 16 32 rrcurveto
          14 29 -4 31 -20 36 -20 36 -28 -3 -36 -42 -50 -58 -39 -69 -31 -76 -20 -5 -20 -6 -21 -8 -56 -25 -31 -33 -38 -41 -21 -24 -14 -20 -7 -18 46 -33 rcurveline
          1 2 1 1 2 2 62 39 54 51 90 9 rrcurveto
          116 171 rmoveto
          -16 -14 -23 -11 -29 -9 -3 -1 -4 3 -6 7 -6 7 -2 7 4 8 11 24 14 15 17 6 18 6 15 -17 10 -31 rrcurveto
          endchar
        </CharString>
        <CharString name="heh-ar.init.reh">
          224 348 425 rmoveto
          -15 -17 -11 -23 -19 hvcurveto
          -46 -53 -39 -66 -33 -78 rrcurveto
          1 vlineto
          -1 -2 0 -2 -1 -2 rrcurveto
          -1 1 hlineto
          -4 -1 -5 0 -4 -1 rrcurveto
          -1 hlineto
          -40 -12 -30 -12 -23 -25 -21 -22 -20 -30 -14 -32 rrcurveto
          -1 vlineto
          -10 -12 -5 -11 -9 vvcurveto
          -10 8 -13 9 6 5 5 9 7 vhcurveto
          35 35 37 8 49 15 4 1 10 2 15 4 rrcurveto
          3 2 1 3 hhcurveto
          1 5 4 0 4 hhcurveto
          5 hlineto
          83 69 21 43 55 hvcurveto
          30 23 30 34 30 46 30 46 17 42 4 38 rrcurveto
          1 10 0 9 10 vvcurveto
          17 -1 18 -3 18 vhcurveto
          -5 28 -4 29 -5 31 -7 45 -14 29 -18 12 rrcurveto
          8 -12 -12 4 -13 hhcurveto
          -8 -8 -1 -3 -8 hvcurveto
          -48 -16 -50 -53 -29 -38 -25 -34 -30 -32 -14 -43 rrcurveto
          -1 -1 -1 0 vhcurveto
          -3 2 -1 6 vhcurveto
          1 1 rlineto
          7 6 1 3 3 hvcurveto
          15 17 14 18 14 20 14 20 17 15 22 11 rrcurveto
          3 7 6 2 6 hhcurveto
          20 16 -18 -12 6 hvcurveto
          28 -58 14 -69 -81 vvcurveto
          -11 0 -11 -1 -11 vhcurveto
          -33 -21 -41 -16 -50 -9 18 35 16 31 14 29 rrcurveto
          6 11 2 12 13 vvcurveto
          28 -20 57 -31 vhcurveto
          -112 -195 rmoveto
          3 1 3 1 3 vhcurveto
          11 24 14 15 17 6 rrcurveto
          1 3 2 0 2 hhcurveto
          13 12 -13 -26 9 hvcurveto
          2 -4 -18 -14 -22 -12 -28 -8 rlinecurve
          -1 hlineto
          -6 -12 13 9 hvcurveto
          endchar
        </CharString>
</ttFont>
